<svg xmlns="http://www.w3.org/2000/svg" xmlns:xlink="http://www.w3.org/1999/xlink" width="500" zoomAndPan="magnify" viewBox="0 0 375 374.999991" height="500" preserveAspectRatio="xMidYMid meet" version="1.0"><defs><g/><clipPath id="f2a3e2c285"><path d="M 135 78 L 298 78 L 298 215 L 135 215 Z M 135 78 " clip-rule="nonzero"/></clipPath><clipPath id="7448cfc1c6"><path d="M 124.558594 96.878906 L 281.871094 65.25 L 309.605469 203.199219 L 152.292969 234.828125 Z M 124.558594 96.878906 " clip-rule="nonzero"/></clipPath><clipPath id="d68dc1647b"><path d="M 124.558594 96.878906 L 281.871094 65.25 L 309.605469 203.199219 L 152.292969 234.828125 Z M 124.558594 96.878906 " clip-rule="nonzero"/></clipPath></defs><path fill="#a3c9a8" d="M 251.304688 237.355469 C 249.964844 233.246094 249.921875 228.3125 249.007812 224.019531 C 248.300781 220.496094 247.304688 217.054688 246.015625 213.699219 C 244.039062 208.757812 241.015625 204.234375 236.179688 201.738281 C 226.34375 196.640625 213.066406 199.238281 202.699219 200.78125 C 170.722656 205.535156 134.523438 209.648438 103.398438 197.46875 C 41.886719 173.402344 38.65625 77.199219 93.554688 44.070312 C 138.132812 17.171875 191.46875 16.058594 241.632812 22.972656 C 267.257812 26.503906 295.566406 32.167969 315.25 50.253906 C 338.886719 71.984375 340.378906 106.597656 336.382812 136.285156 C 332.308594 166.53125 308.257812 184.542969 279.402344 190.535156 C 275.203125 191.40625 275.015625 197.515625 274.097656 200.847656 C 270.589844 213.582031 265.890625 233.082031 251.34375 237.476562 Z M 251.304688 237.355469 " fill-opacity="1" fill-rule="nonzero"/><g clip-path="url(#f2a3e2c285)"><g clip-path="url(#7448cfc1c6)"><g clip-path="url(#d68dc1647b)"><path fill="#576d70" d="M 291.351562 121.4375 C 288.777344 117.496094 285.453125 114.0625 281.492188 111.476562 C 280.632812 110.917969 279.671875 110.390625 278.65625 109.953125 C 277.660156 105.066406 275.542969 100.492188 272.484375 96.664062 C 269.402344 92.808594 265.378906 89.695312 260.617188 87.808594 C 257.6875 86.648438 254.488281 85.839844 251.226562 85.460938 C 247.964844 85.101562 244.640625 85.167969 241.433594 85.816406 C 240.3125 86.039062 239.191406 86.339844 238.109375 86.707031 C 238.074219 86.671875 238.035156 86.632812 238 86.59375 C 235.886719 84.65625 233.300781 83.019531 230.753906 81.75 C 229.476562 81.125 228.214844 80.585938 227.007812 80.167969 C 225.804688 79.753906 224.675781 79.425781 223.664062 79.242188 C 219.558594 78.464844 215.46875 78.597656 211.511719 79.394531 C 206.59375 80.382812 201.867188 82.398438 197.53125 84.960938 C 196.675781 85.460938 195.738281 86.082031 194.820312 86.804688 C 189.914062 85.621094 184.847656 85.578125 180 86.554688 C 173.757812 87.808594 167.851562 90.746094 163.027344 95.113281 C 161.054688 96.902344 158.203125 99.78125 155.96875 103.027344 C 154.859375 104.65625 153.890625 106.378906 153.285156 108.132812 C 153.21875 108.324219 153.152344 108.519531 153.101562 108.722656 C 150.453125 109.601562 148.054688 110.996094 145.953125 112.765625 C 142 116.101562 139.074219 120.746094 137.390625 125.84375 C 135.707031 130.941406 135.25 136.480469 136.285156 141.632812 C 136.738281 143.890625 137.472656 146.0625 138.523438 148.082031 C 138.375 148.304688 138.242188 148.542969 138.125 148.773438 C 137.332031 150.265625 136.882812 151.898438 136.714844 153.59375 C 136.542969 155.273438 136.652344 157.015625 136.996094 158.726562 C 137.617188 161.804688 138.988281 164.824219 140.878906 167.390625 C 141.824219 168.667969 142.894531 169.828125 144.085938 170.832031 C 145.273438 171.820312 146.5625 172.652344 147.9375 173.246094 C 149.890625 174.09375 151.90625 174.601562 153.957031 174.820312 C 156.003906 175.035156 158.070312 174.964844 160.117188 174.644531 C 160.523438 174.574219 160.804688 174.191406 160.738281 173.785156 C 160.671875 173.378906 160.285156 173.097656 159.878906 173.164062 C 157.964844 173.472656 156.019531 173.535156 154.121094 173.332031 C 152.210938 173.132812 150.335938 172.660156 148.53125 171.871094 C 147.300781 171.339844 146.132812 170.601562 145.050781 169.679688 C 143.429688 168.316406 141.988281 166.570312 140.867188 164.640625 C 139.726562 162.699219 138.910156 160.574219 138.480469 158.445312 C 138.199219 157.035156 138.09375 155.621094 138.179688 154.253906 C 138.242188 153.238281 138.417969 152.246094 138.722656 151.304688 C 138.902344 150.710938 139.132812 150.144531 139.414062 149.605469 C 140.367188 151.152344 141.539062 152.578125 142.898438 153.84375 C 143.914062 154.792969 145.234375 155.472656 146.644531 155.859375 C 148.054688 156.25 149.566406 156.335938 150.992188 156.050781 C 151.679688 155.910156 152.367188 155.683594 152.988281 155.347656 C 153.625 155.011719 154.199219 154.582031 154.703125 154.046875 C 155.429688 153.257812 155.902344 152.339844 156.132812 151.394531 C 156.355469 150.4375 156.355469 149.464844 156.164062 148.515625 C 155.972656 147.566406 155.597656 146.652344 155.074219 145.84375 C 154.550781 145.023438 153.882812 144.304688 153.082031 143.746094 C 152.105469 143.058594 151.007812 142.652344 149.859375 142.464844 C 148.714844 142.273438 147.542969 142.316406 146.417969 142.542969 C 145.6875 142.691406 144.984375 142.921875 144.324219 143.203125 C 142.660156 143.941406 141.28125 144.90625 140.175781 146.027344 C 139.953125 146.25 139.746094 146.488281 139.539062 146.722656 C 138.734375 145.03125 138.144531 143.21875 137.769531 141.347656 C 137.117188 138.113281 137.085938 134.675781 137.621094 131.304688 C 138.414062 126.253906 140.480469 121.332031 143.542969 117.441406 C 145.082031 115.5 146.863281 113.792969 148.871094 112.460938 C 150.085938 111.648438 151.375 110.984375 152.734375 110.457031 C 152.726562 110.566406 152.703125 110.675781 152.695312 110.78125 C 152.601562 111.667969 152.617188 112.546875 152.785156 113.394531 C 152.9375 114.144531 153.203125 114.882812 153.597656 115.582031 C 153.996094 116.28125 154.535156 116.949219 155.195312 117.566406 C 156.042969 118.351562 157.066406 118.894531 158.171875 119.195312 C 159.265625 119.5 160.429688 119.550781 161.550781 119.324219 C 161.808594 119.273438 162.050781 119.210938 162.304688 119.128906 C 162.953125 118.925781 163.589844 118.601562 164.148438 118.175781 C 164.707031 117.75 165.195312 117.203125 165.523438 116.535156 C 165.757812 116.054688 165.894531 115.550781 165.953125 115.027344 C 166.003906 114.523438 165.972656 114.007812 165.871094 113.503906 C 165.667969 112.480469 165.191406 111.53125 164.527344 110.75 C 163.976562 110.097656 163.316406 109.574219 162.601562 109.148438 C 161.535156 108.523438 160.320312 108.140625 159.089844 107.984375 C 157.863281 107.824219 156.585938 107.875 155.375 108.117188 C 155.320312 108.128906 155.261719 108.140625 155.1875 108.152344 C 155.074219 108.175781 154.957031 108.199219 154.859375 108.234375 C 155.039062 107.78125 155.242188 107.304688 155.464844 106.855469 C 156.496094 104.761719 158.007812 102.664062 159.582031 100.820312 C 161.15625 98.976562 162.792969 97.375 164.046875 96.242188 C 168.636719 92.042969 174.296875 89.226562 180.28125 88.023438 C 184.566406 87.160156 189.003906 87.136719 193.355469 88.011719 C 192.910156 88.402344 192.484375 88.816406 192.078125 89.242188 C 190.992188 90.390625 190.03125 91.644531 189.386719 92.988281 C 189.074219 93.664062 188.839844 94.355469 188.714844 95.066406 C 188.601562 95.777344 188.601562 96.511719 188.746094 97.230469 C 188.902344 98.007812 189.21875 98.765625 189.738281 99.488281 C 190.242188 100.207031 190.933594 100.890625 191.8125 101.539062 C 192.671875 102.171875 193.667969 102.585938 194.699219 102.800781 C 195.730469 103.011719 196.804688 103.003906 197.828125 102.796875 C 198.933594 102.574219 199.992188 102.109375 200.898438 101.402344 C 202.011719 100.535156 202.816406 99.339844 203.289062 98.035156 C 203.757812 96.726562 203.875 95.296875 203.601562 93.929688 C 203.507812 93.46875 203.375 93.03125 203.195312 92.589844 C 202.914062 91.929688 202.554688 91.328125 202.113281 90.773438 C 201.453125 89.949219 200.65625 89.253906 199.765625 88.699219 C 198.890625 88.144531 197.921875 87.710938 196.945312 87.398438 C 196.851562 87.371094 196.738281 87.332031 196.640625 87.308594 C 197.207031 86.910156 197.765625 86.558594 198.285156 86.246094 C 202.511719 83.75 207.074219 81.8125 211.792969 80.863281 C 215.578125 80.105469 219.472656 79.980469 223.363281 80.722656 C 224.765625 80.996094 226.507812 81.542969 228.335938 82.3125 C 231.085938 83.480469 234.03125 85.179688 236.398438 87.199219 C 236.453125 87.234375 236.488281 87.273438 236.527344 87.324219 C 234.5 88.179688 232.59375 89.328125 230.851562 90.785156 C 229.835938 91.632812 228.988281 92.703125 228.40625 93.894531 C 227.824219 95.089844 227.492188 96.414062 227.554688 97.765625 C 227.570312 98.210938 227.625 98.632812 227.703125 99.035156 C 227.902344 100.027344 228.289062 100.894531 228.820312 101.609375 C 229.210938 102.144531 229.691406 102.585938 230.230469 102.957031 C 231.027344 103.5 231.933594 103.84375 232.878906 103.996094 C 233.820312 104.152344 234.804688 104.132812 235.769531 103.941406 C 236.71875 103.75 237.648438 103.398438 238.5 102.867188 C 239.351562 102.335938 240.113281 101.644531 240.722656 100.804688 C 241.574219 99.613281 242.136719 98.394531 242.40625 97.203125 C 242.6875 95.992188 242.675781 94.8125 242.445312 93.675781 C 242.25 92.714844 241.898438 91.78125 241.425781 90.90625 C 240.867188 89.847656 240.128906 88.859375 239.285156 87.921875 C 240.085938 87.671875 240.898438 87.464844 241.71875 87.300781 C 244.738281 86.691406 247.910156 86.609375 251.046875 86.964844 C 254.171875 87.308594 257.246094 88.097656 260.058594 89.207031 C 264.578125 90.992188 268.386719 93.925781 271.308594 97.601562 C 274.011719 100.996094 275.957031 105.019531 276.972656 109.320312 C 276.492188 109.160156 275.996094 109.003906 275.492188 108.882812 C 274.40625 108.609375 273.292969 108.425781 272.191406 108.378906 C 271.085938 108.316406 269.992188 108.386719 268.925781 108.601562 C 268.152344 108.757812 267.390625 109 266.679688 109.324219 C 265.609375 109.820312 264.628906 110.527344 263.804688 111.488281 C 262.992188 112.429688 262.335938 113.625 261.902344 115.042969 C 261.484375 116.382812 261.433594 117.769531 261.691406 119.066406 C 261.957031 120.375 262.53125 121.589844 263.378906 122.617188 C 264.230469 123.644531 265.351562 124.464844 266.679688 124.960938 C 267.488281 125.261719 268.289062 125.445312 269.046875 125.503906 C 269.824219 125.570312 270.566406 125.527344 271.285156 125.382812 C 272.578125 125.121094 273.75 124.542969 274.757812 123.757812 C 276.269531 122.570312 277.449219 120.910156 278.203125 119.082031 C 278.957031 117.242188 279.296875 115.226562 279.113281 113.273438 C 279.074219 112.773438 279 112.261719 278.933594 111.769531 C 279.53125 112.066406 280.105469 112.398438 280.640625 112.742188 C 284.410156 115.199219 287.601562 118.496094 290.070312 122.277344 C 292.535156 126.0625 294.277344 130.335938 295.171875 134.78125 C 295.402344 135.933594 295.578125 137.09375 295.695312 138.269531 C 295.800781 139.386719 295.828125 140.5625 295.742188 141.714844 C 295.613281 143.449219 295.207031 145.144531 294.484375 146.625 C 294.125 147.355469 293.679688 148.042969 293.144531 148.660156 C 292.609375 149.273438 291.984375 149.804688 291.234375 150.253906 C 289.996094 151.011719 288.699219 151.484375 287.347656 151.753906 C 286.210938 151.984375 285.042969 152.054688 283.851562 152.007812 C 282.074219 151.949219 280.265625 151.59375 278.488281 151.097656 C 276.710938 150.585938 274.960938 149.921875 273.308594 149.21875 C 264.675781 145.523438 256.011719 140.980469 247.015625 137.609375 C 242.515625 135.925781 237.925781 134.542969 233.222656 133.707031 C 228.742188 132.917969 224.132812 132.632812 219.402344 133.0625 C 219.835938 130.101562 220.632812 127.214844 221.800781 124.527344 C 222.953125 124.832031 224.121094 125.125 225.273438 125.355469 C 230.3125 126.363281 235.457031 126.585938 240.449219 125.582031 C 241.84375 125.300781 243.21875 124.917969 244.59375 124.449219 C 245.585938 124.101562 246.589844 123.660156 247.539062 123.109375 C 248.964844 122.296875 250.296875 121.265625 251.285156 120.003906 C 251.785156 119.367188 252.203125 118.683594 252.488281 117.9375 C 252.785156 117.191406 252.96875 116.390625 252.992188 115.53125 C 253.003906 115.003906 252.964844 114.503906 252.863281 114 C 252.714844 113.269531 252.457031 112.570312 252.101562 111.925781 C 251.574219 110.953125 250.847656 110.082031 249.984375 109.371094 C 249.140625 108.660156 248.15625 108.078125 247.105469 107.707031 C 245.914062 107.273438 244.675781 107.074219 243.441406 107.035156 C 242.207031 107 240.960938 107.132812 239.753906 107.375 C 238.917969 107.542969 238.09375 107.765625 237.292969 108.019531 C 234.300781 108.992188 231.613281 110.445312 229.285156 112.261719 C 225.777344 114.988281 223.046875 118.515625 221.109375 122.496094 C 221.066406 122.578125 221.019531 122.664062 220.992188 122.742188 C 217.683594 121.761719 214.445312 120.484375 211.371094 119.023438 C 209.382812 118.074219 207.410156 117.050781 205.390625 116.078125 C 203.382812 115.105469 201.324219 114.171875 199.1875 113.433594 C 197.160156 112.734375 195.089844 112.269531 193.03125 112.070312 C 190.96875 111.871094 188.90625 111.953125 186.878906 112.363281 C 184.921875 112.757812 183 113.457031 181.125 114.492188 C 177.058594 116.746094 173.566406 120.066406 170.941406 123.976562 C 168.316406 127.886719 166.554688 132.371094 165.953125 136.984375 C 165.761719 138.472656 165.710938 140.097656 166.023438 141.652344 C 166.175781 142.402344 166.414062 143.144531 166.761719 143.824219 C 167.109375 144.519531 167.578125 145.140625 168.195312 145.675781 C 168.359375 145.824219 168.539062 145.964844 168.714844 146.097656 C 168.476562 146.621094 168.25 147.132812 168.027344 147.59375 C 166.773438 150.363281 165.757812 153.351562 165.21875 156.40625 C 164.667969 159.464844 164.597656 162.609375 165.210938 165.671875 C 165.53125 167.253906 166.035156 168.796875 166.757812 170.300781 C 167.640625 172.15625 168.769531 173.769531 170.089844 175.121094 C 172.070312 177.164062 174.480469 178.640625 177.117188 179.558594 C 179.761719 180.496094 182.652344 180.886719 185.609375 180.785156 C 187.4375 180.71875 189.234375 180.492188 191.003906 180.136719 C 193.015625 179.730469 195 179.167969 196.964844 178.53125 C 200.15625 177.503906 203.125 176.050781 206.089844 174.707031 C 209.050781 173.363281 211.992188 172.144531 215.144531 171.511719 C 215.5625 171.425781 215.980469 171.355469 216.402344 171.289062 C 218.304688 171.007812 220.179688 170.738281 222.050781 170.511719 C 222.46875 171.847656 223.085938 173.132812 223.828125 174.359375 C 225.371094 176.890625 227.472656 179.164062 229.78125 181.109375 C 232.085938 183.054688 234.5625 184.652344 236.863281 185.820312 C 238.914062 186.859375 241.003906 187.800781 243.039062 188.785156 C 245.078125 189.765625 247.054688 190.804688 248.890625 192.050781 C 251.316406 193.691406 253.140625 195.628906 254.511719 197.835938 C 255.886719 200.042969 256.804688 202.523438 257.347656 205.242188 C 257.539062 206.191406 257.695312 207.179688 257.792969 208.191406 C 257.949219 209.640625 257.800781 211.4375 257.382812 213.4375 C 257.296875 213.84375 257.558594 214.238281 257.964844 214.324219 C 258.367188 214.40625 258.765625 214.144531 258.847656 213.742188 C 259.292969 211.632812 259.457031 209.695312 259.285156 208.027344 C 259.179688 206.96875 259.015625 205.941406 258.8125 204.933594 C 258.238281 202.070312 257.269531 199.40625 255.789062 197.027344 C 254.304688 194.644531 252.3125 192.546875 249.730469 190.792969 C 247.804688 189.488281 245.75 188.417969 243.695312 187.425781 C 241.625 186.433594 239.539062 185.507812 237.535156 184.472656 C 234.617188 182.996094 231.320312 180.726562 228.613281 177.992188 C 227.261719 176.617188 226.050781 175.140625 225.105469 173.5625 C 224.460938 172.511719 223.941406 171.433594 223.570312 170.324219 C 224.703125 170.21875 225.835938 170.136719 226.953125 170.09375 C 230.398438 169.96875 233.78125 170.261719 237.0625 171.339844 C 240.878906 172.59375 244.773438 174.113281 248.757812 175.167969 C 250.75 175.695312 252.761719 176.097656 254.789062 176.289062 C 256.820312 176.480469 258.878906 176.457031 260.949219 176.097656 C 261.148438 176.058594 261.367188 176.03125 261.570312 175.988281 C 263.066406 175.6875 264.566406 175.191406 265.9375 174.484375 C 267.300781 173.757812 268.5625 172.816406 269.578125 171.609375 C 270.738281 170.226562 271.484375 168.578125 271.839844 166.859375 C 272.199219 165.140625 272.191406 163.316406 271.839844 161.578125 C 271.480469 159.777344 270.757812 158.039062 269.71875 156.527344 C 268.195312 154.320312 266.117188 152.613281 263.789062 151.375 C 261.460938 150.136719 258.863281 149.355469 256.253906 149.027344 C 254.917969 148.863281 253.605469 148.960938 252.324219 149.21875 C 250.355469 149.613281 248.457031 150.371094 246.59375 151.148438 C 244.726562 151.914062 242.90625 152.683594 241.125 153.132812 C 240.695312 153.234375 240.253906 153.335938 239.808594 153.425781 C 238.742188 153.640625 237.597656 153.824219 236.4375 154.015625 C 235.265625 154.207031 234.058594 154.386719 232.878906 154.625 C 230.808594 155.042969 228.765625 155.601562 226.980469 156.542969 C 226.089844 157.023438 225.261719 157.59375 224.535156 158.292969 C 223.804688 158.992188 223.199219 159.835938 222.71875 160.8125 C 222.058594 162.203125 221.660156 163.585938 221.503906 164.964844 C 221.34375 166.328125 221.425781 167.6875 221.6875 168.996094 C 221.691406 169.011719 221.695312 169.039062 221.699219 169.054688 C 219.871094 169.273438 218.039062 169.535156 216.210938 169.816406 C 215.757812 169.875 215.3125 169.964844 214.867188 170.054688 C 211.527344 170.726562 208.480469 172.011719 205.503906 173.359375 C 202.511719 174.707031 199.597656 176.132812 196.546875 177.121094 C 194.621094 177.746094 192.695312 178.285156 190.753906 178.675781 C 189.054688 179.015625 187.351562 179.238281 185.613281 179.304688 C 181.882812 179.441406 178.328125 178.71875 175.316406 177.140625 C 173.808594 176.347656 172.421875 175.328125 171.214844 174.085938 C 170.007812 172.847656 168.980469 171.378906 168.152344 169.660156 C 167.488281 168.28125 167.035156 166.847656 166.738281 165.378906 C 166.171875 162.546875 166.234375 159.585938 166.753906 156.667969 C 167.273438 153.75 168.238281 150.875 169.453125 148.207031 C 169.652344 147.777344 169.859375 147.316406 170.0625 146.855469 C 170.078125 146.855469 170.082031 146.867188 170.097656 146.867188 C 171.085938 147.324219 172.136719 147.5625 173.230469 147.640625 C 174.324219 147.722656 175.441406 147.617188 176.546875 147.394531 C 178.761719 146.949219 180.964844 145.996094 182.863281 144.792969 C 183.820312 144.179688 184.691406 143.527344 185.460938 142.820312 C 186.230469 142.109375 186.886719 141.363281 187.410156 140.617188 C 187.976562 139.785156 188.375 138.863281 188.59375 137.9375 C 188.8125 137.011719 188.84375 136.0625 188.664062 135.15625 C 188.5625 134.652344 188.390625 134.164062 188.148438 133.71875 C 187.773438 133.042969 187.238281 132.449219 186.523438 132.023438 C 185.808594 131.597656 184.949219 131.339844 183.933594 131.289062 C 183.101562 131.230469 182.304688 131.300781 181.542969 131.453125 C 180.636719 131.636719 179.785156 131.941406 178.988281 132.355469 C 177.59375 133.085938 176.347656 134.113281 175.230469 135.328125 C 173.558594 137.144531 172.175781 139.339844 171.011719 141.519531 C 170.4375 142.605469 169.902344 143.671875 169.421875 144.695312 C 169.367188 144.648438 169.3125 144.597656 169.257812 144.550781 C 168.800781 144.148438 168.433594 143.667969 168.160156 143.125 C 167.886719 142.582031 167.675781 141.980469 167.550781 141.347656 C 167.285156 140.039062 167.316406 138.550781 167.488281 137.167969 C 168.050781 132.820312 169.730469 128.53125 172.230469 124.8125 C 174.730469 121.089844 178.058594 117.921875 181.914062 115.800781 C 183.636719 114.839844 185.421875 114.195312 187.234375 113.832031 C 189.105469 113.457031 191.019531 113.371094 192.953125 113.550781 C 194.875 113.734375 196.824219 114.179688 198.765625 114.835938 C 200.824219 115.546875 202.816406 116.445312 204.804688 117.410156 C 206.792969 118.371094 208.765625 119.394531 210.785156 120.367188 C 213.863281 121.828125 217.117188 123.121094 220.429688 124.113281 C 219.214844 126.992188 218.382812 130.078125 217.953125 133.230469 C 216.742188 133.386719 215.539062 133.582031 214.347656 133.824219 C 209.785156 134.738281 205.355469 136.304688 201.277344 138.484375 C 197.195312 140.667969 193.453125 143.488281 190.308594 146.917969 C 189.253906 148.058594 188.25 149.320312 187.453125 150.722656 C 187.054688 151.417969 186.722656 152.144531 186.457031 152.914062 C 186.191406 153.671875 186.023438 154.46875 185.949219 155.292969 C 185.867188 156.160156 185.933594 157 186.097656 157.820312 C 186.320312 158.929688 186.742188 159.980469 187.308594 160.945312 C 188.167969 162.386719 189.367188 163.660156 190.761719 164.648438 C 192.160156 165.640625 193.753906 166.351562 195.441406 166.703125 C 197.496094 167.113281 199.582031 167.050781 201.59375 166.648438 C 204.714844 166.019531 207.671875 164.570312 210.257812 162.765625 C 211.921875 161.59375 213.488281 160.230469 214.835938 158.65625 C 216.183594 157.097656 217.292969 155.335938 218.027344 153.390625 C 218.578125 151.902344 218.90625 150.402344 219.082031 148.898438 C 219.34375 146.632812 219.292969 144.367188 219.21875 142.121094 C 219.140625 139.878906 219.054688 137.664062 219.226562 135.535156 C 219.253906 135.230469 219.28125 134.925781 219.308594 134.605469 C 224.015625 134.136719 228.574219 134.402344 233.058594 135.195312 C 239.949219 136.414062 246.621094 138.855469 253.210938 141.707031 C 259.800781 144.558594 266.289062 147.804688 272.808594 150.609375 C 275.054688 151.578125 277.523438 152.472656 280.042969 153.015625 C 281.308594 153.285156 282.585938 153.460938 283.882812 153.515625 C 285.167969 153.570312 286.449219 153.476562 287.730469 153.21875 C 289.226562 152.917969 290.703125 152.367188 292.089844 151.535156 C 293.253906 150.835938 294.191406 149.929688 294.945312 148.910156 C 296.058594 147.371094 296.730469 145.574219 297.074219 143.707031 C 297.414062 141.84375 297.453125 139.9375 297.269531 138.132812 C 297.144531 136.914062 296.972656 135.691406 296.730469 134.5 C 295.734375 129.835938 293.910156 125.382812 291.351562 121.4375 Z M 140.84375 147.417969 C 141.855469 146.273438 143.183594 145.289062 144.886719 144.527344 C 145.453125 144.277344 146.054688 144.082031 146.675781 143.957031 C 147.636719 143.761719 148.632812 143.726562 149.578125 143.882812 C 150.519531 144.035156 151.414062 144.382812 152.179688 144.914062 C 152.808594 145.359375 153.355469 145.9375 153.773438 146.601562 C 154.207031 147.261719 154.507812 148.007812 154.65625 148.757812 C 154.8125 149.519531 154.816406 150.28125 154.628906 150.992188 C 154.460938 151.714844 154.113281 152.382812 153.558594 152.972656 C 153.179688 153.378906 152.738281 153.722656 152.25 153.972656 C 151.761719 154.234375 151.214844 154.417969 150.640625 154.535156 C 149.476562 154.769531 148.175781 154.699219 146.972656 154.375 C 145.769531 154.046875 144.664062 153.460938 143.855469 152.710938 C 142.398438 151.355469 141.191406 149.804688 140.238281 148.125 C 140.433594 147.90625 140.625 147.671875 140.84375 147.417969 Z M 155.480469 109.605469 C 155.539062 109.59375 155.582031 109.585938 155.640625 109.574219 C 157.035156 109.292969 158.546875 109.304688 159.90625 109.660156 C 160.585938 109.835938 161.238281 110.09375 161.8125 110.429688 C 162.390625 110.777344 162.910156 111.195312 163.339844 111.707031 C 163.847656 112.292969 164.207031 113.042969 164.359375 113.792969 C 164.429688 114.152344 164.460938 114.519531 164.425781 114.871094 C 164.390625 115.222656 164.292969 115.558594 164.144531 115.855469 C 163.933594 116.289062 163.601562 116.652344 163.203125 116.972656 C 162.800781 117.277344 162.3125 117.527344 161.804688 117.6875 C 161.609375 117.757812 161.421875 117.796875 161.222656 117.835938 C 160.34375 118.011719 159.410156 117.976562 158.535156 117.730469 C 157.664062 117.488281 156.84375 117.054688 156.179688 116.441406 C 155.613281 115.925781 155.191406 115.382812 154.867188 114.816406 C 154.542969 114.253906 154.339844 113.683594 154.21875 113.078125 C 154.078125 112.386719 154.054688 111.675781 154.144531 110.921875 C 154.179688 110.585938 154.246094 110.242188 154.324219 109.882812 C 154.695312 109.792969 155.078125 109.6875 155.480469 109.605469 Z M 196.5 88.832031 C 197.652344 89.199219 198.765625 89.753906 199.707031 90.492188 C 200.171875 90.863281 200.597656 91.273438 200.957031 91.722656 C 201.316406 92.175781 201.609375 92.65625 201.835938 93.191406 C 201.976562 93.523438 202.078125 93.878906 202.152344 94.238281 C 202.367188 95.316406 202.273438 96.488281 201.890625 97.550781 C 201.519531 98.613281 200.859375 99.570312 199.992188 100.238281 C 199.277344 100.785156 198.441406 101.164062 197.535156 101.347656 C 196.699219 101.511719 195.816406 101.511719 194.992188 101.347656 C 194.152344 101.1875 193.363281 100.851562 192.683594 100.359375 C 191.910156 99.796875 191.347656 99.222656 190.949219 98.660156 C 190.550781 98.097656 190.316406 97.527344 190.203125 96.953125 C 190.105469 96.480469 190.097656 96 190.152344 95.511719 C 190.261719 94.652344 190.605469 93.757812 191.132812 92.875 C 191.914062 91.550781 193.085938 90.238281 194.382812 89.09375 C 194.636719 88.878906 194.894531 88.660156 195.136719 88.449219 C 195.609375 88.5625 196.050781 88.683594 196.5 88.832031 Z M 239.402344 90.445312 C 240.199219 91.585938 240.75 92.761719 240.988281 93.957031 C 241.179688 94.90625 241.179688 95.863281 240.957031 96.851562 C 240.722656 97.839844 240.269531 98.859375 239.511719 99.925781 C 239.019531 100.605469 238.398438 101.164062 237.707031 101.589844 C 237.011719 102.011719 236.25 102.316406 235.472656 102.472656 C 234.769531 102.613281 234.054688 102.636719 233.378906 102.550781 C 232.871094 102.488281 232.382812 102.359375 231.925781 102.167969 C 231.242188 101.886719 230.648438 101.46875 230.175781 100.902344 C 229.703125 100.339844 229.351562 99.632812 229.171875 98.742188 C 229.109375 98.425781 229.066406 98.074219 229.050781 97.703125 C 229.015625 96.617188 229.273438 95.53125 229.761719 94.535156 C 230.25 93.539062 230.964844 92.632812 231.824219 91.90625 C 233.257812 90.707031 234.824219 89.71875 236.484375 88.964844 C 236.894531 88.777344 237.308594 88.605469 237.738281 88.429688 C 238.367188 89.09375 238.933594 89.757812 239.402344 90.445312 Z M 277.664062 113.414062 C 277.765625 114.53125 277.671875 115.703125 277.410156 116.847656 C 277.003906 118.5625 276.179688 120.191406 275.070312 121.449219 C 274.527344 122.082031 273.902344 122.625 273.222656 123.046875 C 272.546875 123.46875 271.8125 123.765625 271.035156 123.921875 C 270.460938 124.039062 269.851562 124.070312 269.226562 124.015625 C 268.601562 123.960938 267.929688 123.8125 267.25 123.558594 C 266.164062 123.148438 265.269531 122.492188 264.578125 121.65625 C 263.886719 120.824219 263.417969 119.828125 263.203125 118.761719 C 262.988281 117.699219 263.03125 116.566406 263.363281 115.46875 C 263.617188 114.636719 263.949219 113.914062 264.347656 113.292969 C 264.941406 112.367188 265.652344 111.667969 266.488281 111.140625 C 267.3125 110.617188 268.242188 110.265625 269.265625 110.058594 C 270.171875 109.878906 271.148438 109.816406 272.144531 109.871094 C 273.640625 109.945312 275.191406 110.277344 276.652344 110.773438 C 276.894531 110.859375 277.121094 110.949219 277.347656 111.039062 C 277.476562 111.820312 277.574219 112.609375 277.664062 113.414062 Z M 223.121094 168.695312 C 222.886719 167.527344 222.828125 166.328125 222.960938 165.136719 C 223.105469 163.921875 223.445312 162.703125 224.046875 161.460938 C 224.433594 160.632812 224.957031 159.945312 225.554688 159.359375 C 226.46875 158.472656 227.609375 157.808594 228.894531 157.28125 C 230.195312 156.75 231.648438 156.382812 233.144531 156.082031 C 234.292969 155.851562 235.480469 155.660156 236.640625 155.46875 C 237.816406 155.277344 238.976562 155.105469 240.070312 154.886719 C 240.546875 154.789062 241.003906 154.683594 241.460938 154.574219 C 243.398438 154.097656 245.273438 153.285156 247.125 152.523438 C 248.976562 151.761719 250.792969 151.039062 252.574219 150.679688 C 253.738281 150.445312 254.875 150.367188 256.027344 150.507812 C 258.472656 150.828125 260.890625 151.550781 263.039062 152.707031 C 265.1875 153.859375 267.070312 155.414062 268.441406 157.398438 C 269.367188 158.722656 270.011719 160.285156 270.335938 161.894531 C 270.644531 163.449219 270.65625 165.0625 270.347656 166.578125 C 270.039062 168.089844 269.390625 169.492188 268.402344 170.679688 C 267.535156 171.722656 266.441406 172.539062 265.210938 173.191406 C 263.992188 173.824219 262.632812 174.277344 261.25 174.554688 C 261.066406 174.59375 260.863281 174.632812 260.671875 174.65625 C 258.75 174.984375 256.839844 175.011719 254.902344 174.832031 C 252.019531 174.558594 249.117188 173.824219 246.210938 172.910156 C 243.300781 172 240.402344 170.90625 237.503906 169.960938 C 234.011719 168.808594 230.453125 168.523438 226.882812 168.640625 C 225.636719 168.683594 224.382812 168.785156 223.132812 168.902344 C 223.144531 168.808594 223.132812 168.75 223.121094 168.695312 Z M 171.496094 143.710938 C 172.691406 141.316406 174.132812 138.808594 175.839844 136.804688 C 176.703125 135.808594 177.621094 134.9375 178.609375 134.273438 C 179.59375 133.597656 180.652344 133.128906 181.777344 132.902344 C 182.410156 132.777344 183.074219 132.734375 183.769531 132.773438 C 184.300781 132.800781 184.769531 132.902344 185.140625 133.050781 C 185.726562 133.277344 186.148438 133.597656 186.46875 133.996094 C 186.789062 134.394531 187.007812 134.890625 187.117188 135.4375 C 187.25 136.082031 187.234375 136.835938 187.054688 137.574219 C 186.875 138.328125 186.550781 139.082031 186.101562 139.757812 C 185.660156 140.398438 185.089844 141.050781 184.382812 141.703125 C 183.332031 142.664062 182.035156 143.566406 180.628906 144.3125 C 179.21875 145.046875 177.6875 145.625 176.191406 145.925781 C 174.855469 146.191406 173.535156 146.25 172.355469 146.039062 C 171.765625 145.929688 171.191406 145.761719 170.660156 145.507812 C 170.648438 145.511719 170.644531 145.5 170.625 145.488281 C 170.914062 144.90625 171.199219 144.308594 171.496094 143.710938 Z M 224.574219 119.496094 C 226.144531 117.1875 228.023438 115.136719 230.238281 113.417969 C 232.4375 111.703125 234.960938 110.34375 237.78125 109.417969 C 238.527344 109.175781 239.308594 108.960938 240.085938 108.804688 C 241.207031 108.578125 242.335938 108.457031 243.433594 108.488281 C 244.53125 108.523438 245.617188 108.707031 246.648438 109.070312 C 247.808594 109.480469 248.894531 110.203125 249.75 111.109375 C 250.171875 111.5625 250.542969 112.058594 250.828125 112.585938 C 251.113281 113.113281 251.3125 113.667969 251.429688 114.246094 C 251.507812 114.632812 251.542969 115.03125 251.535156 115.4375 C 251.503906 116.324219 251.265625 117.152344 250.867188 117.917969 C 250.5625 118.488281 250.164062 119.046875 249.699219 119.546875 C 249 120.316406 248.117188 120.988281 247.15625 121.570312 C 246.195312 122.152344 245.152344 122.628906 244.117188 122.988281 C 242.820312 123.445312 241.511719 123.796875 240.175781 124.066406 C 235.429688 125.019531 230.480469 124.816406 225.582031 123.839844 C 224.539062 123.632812 223.484375 123.378906 222.441406 123.109375 C 223.078125 121.875 223.789062 120.65625 224.574219 119.496094 Z M 217.664062 135.371094 C 217.433594 138.378906 217.679688 141.398438 217.71875 144.339844 C 217.726562 145.804688 217.707031 147.261719 217.539062 148.671875 C 217.375 150.082031 217.070312 151.472656 216.5625 152.816406 C 215.902344 154.582031 214.878906 156.195312 213.628906 157.644531 C 212.378906 159.089844 210.898438 160.375 209.316406 161.503906 C 206.878906 163.21875 204.082031 164.574219 201.21875 165.152344 C 199.363281 165.523438 197.488281 165.574219 195.664062 165.207031 C 193.730469 164.816406 191.851562 163.816406 190.378906 162.453125 C 189.644531 161.761719 189.007812 160.992188 188.511719 160.164062 C 188.019531 159.335938 187.65625 158.433594 187.472656 157.515625 C 187.332031 156.824219 187.296875 156.113281 187.347656 155.398438 C 187.402344 154.714844 187.566406 154.039062 187.777344 153.382812 C 188.121094 152.402344 188.632812 151.445312 189.242188 150.527344 C 189.847656 149.613281 190.574219 148.75 191.320312 147.925781 C 194.339844 144.625 197.9375 141.910156 201.898438 139.796875 C 205.84375 137.6875 210.148438 136.164062 214.566406 135.289062 C 215.601562 135.082031 216.644531 134.902344 217.691406 134.765625 C 217.703125 134.960938 217.683594 135.15625 217.664062 135.371094 Z M 217.664062 135.371094 " fill-opacity="1" fill-rule="nonzero"/></g></g></g><g fill="#526554" fill-opacity="1"><g transform="translate(117.566217, 288.343731)"><g><path d="M 8.921875 0.65625 C 7.390625 0.65625 6.039062 0.390625 4.875 -0.140625 C 3.71875 -0.679688 2.820312 -1.429688 2.1875 -2.390625 C 1.550781 -3.347656 1.234375 -4.457031 1.234375 -5.71875 C 1.234375 -6.789062 1.457031 -7.765625 1.90625 -8.640625 C 2.363281 -9.515625 2.972656 -10.207031 3.734375 -10.71875 C 4.492188 -11.226562 5.335938 -11.484375 6.265625 -11.484375 C 7.117188 -11.484375 7.835938 -11.269531 8.421875 -10.84375 C 9.003906 -10.414062 9.367188 -9.828125 9.515625 -9.078125 C 8.242188 -9.078125 7.234375 -8.738281 6.484375 -8.0625 C 5.734375 -7.394531 5.359375 -6.492188 5.359375 -5.359375 C 5.359375 -4.316406 5.671875 -3.476562 6.296875 -2.84375 C 6.929688 -2.207031 7.769531 -1.890625 8.8125 -1.890625 C 10.101562 -1.890625 11.164062 -2.320312 12 -3.1875 C 12.84375 -4.050781 13.265625 -5.140625 13.265625 -6.453125 C 13.265625 -7.585938 12.945312 -8.664062 12.3125 -9.6875 C 11.6875 -10.707031 10.738281 -11.945312 9.46875 -13.40625 C 8.15625 -14.914062 7.164062 -16.207031 6.5 -17.28125 C 5.832031 -18.363281 5.5 -19.550781 5.5 -20.84375 C 5.5 -22.101562 5.847656 -23.238281 6.546875 -24.25 C 7.253906 -25.257812 8.226562 -26.054688 9.46875 -26.640625 C 10.707031 -27.222656 12.109375 -27.515625 13.671875 -27.515625 C 15.628906 -27.515625 17.195312 -27.050781 18.375 -26.125 C 19.5625 -25.195312 20.15625 -23.957031 20.15625 -22.40625 C 20.15625 -21.382812 19.898438 -20.554688 19.390625 -19.921875 C 18.878906 -19.296875 18.207031 -18.984375 17.375 -18.984375 C 16.457031 -18.984375 15.71875 -19.359375 15.15625 -20.109375 C 15.613281 -20.453125 15.976562 -20.898438 16.25 -21.453125 C 16.519531 -22.015625 16.65625 -22.597656 16.65625 -23.203125 C 16.65625 -23.984375 16.421875 -24.601562 15.953125 -25.0625 C 15.492188 -25.53125 14.863281 -25.765625 14.0625 -25.765625 C 13.09375 -25.765625 12.296875 -25.414062 11.671875 -24.71875 C 11.054688 -24.03125 10.75 -23.148438 10.75 -22.078125 C 10.75 -21.109375 11.023438 -20.203125 11.578125 -19.359375 C 12.140625 -18.523438 13.015625 -17.453125 14.203125 -16.140625 C 15.179688 -15.097656 15.96875 -14.195312 16.5625 -13.4375 C 17.15625 -12.6875 17.664062 -11.816406 18.09375 -10.828125 C 18.519531 -9.847656 18.734375 -8.789062 18.734375 -7.65625 C 18.734375 -6.09375 18.300781 -4.679688 17.4375 -3.421875 C 16.570312 -2.160156 15.390625 -1.164062 13.890625 -0.4375 C 12.398438 0.289062 10.742188 0.65625 8.921875 0.65625 Z M 8.921875 0.65625 "/></g></g></g><g fill="#526554" fill-opacity="1"><g transform="translate(136.425913, 288.343731)"><g><path d="M 5.3125 0.140625 C 3.519531 0.140625 2.097656 -0.316406 1.046875 -1.234375 C 0.00390625 -2.160156 -0.515625 -3.617188 -0.515625 -5.609375 C -0.515625 -7.265625 -0.175781 -9.097656 0.5 -11.109375 C 1.1875 -13.128906 2.28125 -14.875 3.78125 -16.34375 C 5.289062 -17.8125 7.1875 -18.546875 9.46875 -18.546875 C 12.582031 -18.546875 14.140625 -16.601562 14.140625 -12.71875 L 14.140625 -12.6875 C 14.210938 -12.65625 14.34375 -12.640625 14.53125 -12.640625 C 15.332031 -12.640625 16.253906 -12.851562 17.296875 -13.28125 C 18.347656 -13.707031 19.300781 -14.222656 20.15625 -14.828125 L 20.484375 -13.84375 C 19.773438 -13.09375 18.851562 -12.457031 17.71875 -11.9375 C 16.59375 -11.414062 15.363281 -11.046875 14.03125 -10.828125 C 13.832031 -8.609375 13.332031 -6.671875 12.53125 -5.015625 C 11.726562 -3.367188 10.695312 -2.097656 9.4375 -1.203125 C 8.175781 -0.304688 6.800781 0.140625 5.3125 0.140625 Z M 6.78125 -3.140625 C 7.363281 -3.140625 7.945312 -3.472656 8.53125 -4.140625 C 9.113281 -4.804688 9.625 -5.710938 10.0625 -6.859375 C 10.5 -8.015625 10.8125 -9.300781 11 -10.71875 C 10.34375 -10.863281 10.015625 -11.375 10.015625 -12.25 C 10.015625 -13.238281 10.394531 -13.890625 11.15625 -14.203125 C 11.101562 -15.003906 10.976562 -15.554688 10.78125 -15.859375 C 10.59375 -16.171875 10.253906 -16.328125 9.765625 -16.328125 C 8.960938 -16.328125 8.179688 -15.742188 7.421875 -14.578125 C 6.671875 -13.410156 6.066406 -12.007812 5.609375 -10.375 C 5.148438 -8.75 4.921875 -7.316406 4.921875 -6.078125 C 4.921875 -4.921875 5.050781 -4.140625 5.3125 -3.734375 C 5.582031 -3.335938 6.070312 -3.140625 6.78125 -3.140625 Z M 6.78125 -3.140625 "/></g></g></g><g fill="#526554" fill-opacity="1"><g transform="translate(150.515613, 288.343731)"><g><path d="M 5.203125 0.21875 C 3.410156 0.21875 2.015625 -0.25 1.015625 -1.1875 C 0.0234375 -2.125 -0.46875 -3.585938 -0.46875 -5.578125 C -0.46875 -7.253906 -0.132812 -9.097656 0.53125 -11.109375 C 1.195312 -13.128906 2.265625 -14.875 3.734375 -16.34375 C 5.203125 -17.8125 7.066406 -18.546875 9.328125 -18.546875 C 10.785156 -18.546875 11.820312 -18.226562 12.4375 -17.59375 C 13.0625 -16.96875 13.375 -16.164062 13.375 -15.1875 C 13.375 -14.34375 13.191406 -13.6875 12.828125 -13.21875 C 12.460938 -12.757812 12 -12.53125 11.4375 -12.53125 C 11.03125 -12.53125 10.609375 -12.675781 10.171875 -12.96875 C 10.460938 -13.769531 10.609375 -14.488281 10.609375 -15.125 C 10.609375 -15.582031 10.519531 -15.941406 10.34375 -16.203125 C 10.175781 -16.472656 9.921875 -16.609375 9.578125 -16.609375 C 8.847656 -16.609375 8.117188 -16.015625 7.390625 -14.828125 C 6.660156 -13.640625 6.066406 -12.191406 5.609375 -10.484375 C 5.148438 -8.785156 4.921875 -7.257812 4.921875 -5.90625 C 4.921875 -4.71875 5.125 -3.910156 5.53125 -3.484375 C 5.945312 -3.054688 6.617188 -2.84375 7.546875 -2.84375 C 8.859375 -2.84375 9.976562 -3.144531 10.90625 -3.75 C 11.84375 -4.351562 12.867188 -5.273438 13.984375 -6.515625 L 15.234375 -6.515625 C 12.535156 -2.023438 9.191406 0.21875 5.203125 0.21875 Z M 5.203125 0.21875 "/></g></g></g><g fill="#526554" fill-opacity="1"><g transform="translate(162.602646, 288.343731)"><g><path d="M 6.078125 -20.1875 C 5.273438 -20.1875 4.59375 -20.460938 4.03125 -21.015625 C 3.476562 -21.578125 3.203125 -22.257812 3.203125 -23.0625 C 3.203125 -23.863281 3.476562 -24.550781 4.03125 -25.125 C 4.59375 -25.695312 5.273438 -25.984375 6.078125 -25.984375 C 6.878906 -25.984375 7.566406 -25.695312 8.140625 -25.125 C 8.710938 -24.550781 9 -23.863281 9 -23.0625 C 9 -22.257812 8.710938 -21.578125 8.140625 -21.015625 C 7.566406 -20.460938 6.878906 -20.1875 6.078125 -20.1875 Z M 3.609375 0.21875 C 2.441406 0.21875 1.5 -0.144531 0.78125 -0.875 C 0.0625 -1.601562 -0.296875 -2.695312 -0.296875 -4.15625 C -0.296875 -4.757812 -0.195312 -5.546875 0 -6.515625 L 2.484375 -18.21875 L 7.71875 -18.21875 L 5.09375 -5.828125 C 5 -5.460938 4.953125 -5.070312 4.953125 -4.65625 C 4.953125 -4.175781 5.066406 -3.832031 5.296875 -3.625 C 5.523438 -3.414062 5.910156 -3.3125 6.453125 -3.3125 C 7.148438 -3.3125 7.800781 -3.609375 8.40625 -4.203125 C 9.019531 -4.796875 9.460938 -5.566406 9.734375 -6.515625 L 11.265625 -6.515625 C 10.359375 -3.898438 9.203125 -2.125 7.796875 -1.1875 C 6.390625 -0.25 4.992188 0.21875 3.609375 0.21875 Z M 3.609375 0.21875 "/></g></g></g><g fill="#526554" fill-opacity="1"><g transform="translate(170.429448, 288.343731)"><g><path d="M 4.375 0.21875 C 2.988281 0.21875 1.832031 -0.253906 0.90625 -1.203125 C -0.0078125 -2.148438 -0.46875 -3.628906 -0.46875 -5.640625 C -0.46875 -7.441406 -0.113281 -9.332031 0.59375 -11.3125 C 1.3125 -13.289062 2.378906 -14.96875 3.796875 -16.34375 C 5.222656 -17.71875 6.921875 -18.40625 8.890625 -18.40625 C 9.890625 -18.40625 10.628906 -18.234375 11.109375 -17.890625 C 11.597656 -17.546875 11.84375 -17.097656 11.84375 -16.546875 L 11.84375 -16.28125 L 12.25 -18.21875 L 17.484375 -18.21875 L 14.859375 -5.828125 C 14.765625 -5.460938 14.71875 -5.070312 14.71875 -4.65625 C 14.71875 -3.613281 15.21875 -3.09375 16.21875 -3.09375 C 16.894531 -3.09375 17.484375 -3.40625 17.984375 -4.03125 C 18.484375 -4.664062 18.878906 -5.492188 19.171875 -6.515625 L 20.703125 -6.515625 C 19.796875 -3.898438 18.679688 -2.125 17.359375 -1.1875 C 16.035156 -0.25 14.707031 0.21875 13.375 0.21875 C 12.351562 0.21875 11.53125 -0.0664062 10.90625 -0.640625 C 10.289062 -1.210938 9.921875 -2.046875 9.796875 -3.140625 C 9.097656 -2.140625 8.316406 -1.328125 7.453125 -0.703125 C 6.585938 -0.0859375 5.5625 0.21875 4.375 0.21875 Z M 6.734375 -3.3125 C 7.347656 -3.3125 7.953125 -3.597656 8.546875 -4.171875 C 9.140625 -4.742188 9.546875 -5.523438 9.765625 -6.515625 L 11.515625 -14.75 C 11.515625 -15.070312 11.390625 -15.382812 11.140625 -15.6875 C 10.898438 -15.988281 10.523438 -16.140625 10.015625 -16.140625 C 9.046875 -16.140625 8.171875 -15.570312 7.390625 -14.4375 C 6.617188 -13.3125 6.015625 -11.953125 5.578125 -10.359375 C 5.140625 -8.773438 4.921875 -7.375 4.921875 -6.15625 C 4.921875 -4.945312 5.09375 -4.171875 5.4375 -3.828125 C 5.789062 -3.484375 6.222656 -3.3125 6.734375 -3.3125 Z M 6.734375 -3.3125 "/></g></g></g><g fill="#526554" fill-opacity="1"><g transform="translate(187.687005, 288.343731)"><g><path d="M 3.609375 0.21875 C 2.441406 0.21875 1.5 -0.144531 0.78125 -0.875 C 0.0625 -1.601562 -0.296875 -2.695312 -0.296875 -4.15625 C -0.296875 -4.757812 -0.195312 -5.546875 0 -6.515625 L 3.90625 -24.78125 L 9.296875 -25.5 L 5.09375 -5.828125 C 5 -5.460938 4.953125 -5.070312 4.953125 -4.65625 C 4.953125 -4.175781 5.066406 -3.832031 5.296875 -3.625 C 5.523438 -3.414062 5.910156 -3.3125 6.453125 -3.3125 C 7.148438 -3.3125 7.800781 -3.609375 8.40625 -4.203125 C 9.019531 -4.796875 9.460938 -5.566406 9.734375 -6.515625 L 11.265625 -6.515625 C 10.359375 -3.898438 9.203125 -2.125 7.796875 -1.1875 C 6.390625 -0.25 4.992188 0.21875 3.609375 0.21875 Z M 3.609375 0.21875 "/></g></g></g><g fill="#526554" fill-opacity="1"><g transform="translate(195.513807, 288.343731)"><g/></g></g><g fill="#526554" fill-opacity="1"><g transform="translate(201.519993, 288.343731)"><g><path d="M 11.703125 -25.03125 C 9.847656 -24.425781 8.414062 -23.425781 7.40625 -22.03125 C 6.40625 -20.632812 5.90625 -18.898438 5.90625 -16.828125 C 5.90625 -15.910156 5.988281 -15.28125 6.15625 -14.9375 C 6.320312 -14.59375 6.40625 -14.382812 6.40625 -14.3125 C 3.8125 -14.3125 2.515625 -15.421875 2.515625 -17.640625 C 2.515625 -19.140625 3.085938 -20.648438 4.234375 -22.171875 C 5.390625 -23.691406 6.875 -24.929688 8.6875 -25.890625 C 10.5 -26.847656 12.300781 -27.328125 14.09375 -27.328125 C 15 -27.328125 15.925781 -27.15625 16.875 -26.8125 L 16.03125 -7.609375 L 24.046875 -26.8125 L 29.296875 -26.8125 L 25.46875 0 L 20.21875 0 L 22.5625 -16.359375 L 15.703125 0 L 10.71875 0 L 11.4375 -16.4375 L 5.359375 0 L 2.4375 0 Z M 11.703125 -25.03125 "/></g></g></g><g fill="#526554" fill-opacity="1"><g transform="translate(228.281114, 288.343731)"><g><path d="M 5.203125 0.21875 C 3.410156 0.21875 2.015625 -0.25 1.015625 -1.1875 C 0.0234375 -2.125 -0.46875 -3.585938 -0.46875 -5.578125 C -0.46875 -7.253906 -0.140625 -9.097656 0.515625 -11.109375 C 1.171875 -13.128906 2.238281 -14.875 3.71875 -16.34375 C 5.195312 -17.8125 7.078125 -18.546875 9.359375 -18.546875 C 12.035156 -18.546875 13.375 -17.378906 13.375 -15.046875 C 13.375 -13.691406 12.984375 -12.441406 12.203125 -11.296875 C 11.429688 -10.148438 10.398438 -9.226562 9.109375 -8.53125 C 7.816406 -7.84375 6.441406 -7.453125 4.984375 -7.359375 C 4.941406 -6.628906 4.921875 -6.144531 4.921875 -5.90625 C 4.921875 -4.71875 5.125 -3.910156 5.53125 -3.484375 C 5.945312 -3.054688 6.617188 -2.84375 7.546875 -2.84375 C 8.859375 -2.84375 9.976562 -3.144531 10.90625 -3.75 C 11.84375 -4.351562 12.867188 -5.273438 13.984375 -6.515625 L 15.234375 -6.515625 C 12.535156 -2.023438 9.191406 0.21875 5.203125 0.21875 Z M 5.28125 -9.109375 C 6.175781 -9.160156 7.03125 -9.476562 7.84375 -10.0625 C 8.664062 -10.644531 9.320312 -11.382812 9.8125 -12.28125 C 10.3125 -13.175781 10.5625 -14.125 10.5625 -15.125 C 10.5625 -16.113281 10.257812 -16.609375 9.65625 -16.609375 C 8.78125 -16.609375 7.921875 -15.84375 7.078125 -14.3125 C 6.242188 -12.789062 5.644531 -11.054688 5.28125 -9.109375 Z M 5.28125 -9.109375 "/></g></g></g><g fill="#526554" fill-opacity="1"><g transform="translate(240.368144, 288.343731)"><g><path d="M 4.375 0.21875 C 2.988281 0.21875 1.832031 -0.253906 0.90625 -1.203125 C -0.0078125 -2.148438 -0.46875 -3.628906 -0.46875 -5.640625 C -0.46875 -7.441406 -0.113281 -9.332031 0.59375 -11.3125 C 1.3125 -13.289062 2.378906 -14.96875 3.796875 -16.34375 C 5.222656 -17.71875 6.921875 -18.40625 8.890625 -18.40625 C 9.890625 -18.40625 10.628906 -18.234375 11.109375 -17.890625 C 11.597656 -17.546875 11.84375 -17.097656 11.84375 -16.546875 L 11.84375 -16.390625 L 13.625 -24.78125 L 19.015625 -25.5 L 14.828125 -5.828125 C 14.734375 -5.460938 14.6875 -5.070312 14.6875 -4.65625 C 14.6875 -4.175781 14.800781 -3.832031 15.03125 -3.625 C 15.257812 -3.414062 15.640625 -3.3125 16.171875 -3.3125 C 16.859375 -3.3125 17.445312 -3.601562 17.9375 -4.1875 C 18.4375 -4.769531 18.832031 -5.546875 19.125 -6.515625 L 20.65625 -6.515625 C 19.175781 -2.171875 16.738281 0 13.34375 0 C 12.34375 0 11.53125 -0.265625 10.90625 -0.796875 C 10.289062 -1.335938 9.910156 -2.117188 9.765625 -3.140625 C 9.128906 -2.160156 8.367188 -1.351562 7.484375 -0.71875 C 6.597656 -0.09375 5.5625 0.21875 4.375 0.21875 Z M 6.734375 -3.3125 C 7.316406 -3.3125 7.90625 -3.578125 8.5 -4.109375 C 9.101562 -4.648438 9.515625 -5.394531 9.734375 -6.34375 L 9.734375 -6.515625 L 11.515625 -14.859375 C 11.296875 -15.710938 10.796875 -16.140625 10.015625 -16.140625 C 9.046875 -16.140625 8.171875 -15.570312 7.390625 -14.4375 C 6.617188 -13.3125 6.015625 -11.953125 5.578125 -10.359375 C 5.140625 -8.773438 4.921875 -7.375 4.921875 -6.15625 C 4.921875 -4.945312 5.09375 -4.171875 5.4375 -3.828125 C 5.789062 -3.484375 6.222656 -3.3125 6.734375 -3.3125 Z M 6.734375 -3.3125 "/></g></g></g><g fill="#526554" fill-opacity="1"><g transform="translate(257.589309, 288.343731)"><g><path d="M 6.078125 -20.1875 C 5.273438 -20.1875 4.59375 -20.460938 4.03125 -21.015625 C 3.476562 -21.578125 3.203125 -22.257812 3.203125 -23.0625 C 3.203125 -23.863281 3.476562 -24.550781 4.03125 -25.125 C 4.59375 -25.695312 5.273438 -25.984375 6.078125 -25.984375 C 6.878906 -25.984375 7.566406 -25.695312 8.140625 -25.125 C 8.710938 -24.550781 9 -23.863281 9 -23.0625 C 9 -22.257812 8.710938 -21.578125 8.140625 -21.015625 C 7.566406 -20.460938 6.878906 -20.1875 6.078125 -20.1875 Z M 3.609375 0.21875 C 2.441406 0.21875 1.5 -0.144531 0.78125 -0.875 C 0.0625 -1.601562 -0.296875 -2.695312 -0.296875 -4.15625 C -0.296875 -4.757812 -0.195312 -5.546875 0 -6.515625 L 2.484375 -18.21875 L 7.71875 -18.21875 L 5.09375 -5.828125 C 5 -5.460938 4.953125 -5.070312 4.953125 -4.65625 C 4.953125 -4.175781 5.066406 -3.832031 5.296875 -3.625 C 5.523438 -3.414062 5.910156 -3.3125 6.453125 -3.3125 C 7.148438 -3.3125 7.800781 -3.609375 8.40625 -4.203125 C 9.019531 -4.796875 9.460938 -5.566406 9.734375 -6.515625 L 11.265625 -6.515625 C 10.359375 -3.898438 9.203125 -2.125 7.796875 -1.1875 C 6.390625 -0.25 4.992188 0.21875 3.609375 0.21875 Z M 3.609375 0.21875 "/></g></g></g><g fill="#526554" fill-opacity="1"><g transform="translate(265.416106, 288.343731)"><g><path d="M 4.375 0.21875 C 2.988281 0.21875 1.832031 -0.253906 0.90625 -1.203125 C -0.0078125 -2.148438 -0.46875 -3.628906 -0.46875 -5.640625 C -0.46875 -7.441406 -0.113281 -9.332031 0.59375 -11.3125 C 1.3125 -13.289062 2.378906 -14.96875 3.796875 -16.34375 C 5.222656 -17.71875 6.921875 -18.40625 8.890625 -18.40625 C 9.890625 -18.40625 10.628906 -18.234375 11.109375 -17.890625 C 11.597656 -17.546875 11.84375 -17.097656 11.84375 -16.546875 L 11.84375 -16.28125 L 12.25 -18.21875 L 17.484375 -18.21875 L 14.859375 -5.828125 C 14.765625 -5.460938 14.71875 -5.070312 14.71875 -4.65625 C 14.71875 -3.613281 15.21875 -3.09375 16.21875 -3.09375 C 16.894531 -3.09375 17.484375 -3.40625 17.984375 -4.03125 C 18.484375 -4.664062 18.878906 -5.492188 19.171875 -6.515625 L 20.703125 -6.515625 C 19.796875 -3.898438 18.679688 -2.125 17.359375 -1.1875 C 16.035156 -0.25 14.707031 0.21875 13.375 0.21875 C 12.351562 0.21875 11.53125 -0.0664062 10.90625 -0.640625 C 10.289062 -1.210938 9.921875 -2.046875 9.796875 -3.140625 C 9.097656 -2.140625 8.316406 -1.328125 7.453125 -0.703125 C 6.585938 -0.0859375 5.5625 0.21875 4.375 0.21875 Z M 6.734375 -3.3125 C 7.347656 -3.3125 7.953125 -3.597656 8.546875 -4.171875 C 9.140625 -4.742188 9.546875 -5.523438 9.765625 -6.515625 L 11.515625 -14.75 C 11.515625 -15.070312 11.390625 -15.382812 11.140625 -15.6875 C 10.898438 -15.988281 10.523438 -16.140625 10.015625 -16.140625 C 9.046875 -16.140625 8.171875 -15.570312 7.390625 -14.4375 C 6.617188 -13.3125 6.015625 -11.953125 5.578125 -10.359375 C 5.140625 -8.773438 4.921875 -7.375 4.921875 -6.15625 C 4.921875 -4.945312 5.09375 -4.171875 5.4375 -3.828125 C 5.789062 -3.484375 6.222656 -3.3125 6.734375 -3.3125 Z M 6.734375 -3.3125 "/></g></g></g><g fill="#526554" fill-opacity="1"><g transform="translate(282.673668, 288.343731)"><g/></g></g><g fill="#526554" fill-opacity="1"><g transform="translate(288.679859, 288.343731)"><g><path d="M 12.9375 0.25 C 10.53125 0.25 8.710938 -0.335938 7.484375 -1.515625 C 6.253906 -2.691406 5.640625 -4.429688 5.640625 -6.734375 C 5.640625 -7.878906 5.8125 -9.15625 6.15625 -10.5625 L 9.875 -25.359375 C 7.78125 -24.796875 6.148438 -23.804688 4.984375 -22.390625 C 3.828125 -20.972656 3.25 -19.410156 3.25 -17.703125 C 3.25 -16.515625 3.5625 -15.363281 4.1875 -14.25 C 2.800781 -14.25 1.722656 -14.585938 0.953125 -15.265625 C 0.191406 -15.941406 -0.1875 -16.898438 -0.1875 -18.140625 C -0.1875 -19.722656 0.445312 -21.234375 1.71875 -22.671875 C 3 -24.117188 4.695312 -25.28125 6.8125 -26.15625 C 8.925781 -27.03125 11.160156 -27.46875 13.515625 -27.46875 C 14.335938 -27.46875 15.019531 -27.410156 15.5625 -27.296875 L 11.109375 -10.453125 C 10.703125 -8.921875 10.5 -7.609375 10.5 -6.515625 C 10.5 -4.210938 11.445312 -3.0625 13.34375 -3.0625 C 16.0625 -3.0625 17.941406 -5.5625 18.984375 -10.5625 L 22.625 -27.40625 L 27.765625 -27.40625 L 24.234375 -10.5625 C 23.453125 -6.988281 22.109375 -4.289062 20.203125 -2.46875 C 18.296875 -0.65625 15.875 0.25 12.9375 0.25 Z M 12.9375 0.25 "/></g></g></g><g fill="#526554" fill-opacity="1"><g transform="translate(312.855746, 288.343731)"><g><path d="M 4.15625 0.21875 C 2.988281 0.21875 2.003906 -0.00390625 1.203125 -0.453125 C 0.398438 -0.898438 -0.191406 -1.484375 -0.578125 -2.203125 C -0.972656 -2.921875 -1.171875 -3.671875 -1.171875 -4.453125 C -1.171875 -5.242188 -0.976562 -5.9375 -0.59375 -6.53125 C -0.21875 -7.132812 0.234375 -7.566406 0.765625 -7.828125 C 1.710938 -9.535156 2.535156 -11.253906 3.234375 -12.984375 C 3.941406 -14.722656 4.613281 -16.601562 5.25 -18.625 L 10.640625 -19.34375 C 10.765625 -16.238281 10.972656 -12.875 11.265625 -9.25 C 11.378906 -7.789062 11.4375 -6.734375 11.4375 -6.078125 C 11.4375 -5.523438 11.390625 -5.066406 11.296875 -4.703125 C 12.441406 -5.359375 13.316406 -5.960938 13.921875 -6.515625 L 15.453125 -6.515625 C 13.898438 -4.722656 12.039062 -3.207031 9.875 -1.96875 C 9.164062 -1.21875 8.296875 -0.664062 7.265625 -0.3125 C 6.234375 0.0390625 5.195312 0.21875 4.15625 0.21875 Z M 2.984375 -2.65625 C 3.890625 -2.65625 4.644531 -2.921875 5.25 -3.453125 C 5.851562 -3.992188 6.15625 -4.859375 6.15625 -6.046875 C 6.15625 -6.773438 6.082031 -7.796875 5.9375 -9.109375 C 5.695312 -11.878906 5.539062 -13.738281 5.46875 -14.6875 C 4.882812 -12.769531 3.898438 -10.472656 2.515625 -7.796875 C 3.078125 -7.503906 3.359375 -7.078125 3.359375 -6.515625 C 3.359375 -6.054688 3.203125 -5.644531 2.890625 -5.28125 C 2.585938 -4.914062 2.207031 -4.734375 1.75 -4.734375 C 1.238281 -4.734375 0.910156 -4.890625 0.765625 -5.203125 C 0.765625 -4.335938 0.941406 -3.695312 1.296875 -3.28125 C 1.648438 -2.863281 2.210938 -2.65625 2.984375 -2.65625 Z M 2.984375 -2.65625 "/></g></g></g><g fill="#526554" fill-opacity="1"><g transform="translate(324.869973, 288.343731)"><g><path d="M 4.375 0.21875 C 2.988281 0.21875 1.832031 -0.253906 0.90625 -1.203125 C -0.0078125 -2.148438 -0.46875 -3.628906 -0.46875 -5.640625 C -0.46875 -7.441406 -0.113281 -9.332031 0.59375 -11.3125 C 1.3125 -13.289062 2.378906 -14.96875 3.796875 -16.34375 C 5.222656 -17.71875 6.921875 -18.40625 8.890625 -18.40625 C 9.890625 -18.40625 10.628906 -18.234375 11.109375 -17.890625 C 11.597656 -17.546875 11.84375 -17.097656 11.84375 -16.546875 L 11.84375 -16.28125 L 12.25 -18.21875 L 17.484375 -18.21875 L 14.859375 -5.828125 C 14.765625 -5.460938 14.71875 -5.070312 14.71875 -4.65625 C 14.71875 -3.613281 15.21875 -3.09375 16.21875 -3.09375 C 16.894531 -3.09375 17.484375 -3.40625 17.984375 -4.03125 C 18.484375 -4.664062 18.878906 -5.492188 19.171875 -6.515625 L 20.703125 -6.515625 C 19.796875 -3.898438 18.679688 -2.125 17.359375 -1.1875 C 16.035156 -0.25 14.707031 0.21875 13.375 0.21875 C 12.351562 0.21875 11.53125 -0.0664062 10.90625 -0.640625 C 10.289062 -1.210938 9.921875 -2.046875 9.796875 -3.140625 C 9.097656 -2.140625 8.316406 -1.328125 7.453125 -0.703125 C 6.585938 -0.0859375 5.5625 0.21875 4.375 0.21875 Z M 6.734375 -3.3125 C 7.347656 -3.3125 7.953125 -3.597656 8.546875 -4.171875 C 9.140625 -4.742188 9.546875 -5.523438 9.765625 -6.515625 L 11.515625 -14.75 C 11.515625 -15.070312 11.390625 -15.382812 11.140625 -15.6875 C 10.898438 -15.988281 10.523438 -16.140625 10.015625 -16.140625 C 9.046875 -16.140625 8.171875 -15.570312 7.390625 -14.4375 C 6.617188 -13.3125 6.015625 -11.953125 5.578125 -10.359375 C 5.140625 -8.773438 4.921875 -7.375 4.921875 -6.15625 C 4.921875 -4.945312 5.09375 -4.171875 5.4375 -3.828125 C 5.789062 -3.484375 6.222656 -3.3125 6.734375 -3.3125 Z M 6.734375 -3.3125 "/></g></g></g><g fill="#526554" fill-opacity="1"><g transform="translate(342.127535, 288.343731)"><g><path d="M 6.453125 9.109375 C 5.285156 9.109375 4.3125 8.800781 3.53125 8.1875 C 2.757812 7.582031 2.375 6.710938 2.375 5.578125 C 2.375 4.191406 2.929688 3.078125 4.046875 2.234375 C 5.160156 1.398438 6.582031 0.703125 8.3125 0.140625 L 8.75 -1.78125 C 7.507812 -0.445312 6.050781 0.21875 4.375 0.21875 C 2.988281 0.21875 1.832031 -0.253906 0.90625 -1.203125 C -0.0078125 -2.148438 -0.46875 -3.628906 -0.46875 -5.640625 C -0.46875 -7.441406 -0.113281 -9.332031 0.59375 -11.3125 C 1.3125 -13.289062 2.378906 -14.96875 3.796875 -16.34375 C 5.222656 -17.71875 6.921875 -18.40625 8.890625 -18.40625 C 9.890625 -18.40625 10.628906 -18.234375 11.109375 -17.890625 C 11.597656 -17.546875 11.84375 -17.097656 11.84375 -16.546875 L 11.84375 -16.328125 L 12.25 -18.21875 L 17.484375 -18.21875 L 13.875 -1.3125 C 15.039062 -1.695312 15.976562 -2.28125 16.6875 -3.0625 C 17.394531 -3.84375 17.988281 -4.992188 18.46875 -6.515625 L 20 -6.515625 C 19.34375 -4.359375 18.457031 -2.773438 17.34375 -1.765625 C 16.226562 -0.753906 14.96875 -0.0664062 13.5625 0.296875 L 13.015625 2.921875 C 12.523438 5.273438 11.679688 6.894531 10.484375 7.78125 C 9.296875 8.664062 7.953125 9.109375 6.453125 9.109375 Z M 6.734375 -3.3125 C 7.296875 -3.3125 7.867188 -3.566406 8.453125 -4.078125 C 9.035156 -4.585938 9.4375 -5.28125 9.65625 -6.15625 L 11.515625 -14.796875 C 11.515625 -15.085938 11.390625 -15.382812 11.140625 -15.6875 C 10.898438 -15.988281 10.523438 -16.140625 10.015625 -16.140625 C 9.046875 -16.140625 8.171875 -15.570312 7.390625 -14.4375 C 6.617188 -13.3125 6.015625 -11.953125 5.578125 -10.359375 C 5.140625 -8.773438 4.921875 -7.375 4.921875 -6.15625 C 4.921875 -4.945312 5.09375 -4.171875 5.4375 -3.828125 C 5.789062 -3.484375 6.222656 -3.3125 6.734375 -3.3125 Z M 5.609375 6.265625 C 6.023438 6.265625 6.425781 5.984375 6.8125 5.421875 C 7.195312 4.867188 7.5 4.070312 7.71875 3.03125 L 7.9375 1.96875 C 5.5625 2.84375 4.375 3.875 4.375 5.0625 C 4.375 5.375 4.484375 5.648438 4.703125 5.890625 C 4.921875 6.140625 5.222656 6.265625 5.609375 6.265625 Z M 5.609375 6.265625 "/></g></g></g><g fill="#526554" fill-opacity="1"><g transform="translate(358.693283, 288.343731)"><g><path d="M 5.203125 0.21875 C 3.410156 0.21875 2.015625 -0.25 1.015625 -1.1875 C 0.0234375 -2.125 -0.46875 -3.585938 -0.46875 -5.578125 C -0.46875 -7.253906 -0.140625 -9.097656 0.515625 -11.109375 C 1.171875 -13.128906 2.238281 -14.875 3.71875 -16.34375 C 5.195312 -17.8125 7.078125 -18.546875 9.359375 -18.546875 C 12.035156 -18.546875 13.375 -17.378906 13.375 -15.046875 C 13.375 -13.691406 12.984375 -12.441406 12.203125 -11.296875 C 11.429688 -10.148438 10.398438 -9.226562 9.109375 -8.53125 C 7.816406 -7.84375 6.441406 -7.453125 4.984375 -7.359375 C 4.941406 -6.628906 4.921875 -6.144531 4.921875 -5.90625 C 4.921875 -4.71875 5.125 -3.910156 5.53125 -3.484375 C 5.945312 -3.054688 6.617188 -2.84375 7.546875 -2.84375 C 8.859375 -2.84375 9.976562 -3.144531 10.90625 -3.75 C 11.84375 -4.351562 12.867188 -5.273438 13.984375 -6.515625 L 15.234375 -6.515625 C 12.535156 -2.023438 9.191406 0.21875 5.203125 0.21875 Z M 5.28125 -9.109375 C 6.175781 -9.160156 7.03125 -9.476562 7.84375 -10.0625 C 8.664062 -10.644531 9.320312 -11.382812 9.8125 -12.28125 C 10.3125 -13.175781 10.5625 -14.125 10.5625 -15.125 C 10.5625 -16.113281 10.257812 -16.609375 9.65625 -16.609375 C 8.78125 -16.609375 7.921875 -15.84375 7.078125 -14.3125 C 6.242188 -12.789062 5.644531 -11.054688 5.28125 -9.109375 Z M 5.28125 -9.109375 "/></g></g></g><g fill="#526554" fill-opacity="1"><g transform="translate(117.566217, 337.716163)"><g><path d="M 11.703125 -25.03125 C 9.847656 -24.425781 8.414062 -23.425781 7.40625 -22.03125 C 6.40625 -20.632812 5.90625 -18.898438 5.90625 -16.828125 C 5.90625 -15.910156 5.988281 -15.28125 6.15625 -14.9375 C 6.320312 -14.59375 6.40625 -14.382812 6.40625 -14.3125 C 3.8125 -14.3125 2.515625 -15.421875 2.515625 -17.640625 C 2.515625 -19.140625 3.085938 -20.648438 4.234375 -22.171875 C 5.390625 -23.691406 6.875 -24.929688 8.6875 -25.890625 C 10.5 -26.847656 12.300781 -27.328125 14.09375 -27.328125 C 15 -27.328125 15.925781 -27.15625 16.875 -26.8125 L 16.03125 -7.609375 L 24.046875 -26.8125 L 29.296875 -26.8125 L 25.46875 0 L 20.21875 0 L 22.5625 -16.359375 L 15.703125 0 L 10.71875 0 L 11.4375 -16.4375 L 5.359375 0 L 2.4375 0 Z M 11.703125 -25.03125 "/></g></g></g><g fill="#526554" fill-opacity="1"><g transform="translate(144.32734, 337.716163)"><g><path d="M 5.203125 0.21875 C 3.410156 0.21875 2.015625 -0.25 1.015625 -1.1875 C 0.0234375 -2.125 -0.46875 -3.585938 -0.46875 -5.578125 C -0.46875 -7.253906 -0.140625 -9.097656 0.515625 -11.109375 C 1.171875 -13.128906 2.238281 -14.875 3.71875 -16.34375 C 5.195312 -17.8125 7.078125 -18.546875 9.359375 -18.546875 C 12.035156 -18.546875 13.375 -17.378906 13.375 -15.046875 C 13.375 -13.691406 12.984375 -12.441406 12.203125 -11.296875 C 11.429688 -10.148438 10.398438 -9.226562 9.109375 -8.53125 C 7.816406 -7.84375 6.441406 -7.453125 4.984375 -7.359375 C 4.941406 -6.628906 4.921875 -6.144531 4.921875 -5.90625 C 4.921875 -4.71875 5.125 -3.910156 5.53125 -3.484375 C 5.945312 -3.054688 6.617188 -2.84375 7.546875 -2.84375 C 8.859375 -2.84375 9.976562 -3.144531 10.90625 -3.75 C 11.84375 -4.351562 12.867188 -5.273438 13.984375 -6.515625 L 15.234375 -6.515625 C 12.535156 -2.023438 9.191406 0.21875 5.203125 0.21875 Z M 5.28125 -9.109375 C 6.175781 -9.160156 7.03125 -9.476562 7.84375 -10.0625 C 8.664062 -10.644531 9.320312 -11.382812 9.8125 -12.28125 C 10.3125 -13.175781 10.5625 -14.125 10.5625 -15.125 C 10.5625 -16.113281 10.257812 -16.609375 9.65625 -16.609375 C 8.78125 -16.609375 7.921875 -15.84375 7.078125 -14.3125 C 6.242188 -12.789062 5.644531 -11.054688 5.28125 -9.109375 Z M 5.28125 -9.109375 "/></g></g></g><g fill="#526554" fill-opacity="1"><g transform="translate(156.414372, 337.716163)"><g><path d="M 13.15625 0.21875 C 11.675781 0.21875 10.585938 -0.175781 9.890625 -0.96875 C 9.203125 -1.757812 8.859375 -2.738281 8.859375 -3.90625 C 8.859375 -4.40625 8.914062 -4.976562 9.03125 -5.625 C 9.15625 -6.269531 9.285156 -6.894531 9.421875 -7.5 C 9.554688 -8.113281 9.644531 -8.503906 9.6875 -8.671875 C 9.882812 -9.523438 10.066406 -10.363281 10.234375 -11.1875 C 10.410156 -12.007812 10.5 -12.675781 10.5 -13.1875 C 10.5 -14.425781 10.0625 -15.046875 9.1875 -15.046875 C 8.550781 -15.046875 7.988281 -14.734375 7.5 -14.109375 C 7.019531 -13.492188 6.632812 -12.691406 6.34375 -11.703125 L 3.859375 0 L -1.390625 0 L 2.484375 -18.21875 L 7.71875 -18.21875 L 7.328125 -16.328125 C 8.535156 -17.679688 9.957031 -18.359375 11.59375 -18.359375 C 12.832031 -18.359375 13.8125 -18.019531 14.53125 -17.34375 C 15.257812 -16.664062 15.625 -15.632812 15.625 -14.25 C 15.625 -13.539062 15.539062 -12.753906 15.375 -11.890625 C 15.207031 -11.035156 14.960938 -9.988281 14.640625 -8.75 C 14.453125 -7.988281 14.273438 -7.25 14.109375 -6.53125 C 13.953125 -5.820312 13.875 -5.257812 13.875 -4.84375 C 13.875 -4.363281 13.984375 -3.988281 14.203125 -3.71875 C 14.421875 -3.445312 14.800781 -3.3125 15.34375 -3.3125 C 16.070312 -3.3125 16.65625 -3.570312 17.09375 -4.09375 C 17.53125 -4.613281 17.96875 -5.421875 18.40625 -6.515625 L 19.9375 -6.515625 C 19.03125 -3.847656 17.988281 -2.054688 16.8125 -1.140625 C 15.632812 -0.234375 14.414062 0.21875 13.15625 0.21875 Z M 13.15625 0.21875 "/></g></g></g><g fill="#526554" fill-opacity="1"><g transform="translate(172.907265, 337.716163)"><g><path d="M 3.609375 0.21875 C 2.441406 0.21875 1.5 -0.144531 0.78125 -0.875 C 0.0625 -1.601562 -0.296875 -2.695312 -0.296875 -4.15625 C -0.296875 -4.757812 -0.195312 -5.546875 0 -6.515625 L 2.1875 -16.765625 L 0.984375 -16.765625 L 1.28125 -18.21875 L 2.484375 -18.21875 L 3.578125 -23.25 L 8.96875 -23.96875 L 7.71875 -18.21875 L 9.90625 -18.21875 L 9.625 -16.765625 L 7.4375 -16.765625 L 5.09375 -5.828125 C 5 -5.460938 4.953125 -5.070312 4.953125 -4.65625 C 4.953125 -4.175781 5.066406 -3.832031 5.296875 -3.625 C 5.523438 -3.414062 5.910156 -3.3125 6.453125 -3.3125 C 7.148438 -3.3125 7.800781 -3.609375 8.40625 -4.203125 C 9.019531 -4.796875 9.460938 -5.566406 9.734375 -6.515625 L 11.265625 -6.515625 C 10.359375 -3.898438 9.203125 -2.125 7.796875 -1.1875 C 6.390625 -0.25 4.992188 0.21875 3.609375 0.21875 Z M 3.609375 0.21875 "/></g></g></g><g fill="#526554" fill-opacity="1"><g transform="translate(180.734068, 337.716163)"><g><path d="M 4.375 0.21875 C 2.988281 0.21875 1.832031 -0.253906 0.90625 -1.203125 C -0.0078125 -2.148438 -0.46875 -3.628906 -0.46875 -5.640625 C -0.46875 -7.441406 -0.113281 -9.332031 0.59375 -11.3125 C 1.3125 -13.289062 2.378906 -14.96875 3.796875 -16.34375 C 5.222656 -17.71875 6.921875 -18.40625 8.890625 -18.40625 C 9.890625 -18.40625 10.628906 -18.234375 11.109375 -17.890625 C 11.597656 -17.546875 11.84375 -17.097656 11.84375 -16.546875 L 11.84375 -16.28125 L 12.25 -18.21875 L 17.484375 -18.21875 L 14.859375 -5.828125 C 14.765625 -5.460938 14.71875 -5.070312 14.71875 -4.65625 C 14.71875 -3.613281 15.21875 -3.09375 16.21875 -3.09375 C 16.894531 -3.09375 17.484375 -3.40625 17.984375 -4.03125 C 18.484375 -4.664062 18.878906 -5.492188 19.171875 -6.515625 L 20.703125 -6.515625 C 19.796875 -3.898438 18.679688 -2.125 17.359375 -1.1875 C 16.035156 -0.25 14.707031 0.21875 13.375 0.21875 C 12.351562 0.21875 11.53125 -0.0664062 10.90625 -0.640625 C 10.289062 -1.210938 9.921875 -2.046875 9.796875 -3.140625 C 9.097656 -2.140625 8.316406 -1.328125 7.453125 -0.703125 C 6.585938 -0.0859375 5.5625 0.21875 4.375 0.21875 Z M 6.734375 -3.3125 C 7.347656 -3.3125 7.953125 -3.597656 8.546875 -4.171875 C 9.140625 -4.742188 9.546875 -5.523438 9.765625 -6.515625 L 11.515625 -14.75 C 11.515625 -15.070312 11.390625 -15.382812 11.140625 -15.6875 C 10.898438 -15.988281 10.523438 -16.140625 10.015625 -16.140625 C 9.046875 -16.140625 8.171875 -15.570312 7.390625 -14.4375 C 6.617188 -13.3125 6.015625 -11.953125 5.578125 -10.359375 C 5.140625 -8.773438 4.921875 -7.375 4.921875 -6.15625 C 4.921875 -4.945312 5.09375 -4.171875 5.4375 -3.828125 C 5.789062 -3.484375 6.222656 -3.3125 6.734375 -3.3125 Z M 6.734375 -3.3125 "/></g></g></g><g fill="#526554" fill-opacity="1"><g transform="translate(197.991625, 337.716163)"><g><path d="M 3.609375 0.21875 C 2.441406 0.21875 1.5 -0.144531 0.78125 -0.875 C 0.0625 -1.601562 -0.296875 -2.695312 -0.296875 -4.15625 C -0.296875 -4.757812 -0.195312 -5.546875 0 -6.515625 L 3.90625 -24.78125 L 9.296875 -25.5 L 5.09375 -5.828125 C 5 -5.460938 4.953125 -5.070312 4.953125 -4.65625 C 4.953125 -4.175781 5.066406 -3.832031 5.296875 -3.625 C 5.523438 -3.414062 5.910156 -3.3125 6.453125 -3.3125 C 7.148438 -3.3125 7.800781 -3.609375 8.40625 -4.203125 C 9.019531 -4.796875 9.460938 -5.566406 9.734375 -6.515625 L 11.265625 -6.515625 C 10.359375 -3.898438 9.203125 -2.125 7.796875 -1.1875 C 6.390625 -0.25 4.992188 0.21875 3.609375 0.21875 Z M 3.609375 0.21875 "/></g></g></g><g fill="#526554" fill-opacity="1"><g transform="translate(205.818422, 337.716163)"><g/></g></g><g fill="#526554" fill-opacity="1"><g transform="translate(211.824603, 337.716163)"><g><path d="M 8.921875 -24.78125 C 7.296875 -24.09375 6.039062 -23.066406 5.15625 -21.703125 C 4.269531 -20.347656 3.828125 -18.710938 3.828125 -16.796875 C 3.828125 -15.898438 3.910156 -15.273438 4.078125 -14.921875 C 4.253906 -14.566406 4.34375 -14.363281 4.34375 -14.3125 C 3.03125 -14.3125 2.050781 -14.582031 1.40625 -15.125 C 0.757812 -15.675781 0.4375 -16.585938 0.4375 -17.859375 C 0.4375 -19.410156 1.070312 -20.921875 2.34375 -22.390625 C 3.625 -23.859375 5.257812 -25.046875 7.25 -25.953125 C 9.238281 -26.867188 11.234375 -27.328125 13.234375 -27.328125 C 13.566406 -27.328125 14.050781 -27.300781 14.6875 -27.25 L 12.359375 -16.390625 L 17.703125 -16.390625 L 20.046875 -27.25 L 25.28125 -27.25 L 19.5 0 L 14.25 0 L 17.15625 -13.703125 L 11.8125 -13.703125 L 8.890625 0 L 3.640625 0 Z M 8.921875 -24.78125 "/></g></g></g><g fill="#526554" fill-opacity="1"><g transform="translate(234.14344, 337.716163)"><g><path d="M 5.203125 0.21875 C 3.410156 0.21875 2.015625 -0.25 1.015625 -1.1875 C 0.0234375 -2.125 -0.46875 -3.585938 -0.46875 -5.578125 C -0.46875 -7.253906 -0.140625 -9.097656 0.515625 -11.109375 C 1.171875 -13.128906 2.238281 -14.875 3.71875 -16.34375 C 5.195312 -17.8125 7.078125 -18.546875 9.359375 -18.546875 C 12.035156 -18.546875 13.375 -17.378906 13.375 -15.046875 C 13.375 -13.691406 12.984375 -12.441406 12.203125 -11.296875 C 11.429688 -10.148438 10.398438 -9.226562 9.109375 -8.53125 C 7.816406 -7.84375 6.441406 -7.453125 4.984375 -7.359375 C 4.941406 -6.628906 4.921875 -6.144531 4.921875 -5.90625 C 4.921875 -4.71875 5.125 -3.910156 5.53125 -3.484375 C 5.945312 -3.054688 6.617188 -2.84375 7.546875 -2.84375 C 8.859375 -2.84375 9.976562 -3.144531 10.90625 -3.75 C 11.84375 -4.351562 12.867188 -5.273438 13.984375 -6.515625 L 15.234375 -6.515625 C 12.535156 -2.023438 9.191406 0.21875 5.203125 0.21875 Z M 5.28125 -9.109375 C 6.175781 -9.160156 7.03125 -9.476562 7.84375 -10.0625 C 8.664062 -10.644531 9.320312 -11.382812 9.8125 -12.28125 C 10.3125 -13.175781 10.5625 -14.125 10.5625 -15.125 C 10.5625 -16.113281 10.257812 -16.609375 9.65625 -16.609375 C 8.78125 -16.609375 7.921875 -15.84375 7.078125 -14.3125 C 6.242188 -12.789062 5.644531 -11.054688 5.28125 -9.109375 Z M 5.28125 -9.109375 "/></g></g></g><g fill="#526554" fill-opacity="1"><g transform="translate(246.230471, 337.716163)"><g><path d="M 4.375 0.21875 C 2.988281 0.21875 1.832031 -0.253906 0.90625 -1.203125 C -0.0078125 -2.148438 -0.46875 -3.628906 -0.46875 -5.640625 C -0.46875 -7.441406 -0.113281 -9.332031 0.59375 -11.3125 C 1.3125 -13.289062 2.378906 -14.96875 3.796875 -16.34375 C 5.222656 -17.71875 6.921875 -18.40625 8.890625 -18.40625 C 9.890625 -18.40625 10.628906 -18.234375 11.109375 -17.890625 C 11.597656 -17.546875 11.84375 -17.097656 11.84375 -16.546875 L 11.84375 -16.28125 L 12.25 -18.21875 L 17.484375 -18.21875 L 14.859375 -5.828125 C 14.765625 -5.460938 14.71875 -5.070312 14.71875 -4.65625 C 14.71875 -3.613281 15.21875 -3.09375 16.21875 -3.09375 C 16.894531 -3.09375 17.484375 -3.40625 17.984375 -4.03125 C 18.484375 -4.664062 18.878906 -5.492188 19.171875 -6.515625 L 20.703125 -6.515625 C 19.796875 -3.898438 18.679688 -2.125 17.359375 -1.1875 C 16.035156 -0.25 14.707031 0.21875 13.375 0.21875 C 12.351562 0.21875 11.53125 -0.0664062 10.90625 -0.640625 C 10.289062 -1.210938 9.921875 -2.046875 9.796875 -3.140625 C 9.097656 -2.140625 8.316406 -1.328125 7.453125 -0.703125 C 6.585938 -0.0859375 5.5625 0.21875 4.375 0.21875 Z M 6.734375 -3.3125 C 7.347656 -3.3125 7.953125 -3.597656 8.546875 -4.171875 C 9.140625 -4.742188 9.546875 -5.523438 9.765625 -6.515625 L 11.515625 -14.75 C 11.515625 -15.070312 11.390625 -15.382812 11.140625 -15.6875 C 10.898438 -15.988281 10.523438 -16.140625 10.015625 -16.140625 C 9.046875 -16.140625 8.171875 -15.570312 7.390625 -14.4375 C 6.617188 -13.3125 6.015625 -11.953125 5.578125 -10.359375 C 5.140625 -8.773438 4.921875 -7.375 4.921875 -6.15625 C 4.921875 -4.945312 5.09375 -4.171875 5.4375 -3.828125 C 5.789062 -3.484375 6.222656 -3.3125 6.734375 -3.3125 Z M 6.734375 -3.3125 "/></g></g></g><g fill="#526554" fill-opacity="1"><g transform="translate(263.488023, 337.716163)"><g><path d="M 3.609375 0.21875 C 2.441406 0.21875 1.5 -0.144531 0.78125 -0.875 C 0.0625 -1.601562 -0.296875 -2.695312 -0.296875 -4.15625 C -0.296875 -4.757812 -0.195312 -5.546875 0 -6.515625 L 3.90625 -24.78125 L 9.296875 -25.5 L 5.09375 -5.828125 C 5 -5.460938 4.953125 -5.070312 4.953125 -4.65625 C 4.953125 -4.175781 5.066406 -3.832031 5.296875 -3.625 C 5.523438 -3.414062 5.910156 -3.3125 6.453125 -3.3125 C 7.148438 -3.3125 7.800781 -3.609375 8.40625 -4.203125 C 9.019531 -4.796875 9.460938 -5.566406 9.734375 -6.515625 L 11.265625 -6.515625 C 10.359375 -3.898438 9.203125 -2.125 7.796875 -1.1875 C 6.390625 -0.25 4.992188 0.21875 3.609375 0.21875 Z M 3.609375 0.21875 "/></g></g></g><g fill="#526554" fill-opacity="1"><g transform="translate(271.31482, 337.716163)"><g><path d="M 3.609375 0.21875 C 2.441406 0.21875 1.5 -0.144531 0.78125 -0.875 C 0.0625 -1.601562 -0.296875 -2.695312 -0.296875 -4.15625 C -0.296875 -4.757812 -0.195312 -5.546875 0 -6.515625 L 2.1875 -16.765625 L 0.984375 -16.765625 L 1.28125 -18.21875 L 2.484375 -18.21875 L 3.578125 -23.25 L 8.96875 -23.96875 L 7.71875 -18.21875 L 9.90625 -18.21875 L 9.625 -16.765625 L 7.4375 -16.765625 L 5.09375 -5.828125 C 5 -5.460938 4.953125 -5.070312 4.953125 -4.65625 C 4.953125 -4.175781 5.066406 -3.832031 5.296875 -3.625 C 5.523438 -3.414062 5.910156 -3.3125 6.453125 -3.3125 C 7.148438 -3.3125 7.800781 -3.609375 8.40625 -4.203125 C 9.019531 -4.796875 9.460938 -5.566406 9.734375 -6.515625 L 11.265625 -6.515625 C 10.359375 -3.898438 9.203125 -2.125 7.796875 -1.1875 C 6.390625 -0.25 4.992188 0.21875 3.609375 0.21875 Z M 3.609375 0.21875 "/></g></g></g><g fill="#526554" fill-opacity="1"><g transform="translate(279.141618, 337.716163)"><g><path d="M 13.15625 0.21875 C 11.675781 0.21875 10.585938 -0.175781 9.890625 -0.96875 C 9.203125 -1.757812 8.859375 -2.738281 8.859375 -3.90625 C 8.859375 -4.40625 8.914062 -4.976562 9.03125 -5.625 C 9.15625 -6.269531 9.285156 -6.894531 9.421875 -7.5 C 9.554688 -8.113281 9.644531 -8.503906 9.6875 -8.671875 C 9.882812 -9.523438 10.066406 -10.363281 10.234375 -11.1875 C 10.410156 -12.007812 10.5 -12.675781 10.5 -13.1875 C 10.5 -14.425781 10.0625 -15.046875 9.1875 -15.046875 C 8.550781 -15.046875 7.988281 -14.734375 7.5 -14.109375 C 7.019531 -13.492188 6.632812 -12.691406 6.34375 -11.703125 L 3.859375 0 L -1.390625 0 L 3.90625 -24.78125 L 9.296875 -25.5 L 7.328125 -16.328125 C 8.535156 -17.679688 9.957031 -18.359375 11.59375 -18.359375 C 12.832031 -18.359375 13.8125 -18.019531 14.53125 -17.34375 C 15.257812 -16.664062 15.625 -15.632812 15.625 -14.25 C 15.625 -13.539062 15.539062 -12.753906 15.375 -11.890625 C 15.207031 -11.035156 14.960938 -9.988281 14.640625 -8.75 C 14.453125 -7.988281 14.273438 -7.25 14.109375 -6.53125 C 13.953125 -5.820312 13.875 -5.257812 13.875 -4.84375 C 13.875 -4.363281 13.984375 -3.988281 14.203125 -3.71875 C 14.421875 -3.445312 14.800781 -3.3125 15.34375 -3.3125 C 16.070312 -3.3125 16.65625 -3.570312 17.09375 -4.09375 C 17.53125 -4.613281 17.96875 -5.421875 18.40625 -6.515625 L 19.9375 -6.515625 C 19.03125 -3.847656 17.988281 -2.054688 16.8125 -1.140625 C 15.632812 -0.234375 14.414062 0.21875 13.15625 0.21875 Z M 13.15625 0.21875 "/></g></g></g><g fill="#bfd9c2" fill-opacity="1"><g transform="translate(4.014328, 352.954964)"><g><path d="M 107.578125 -66.3125 C 107.910156 -65.007812 108.078125 -63.753906 108.078125 -62.546875 C 108.078125 -58.734375 106.628906 -55.132812 103.734375 -51.75 C 100.835938 -48.363281 97.207031 -45.960938 92.84375 -44.546875 C 90.988281 -43.992188 88.804688 -43.71875 86.296875 -43.71875 C 85.316406 -34.4375 82.5625 -26.273438 78.03125 -19.234375 C 73.5 -12.191406 67.570312 -6.734375 60.25 -2.859375 C 52.9375 1.015625 44.753906 2.953125 35.703125 2.953125 C 25.328125 2.953125 17.164062 0.332031 11.21875 -4.90625 C 5.269531 -10.144531 2.296875 -17.242188 2.296875 -26.203125 C 2.296875 -32.203125 3.628906 -38.125 6.296875 -43.96875 C 8.972656 -49.8125 12.628906 -54.859375 17.265625 -59.109375 C 21.910156 -63.367188 27.019531 -66.316406 32.59375 -67.953125 L 32.59375 -68.609375 C 29.207031 -71.453125 26.800781 -74.453125 25.375 -77.609375 C 23.957031 -80.773438 23.25 -84.707031 23.25 -89.40625 C 23.25 -95.300781 24.859375 -100.84375 28.078125 -106.03125 C 31.296875 -111.21875 35.660156 -115.363281 41.171875 -118.46875 C 46.691406 -121.582031 52.671875 -123.140625 59.109375 -123.140625 C 66.535156 -123.140625 72.648438 -121.007812 77.453125 -116.75 C 82.253906 -112.5 84.65625 -107.097656 84.65625 -100.546875 C 84.65625 -96.066406 83.507812 -92.40625 81.21875 -89.5625 C 78.925781 -86.726562 75.925781 -85.3125 72.21875 -85.3125 C 68.0625 -85.3125 64.726562 -87.003906 62.21875 -90.390625 C 64.1875 -91.585938 65.796875 -93.441406 67.046875 -95.953125 C 68.304688 -98.460938 68.9375 -101.140625 68.9375 -103.984375 C 68.9375 -107.035156 68.171875 -109.4375 66.640625 -111.1875 C 65.117188 -112.9375 63.046875 -113.8125 60.421875 -113.8125 C 57.585938 -113.8125 54.859375 -112.71875 52.234375 -110.53125 C 49.617188 -108.34375 47.519531 -105.421875 45.9375 -101.765625 C 44.351562 -98.109375 43.5625 -94.257812 43.5625 -90.21875 C 43.5625 -84.757812 45.035156 -80.144531 47.984375 -76.375 C 50.929688 -72.613281 54.96875 -70.082031 60.09375 -68.78125 L 60.09375 -68.125 C 54.96875 -67.132812 50.140625 -64.753906 45.609375 -60.984375 C 41.078125 -57.222656 37.472656 -52.640625 34.796875 -47.234375 C 32.117188 -41.835938 30.78125 -36.351562 30.78125 -30.78125 C 30.78125 -25.101562 32.195312 -20.679688 35.03125 -17.515625 C 37.875 -14.347656 41.804688 -12.765625 46.828125 -12.765625 C 51.523438 -12.765625 56.164062 -14.070312 60.75 -16.6875 C 65.332031 -19.3125 69.257812 -22.972656 72.53125 -27.671875 C 75.8125 -32.367188 78 -37.664062 79.09375 -43.5625 C 76.6875 -43.5625 74.175781 -43.234375 71.5625 -42.578125 C 65.550781 -40.609375 61.238281 -37.710938 58.625 -33.890625 L 58.125 -33.734375 C 56.925781 -35.265625 55.945312 -37.226562 55.1875 -39.625 C 54.75 -40.9375 54.53125 -42.359375 54.53125 -43.890625 C 54.53125 -47.597656 55.835938 -50.925781 58.453125 -53.875 C 61.078125 -56.820312 64.351562 -58.894531 68.28125 -60.09375 C 71.34375 -60.96875 75.546875 -61.625 80.890625 -62.0625 C 84.492188 -62.28125 87.601562 -62.660156 90.21875 -63.203125 C 92.738281 -63.972656 95.28125 -65.253906 97.84375 -67.046875 C 100.40625 -68.847656 102.34375 -70.625 103.65625 -72.375 L 103.984375 -72.375 C 105.617188 -70.738281 106.816406 -68.71875 107.578125 -66.3125 Z M 107.578125 -66.3125 "/></g></g></g></svg>