<svg xmlns="http://www.w3.org/2000/svg" xmlns:xlink="http://www.w3.org/1999/xlink" width="1366" zoomAndPan="magnify" viewBox="0 0 1024.5 576" height="768" preserveAspectRatio="xMidYMid meet" version="1.0"><defs><g/></defs><g fill="#526554" fill-opacity="1"><g transform="translate(385.444936, 257.128235)"><g><path d="M 17.234375 1.265625 C 14.285156 1.265625 11.679688 0.75 9.421875 -0.28125 C 7.171875 -1.3125 5.4375 -2.753906 4.21875 -4.609375 C 3 -6.460938 2.390625 -8.609375 2.390625 -11.046875 C 2.390625 -13.109375 2.820312 -14.984375 3.6875 -16.671875 C 4.5625 -18.359375 5.734375 -19.691406 7.203125 -20.671875 C 8.679688 -21.660156 10.316406 -22.15625 12.109375 -22.15625 C 13.742188 -22.15625 15.125 -21.742188 16.25 -20.921875 C 17.375 -20.109375 18.078125 -18.972656 18.359375 -17.515625 C 15.921875 -17.515625 13.972656 -16.867188 12.515625 -15.578125 C 11.066406 -14.296875 10.34375 -12.550781 10.34375 -10.34375 C 10.34375 -8.320312 10.953125 -6.703125 12.171875 -5.484375 C 13.390625 -4.265625 15.007812 -3.65625 17.03125 -3.65625 C 19.507812 -3.65625 21.554688 -4.488281 23.171875 -6.15625 C 24.796875 -7.820312 25.609375 -9.921875 25.609375 -12.453125 C 25.609375 -14.660156 25 -16.75 23.78125 -18.71875 C 22.5625 -20.6875 20.734375 -23.078125 18.296875 -25.890625 C 15.765625 -28.796875 13.851562 -31.289062 12.5625 -33.375 C 11.269531 -35.46875 10.625 -37.757812 10.625 -40.25 C 10.625 -42.6875 11.300781 -44.878906 12.65625 -46.828125 C 14.019531 -48.773438 15.894531 -50.3125 18.28125 -51.4375 C 20.675781 -52.5625 23.378906 -53.125 26.390625 -53.125 C 30.179688 -53.125 33.210938 -52.234375 35.484375 -50.453125 C 37.765625 -48.671875 38.90625 -46.273438 38.90625 -43.265625 C 38.90625 -41.296875 38.410156 -39.703125 37.421875 -38.484375 C 36.441406 -37.265625 35.15625 -36.65625 33.5625 -36.65625 C 31.78125 -36.65625 30.347656 -37.382812 29.265625 -38.84375 C 30.160156 -39.5 30.863281 -40.363281 31.375 -41.4375 C 31.894531 -42.519531 32.15625 -43.644531 32.15625 -44.8125 C 32.15625 -46.320312 31.707031 -47.519531 30.8125 -48.40625 C 29.925781 -49.300781 28.707031 -49.75 27.15625 -49.75 C 25.28125 -49.75 23.742188 -49.078125 22.546875 -47.734375 C 21.347656 -46.398438 20.75 -44.703125 20.75 -42.640625 C 20.75 -40.765625 21.289062 -39.015625 22.375 -37.390625 C 23.457031 -35.773438 25.144531 -33.703125 27.4375 -31.171875 C 29.3125 -29.148438 30.820312 -27.410156 31.96875 -25.953125 C 33.125 -24.503906 34.113281 -22.828125 34.9375 -20.921875 C 35.757812 -19.023438 36.171875 -16.976562 36.171875 -14.78125 C 36.171875 -11.769531 35.335938 -9.046875 33.671875 -6.609375 C 32.003906 -4.171875 29.726562 -2.25 26.84375 -0.84375 C 23.957031 0.5625 20.753906 1.265625 17.234375 1.265625 Z M 17.234375 1.265625 "/></g></g></g><g fill="#526554" fill-opacity="1"><g transform="translate(421.863948, 257.128235)"><g><path d="M 10.265625 0.28125 C 6.796875 0.28125 4.050781 -0.609375 2.03125 -2.390625 C 0.0195312 -4.171875 -0.984375 -6.984375 -0.984375 -10.828125 C -0.984375 -14.023438 -0.328125 -17.566406 0.984375 -21.453125 C 2.296875 -25.347656 4.40625 -28.710938 7.3125 -31.546875 C 10.21875 -34.390625 13.878906 -35.8125 18.296875 -35.8125 C 24.296875 -35.8125 27.296875 -32.0625 27.296875 -24.5625 L 27.296875 -24.484375 C 27.441406 -24.441406 27.703125 -24.421875 28.078125 -24.421875 C 29.617188 -24.421875 31.398438 -24.828125 33.421875 -25.640625 C 35.441406 -26.460938 37.269531 -27.460938 38.90625 -28.640625 L 39.546875 -26.734375 C 38.179688 -25.285156 36.40625 -24.054688 34.21875 -23.046875 C 32.039062 -22.035156 29.664062 -21.316406 27.09375 -20.890625 C 26.71875 -16.628906 25.753906 -12.898438 24.203125 -9.703125 C 22.648438 -6.515625 20.65625 -4.050781 18.21875 -2.3125 C 15.78125 -0.582031 13.128906 0.28125 10.265625 0.28125 Z M 13.09375 -6.046875 C 14.21875 -6.046875 15.34375 -6.691406 16.46875 -7.984375 C 17.59375 -9.273438 18.578125 -11.035156 19.421875 -13.265625 C 20.265625 -15.492188 20.875 -17.96875 21.25 -20.6875 C 19.976562 -20.96875 19.34375 -21.953125 19.34375 -23.640625 C 19.34375 -25.566406 20.070312 -26.832031 21.53125 -27.4375 C 21.4375 -28.988281 21.203125 -30.054688 20.828125 -30.640625 C 20.453125 -31.222656 19.796875 -31.515625 18.859375 -31.515625 C 17.304688 -31.515625 15.800781 -30.390625 14.34375 -28.140625 C 12.894531 -25.890625 11.722656 -23.191406 10.828125 -20.046875 C 9.941406 -16.910156 9.5 -14.144531 9.5 -11.75 C 9.5 -9.5 9.753906 -7.984375 10.265625 -7.203125 C 10.785156 -6.429688 11.726562 -6.046875 13.09375 -6.046875 Z M 13.09375 -6.046875 "/></g></g></g><g fill="#526554" fill-opacity="1"><g transform="translate(449.071859, 257.128235)"><g><path d="M 10.0625 0.421875 C 6.59375 0.421875 3.894531 -0.476562 1.96875 -2.28125 C 0.0390625 -4.09375 -0.921875 -6.921875 -0.921875 -10.765625 C -0.921875 -14.003906 -0.273438 -17.566406 1.015625 -21.453125 C 2.304688 -25.347656 4.367188 -28.710938 7.203125 -31.546875 C 10.046875 -34.390625 13.648438 -35.8125 18.015625 -35.8125 C 20.828125 -35.8125 22.832031 -35.203125 24.03125 -33.984375 C 25.226562 -32.765625 25.828125 -31.21875 25.828125 -29.34375 C 25.828125 -27.695312 25.472656 -26.425781 24.765625 -25.53125 C 24.066406 -24.644531 23.175781 -24.203125 22.09375 -24.203125 C 21.289062 -24.203125 20.46875 -24.484375 19.625 -25.046875 C 20.1875 -26.597656 20.46875 -27.984375 20.46875 -29.203125 C 20.46875 -30.085938 20.300781 -30.785156 19.96875 -31.296875 C 19.644531 -31.816406 19.15625 -32.078125 18.5 -32.078125 C 17.09375 -32.078125 15.6875 -30.925781 14.28125 -28.625 C 12.875 -26.332031 11.722656 -23.546875 10.828125 -20.265625 C 9.941406 -16.984375 9.5 -14.023438 9.5 -11.390625 C 9.5 -9.097656 9.894531 -7.539062 10.6875 -6.71875 C 11.488281 -5.894531 12.78125 -5.484375 14.5625 -5.484375 C 17.09375 -5.484375 19.257812 -6.066406 21.0625 -7.234375 C 22.875 -8.410156 24.859375 -10.195312 27.015625 -12.59375 L 29.40625 -12.59375 C 24.195312 -3.914062 17.75 0.421875 10.0625 0.421875 Z M 10.0625 0.421875 "/></g></g></g><g fill="#526554" fill-opacity="1"><g transform="translate(472.41252, 257.128235)"><g><path d="M 11.75 -38.984375 C 10.195312 -38.984375 8.878906 -39.519531 7.796875 -40.59375 C 6.722656 -41.675781 6.1875 -42.988281 6.1875 -44.53125 C 6.1875 -46.082031 6.722656 -47.410156 7.796875 -48.515625 C 8.878906 -49.617188 10.195312 -50.171875 11.75 -50.171875 C 13.300781 -50.171875 14.625 -49.617188 15.71875 -48.515625 C 16.820312 -47.410156 17.375 -46.082031 17.375 -44.53125 C 17.375 -42.988281 16.820312 -41.675781 15.71875 -40.59375 C 14.625 -39.519531 13.300781 -38.984375 11.75 -38.984375 Z M 6.96875 0.421875 C 4.71875 0.421875 2.898438 -0.28125 1.515625 -1.6875 C 0.128906 -3.09375 -0.5625 -5.203125 -0.5625 -8.015625 C -0.5625 -9.191406 -0.375 -10.71875 0 -12.59375 L 4.78125 -35.1875 L 14.921875 -35.1875 L 9.84375 -11.25 C 9.65625 -10.550781 9.5625 -9.800781 9.5625 -9 C 9.5625 -8.0625 9.785156 -7.394531 10.234375 -7 C 10.679688 -6.601562 11.421875 -6.40625 12.453125 -6.40625 C 13.816406 -6.40625 15.082031 -6.976562 16.25 -8.125 C 17.425781 -9.269531 18.269531 -10.757812 18.78125 -12.59375 L 21.734375 -12.59375 C 20.003906 -7.53125 17.773438 -4.09375 15.046875 -2.28125 C 12.328125 -0.476562 9.632812 0.421875 6.96875 0.421875 Z M 6.96875 0.421875 "/></g></g></g><g fill="#526554" fill-opacity="1"><g transform="translate(487.526464, 257.128235)"><g><path d="M 8.4375 0.421875 C 5.769531 0.421875 3.539062 -0.488281 1.75 -2.3125 C -0.03125 -4.144531 -0.921875 -7.007812 -0.921875 -10.90625 C -0.921875 -14.375 -0.226562 -18.019531 1.15625 -21.84375 C 2.539062 -25.664062 4.601562 -28.898438 7.34375 -31.546875 C 10.09375 -34.203125 13.367188 -35.53125 17.171875 -35.53125 C 19.085938 -35.53125 20.515625 -35.203125 21.453125 -34.546875 C 22.390625 -33.890625 22.859375 -33.019531 22.859375 -31.9375 L 22.859375 -31.453125 L 23.640625 -35.1875 L 33.765625 -35.1875 L 28.703125 -11.25 C 28.515625 -10.550781 28.421875 -9.800781 28.421875 -9 C 28.421875 -6.988281 29.382812 -5.984375 31.3125 -5.984375 C 32.625 -5.984375 33.757812 -6.59375 34.71875 -7.8125 C 35.6875 -9.03125 36.453125 -10.625 37.015625 -12.59375 L 39.96875 -12.59375 C 38.226562 -7.53125 36.078125 -4.09375 33.515625 -2.28125 C 30.960938 -0.476562 28.398438 0.421875 25.828125 0.421875 C 23.847656 0.421875 22.257812 -0.128906 21.0625 -1.234375 C 19.875 -2.335938 19.160156 -3.941406 18.921875 -6.046875 C 17.566406 -4.128906 16.054688 -2.570312 14.390625 -1.375 C 12.722656 -0.175781 10.738281 0.421875 8.4375 0.421875 Z M 13.015625 -6.40625 C 14.191406 -6.40625 15.351562 -6.953125 16.5 -8.046875 C 17.644531 -9.148438 18.429688 -10.664062 18.859375 -12.59375 L 22.234375 -28.5 C 22.234375 -29.101562 22 -29.695312 21.53125 -30.28125 C 21.0625 -30.875 20.332031 -31.171875 19.34375 -31.171875 C 17.46875 -31.171875 15.78125 -30.078125 14.28125 -27.890625 C 12.78125 -25.710938 11.609375 -23.085938 10.765625 -20.015625 C 9.921875 -16.941406 9.5 -14.234375 9.5 -11.890625 C 9.5 -9.546875 9.835938 -8.046875 10.515625 -7.390625 C 11.191406 -6.734375 12.023438 -6.40625 13.015625 -6.40625 Z M 13.015625 -6.40625 "/></g></g></g><g fill="#526554" fill-opacity="1"><g transform="translate(520.851665, 257.128235)"><g><path d="M 6.96875 0.421875 C 4.71875 0.421875 2.898438 -0.28125 1.515625 -1.6875 C 0.128906 -3.09375 -0.5625 -5.203125 -0.5625 -8.015625 C -0.5625 -9.191406 -0.375 -10.71875 0 -12.59375 L 7.53125 -47.84375 L 17.9375 -49.25 L 9.84375 -11.25 C 9.65625 -10.550781 9.5625 -9.800781 9.5625 -9 C 9.5625 -8.0625 9.785156 -7.394531 10.234375 -7 C 10.679688 -6.601562 11.421875 -6.40625 12.453125 -6.40625 C 13.816406 -6.40625 15.082031 -6.976562 16.25 -8.125 C 17.425781 -9.269531 18.269531 -10.757812 18.78125 -12.59375 L 21.734375 -12.59375 C 20.003906 -7.53125 17.773438 -4.09375 15.046875 -2.28125 C 12.328125 -0.476562 9.632812 0.421875 6.96875 0.421875 Z M 6.96875 0.421875 "/></g></g></g><g fill="#526554" fill-opacity="1"><g transform="translate(535.965609, 257.128235)"><g/></g></g><g fill="#526554" fill-opacity="1"><g transform="translate(547.563852, 257.128235)"><g><path d="M 22.578125 -48.34375 C 19.015625 -47.164062 16.257812 -45.226562 14.3125 -42.53125 C 12.363281 -39.832031 11.390625 -36.488281 11.390625 -32.5 C 11.390625 -30.71875 11.554688 -29.5 11.890625 -28.84375 C 12.222656 -28.1875 12.390625 -27.789062 12.390625 -27.65625 C 7.367188 -27.65625 4.859375 -29.785156 4.859375 -34.046875 C 4.859375 -36.960938 5.96875 -39.882812 8.1875 -42.8125 C 10.414062 -45.75 13.273438 -48.140625 16.765625 -49.984375 C 20.265625 -51.835938 23.753906 -52.765625 27.234375 -52.765625 C 28.960938 -52.765625 30.742188 -52.4375 32.578125 -51.78125 L 30.953125 -14.703125 L 46.4375 -51.78125 L 56.5625 -51.78125 L 49.1875 0 L 39.046875 0 L 43.546875 -31.59375 L 30.328125 0 L 20.6875 0 L 22.09375 -31.734375 L 10.34375 0 L 4.71875 0 Z M 22.578125 -48.34375 "/></g></g></g><g fill="#526554" fill-opacity="1"><g transform="translate(599.240906, 257.128235)"><g><path d="M 10.0625 0.421875 C 6.59375 0.421875 3.894531 -0.476562 1.96875 -2.28125 C 0.0390625 -4.09375 -0.921875 -6.921875 -0.921875 -10.765625 C -0.921875 -14.003906 -0.285156 -17.566406 0.984375 -21.453125 C 2.253906 -25.347656 4.316406 -28.710938 7.171875 -31.546875 C 10.035156 -34.390625 13.671875 -35.8125 18.078125 -35.8125 C 23.242188 -35.8125 25.828125 -33.5625 25.828125 -29.0625 C 25.828125 -26.4375 25.070312 -24.019531 23.5625 -21.8125 C 22.0625 -19.601562 20.066406 -17.832031 17.578125 -16.5 C 15.097656 -15.164062 12.453125 -14.40625 9.640625 -14.21875 C 9.546875 -12.8125 9.5 -11.867188 9.5 -11.390625 C 9.5 -9.097656 9.894531 -7.539062 10.6875 -6.71875 C 11.488281 -5.894531 12.78125 -5.484375 14.5625 -5.484375 C 17.09375 -5.484375 19.257812 -6.066406 21.0625 -7.234375 C 22.875 -8.410156 24.859375 -10.195312 27.015625 -12.59375 L 29.40625 -12.59375 C 24.195312 -3.914062 17.75 0.421875 10.0625 0.421875 Z M 10.203125 -17.59375 C 11.941406 -17.6875 13.59375 -18.296875 15.15625 -19.421875 C 16.726562 -20.546875 17.992188 -21.972656 18.953125 -23.703125 C 19.921875 -25.441406 20.40625 -27.273438 20.40625 -29.203125 C 20.40625 -31.117188 19.816406 -32.078125 18.640625 -32.078125 C 16.953125 -32.078125 15.296875 -30.597656 13.671875 -27.640625 C 12.054688 -24.691406 10.898438 -21.34375 10.203125 -17.59375 Z M 10.203125 -17.59375 "/></g></g></g><g fill="#526554" fill-opacity="1"><g transform="translate(622.581563, 257.128235)"><g><path d="M 8.4375 0.421875 C 5.769531 0.421875 3.539062 -0.488281 1.75 -2.3125 C -0.03125 -4.144531 -0.921875 -7.007812 -0.921875 -10.90625 C -0.921875 -14.375 -0.226562 -18.019531 1.15625 -21.84375 C 2.539062 -25.664062 4.601562 -28.898438 7.34375 -31.546875 C 10.09375 -34.203125 13.367188 -35.53125 17.171875 -35.53125 C 19.085938 -35.53125 20.515625 -35.203125 21.453125 -34.546875 C 22.390625 -33.890625 22.859375 -33.019531 22.859375 -31.9375 L 22.859375 -31.65625 L 26.3125 -47.84375 L 36.734375 -49.25 L 28.640625 -11.25 C 28.453125 -10.550781 28.359375 -9.800781 28.359375 -9 C 28.359375 -8.0625 28.578125 -7.394531 29.015625 -7 C 29.460938 -6.601562 30.203125 -6.40625 31.234375 -6.40625 C 32.546875 -6.40625 33.679688 -6.96875 34.640625 -8.09375 C 35.609375 -9.21875 36.375 -10.71875 36.9375 -12.59375 L 39.890625 -12.59375 C 37.035156 -4.195312 32.320312 0 25.75 0 C 23.820312 0 22.257812 -0.515625 21.0625 -1.546875 C 19.875 -2.578125 19.140625 -4.078125 18.859375 -6.046875 C 17.640625 -4.171875 16.171875 -2.625 14.453125 -1.40625 C 12.742188 -0.1875 10.738281 0.421875 8.4375 0.421875 Z M 13.015625 -6.40625 C 14.140625 -6.40625 15.273438 -6.921875 16.421875 -7.953125 C 17.578125 -8.984375 18.363281 -10.414062 18.78125 -12.25 L 18.78125 -12.59375 L 22.234375 -28.703125 C 21.804688 -30.347656 20.84375 -31.171875 19.34375 -31.171875 C 17.46875 -31.171875 15.78125 -30.078125 14.28125 -27.890625 C 12.78125 -25.710938 11.609375 -23.085938 10.765625 -20.015625 C 9.921875 -16.941406 9.5 -14.234375 9.5 -11.890625 C 9.5 -9.546875 9.835938 -8.046875 10.515625 -7.390625 C 11.191406 -6.734375 12.023438 -6.40625 13.015625 -6.40625 Z M 13.015625 -6.40625 "/></g></g></g><g fill="#526554" fill-opacity="1"><g transform="translate(655.836488, 257.128235)"><g><path d="M 11.75 -38.984375 C 10.195312 -38.984375 8.878906 -39.519531 7.796875 -40.59375 C 6.722656 -41.675781 6.1875 -42.988281 6.1875 -44.53125 C 6.1875 -46.082031 6.722656 -47.410156 7.796875 -48.515625 C 8.878906 -49.617188 10.195312 -50.171875 11.75 -50.171875 C 13.300781 -50.171875 14.625 -49.617188 15.71875 -48.515625 C 16.820312 -47.410156 17.375 -46.082031 17.375 -44.53125 C 17.375 -42.988281 16.820312 -41.675781 15.71875 -40.59375 C 14.625 -39.519531 13.300781 -38.984375 11.75 -38.984375 Z M 6.96875 0.421875 C 4.71875 0.421875 2.898438 -0.28125 1.515625 -1.6875 C 0.128906 -3.09375 -0.5625 -5.203125 -0.5625 -8.015625 C -0.5625 -9.191406 -0.375 -10.71875 0 -12.59375 L 4.78125 -35.1875 L 14.921875 -35.1875 L 9.84375 -11.25 C 9.65625 -10.550781 9.5625 -9.800781 9.5625 -9 C 9.5625 -8.0625 9.785156 -7.394531 10.234375 -7 C 10.679688 -6.601562 11.421875 -6.40625 12.453125 -6.40625 C 13.816406 -6.40625 15.082031 -6.976562 16.25 -8.125 C 17.425781 -9.269531 18.269531 -10.757812 18.78125 -12.59375 L 21.734375 -12.59375 C 20.003906 -7.53125 17.773438 -4.09375 15.046875 -2.28125 C 12.328125 -0.476562 9.632812 0.421875 6.96875 0.421875 Z M 6.96875 0.421875 "/></g></g></g><g fill="#526554" fill-opacity="1"><g transform="translate(670.950423, 257.128235)"><g><path d="M 8.4375 0.421875 C 5.769531 0.421875 3.539062 -0.488281 1.75 -2.3125 C -0.03125 -4.144531 -0.921875 -7.007812 -0.921875 -10.90625 C -0.921875 -14.375 -0.226562 -18.019531 1.15625 -21.84375 C 2.539062 -25.664062 4.601562 -28.898438 7.34375 -31.546875 C 10.09375 -34.203125 13.367188 -35.53125 17.171875 -35.53125 C 19.085938 -35.53125 20.515625 -35.203125 21.453125 -34.546875 C 22.390625 -33.890625 22.859375 -33.019531 22.859375 -31.9375 L 22.859375 -31.453125 L 23.640625 -35.1875 L 33.765625 -35.1875 L 28.703125 -11.25 C 28.515625 -10.550781 28.421875 -9.800781 28.421875 -9 C 28.421875 -6.988281 29.382812 -5.984375 31.3125 -5.984375 C 32.625 -5.984375 33.757812 -6.59375 34.71875 -7.8125 C 35.6875 -9.03125 36.453125 -10.625 37.015625 -12.59375 L 39.96875 -12.59375 C 38.226562 -7.53125 36.078125 -4.09375 33.515625 -2.28125 C 30.960938 -0.476562 28.398438 0.421875 25.828125 0.421875 C 23.847656 0.421875 22.257812 -0.128906 21.0625 -1.234375 C 19.875 -2.335938 19.160156 -3.941406 18.921875 -6.046875 C 17.566406 -4.128906 16.054688 -2.570312 14.390625 -1.375 C 12.722656 -0.175781 10.738281 0.421875 8.4375 0.421875 Z M 13.015625 -6.40625 C 14.191406 -6.40625 15.351562 -6.953125 16.5 -8.046875 C 17.644531 -9.148438 18.429688 -10.664062 18.859375 -12.59375 L 22.234375 -28.5 C 22.234375 -29.101562 22 -29.695312 21.53125 -30.28125 C 21.0625 -30.875 20.332031 -31.171875 19.34375 -31.171875 C 17.46875 -31.171875 15.78125 -30.078125 14.28125 -27.890625 C 12.78125 -25.710938 11.609375 -23.085938 10.765625 -20.015625 C 9.921875 -16.941406 9.5 -14.234375 9.5 -11.890625 C 9.5 -9.546875 9.835938 -8.046875 10.515625 -7.390625 C 11.191406 -6.734375 12.023438 -6.40625 13.015625 -6.40625 Z M 13.015625 -6.40625 "/></g></g></g><g fill="#526554" fill-opacity="1"><g transform="translate(704.275633, 257.128235)"><g/></g></g><g fill="#526554" fill-opacity="1"><g transform="translate(715.873886, 257.128235)"><g><path d="M 24.984375 0.5 C 20.335938 0.5 16.828125 -0.632812 14.453125 -2.90625 C 12.085938 -5.1875 10.90625 -8.554688 10.90625 -13.015625 C 10.90625 -15.222656 11.234375 -17.6875 11.890625 -20.40625 L 19.0625 -48.96875 C 15.03125 -47.894531 11.890625 -45.984375 9.640625 -43.234375 C 7.390625 -40.492188 6.265625 -37.476562 6.265625 -34.1875 C 6.265625 -31.894531 6.875 -29.671875 8.09375 -27.515625 C 5.414062 -27.515625 3.335938 -28.171875 1.859375 -29.484375 C 0.378906 -30.796875 -0.359375 -32.644531 -0.359375 -35.03125 C -0.359375 -38.082031 0.867188 -41.003906 3.328125 -43.796875 C 5.796875 -46.585938 9.070312 -48.828125 13.15625 -50.515625 C 17.238281 -52.203125 21.554688 -53.046875 26.109375 -53.046875 C 27.703125 -53.046875 29.015625 -52.929688 30.046875 -52.703125 L 21.453125 -20.1875 C 20.660156 -17.238281 20.265625 -14.707031 20.265625 -12.59375 C 20.265625 -8.132812 22.09375 -5.90625 25.75 -5.90625 C 31 -5.90625 34.632812 -10.738281 36.65625 -20.40625 L 43.6875 -52.90625 L 53.609375 -52.90625 L 46.78125 -20.40625 C 45.28125 -13.507812 42.6875 -8.300781 39 -4.78125 C 35.320312 -1.257812 30.648438 0.5 24.984375 0.5 Z M 24.984375 0.5 "/></g></g></g><g fill="#526554" fill-opacity="1"><g transform="translate(762.558727, 257.128235)"><g><path d="M 8.015625 0.421875 C 5.765625 0.421875 3.863281 -0.0078125 2.3125 -0.875 C 0.769531 -1.75 -0.375 -2.875 -1.125 -4.25 C -1.875 -5.632812 -2.25 -7.078125 -2.25 -8.578125 C -2.25 -10.128906 -1.882812 -11.476562 -1.15625 -12.625 C -0.4375 -13.78125 0.441406 -14.613281 1.484375 -15.125 C 3.304688 -18.40625 4.894531 -21.722656 6.25 -25.078125 C 7.613281 -28.429688 8.90625 -32.054688 10.125 -35.953125 L 20.546875 -37.359375 C 20.773438 -31.359375 21.171875 -24.863281 21.734375 -17.875 C 21.972656 -15.0625 22.09375 -13.019531 22.09375 -11.75 C 22.09375 -10.664062 22 -9.773438 21.8125 -9.078125 C 24.019531 -10.335938 25.707031 -11.507812 26.875 -12.59375 L 29.828125 -12.59375 C 26.828125 -9.125 23.238281 -6.191406 19.0625 -3.796875 C 17.707031 -2.347656 16.03125 -1.28125 14.03125 -0.59375 C 12.039062 0.0820312 10.035156 0.421875 8.015625 0.421875 Z M 5.765625 -5.140625 C 7.503906 -5.140625 8.957031 -5.65625 10.125 -6.6875 C 11.300781 -7.71875 11.890625 -9.378906 11.890625 -11.671875 C 11.890625 -13.085938 11.75 -15.0625 11.46875 -17.59375 C 11 -22.9375 10.691406 -26.523438 10.546875 -28.359375 C 9.421875 -24.648438 7.523438 -20.21875 4.859375 -15.0625 C 5.929688 -14.5 6.46875 -13.675781 6.46875 -12.59375 C 6.46875 -11.695312 6.175781 -10.894531 5.59375 -10.1875 C 5.007812 -9.488281 4.269531 -9.140625 3.375 -9.140625 C 2.394531 -9.140625 1.765625 -9.445312 1.484375 -10.0625 C 1.484375 -8.375 1.820312 -7.128906 2.5 -6.328125 C 3.175781 -5.535156 4.265625 -5.140625 5.765625 -5.140625 Z M 5.765625 -5.140625 "/></g></g></g><g fill="#526554" fill-opacity="1"><g transform="translate(785.758797, 257.128235)"><g><path d="M 8.4375 0.421875 C 5.769531 0.421875 3.539062 -0.488281 1.75 -2.3125 C -0.03125 -4.144531 -0.921875 -7.007812 -0.921875 -10.90625 C -0.921875 -14.375 -0.226562 -18.019531 1.15625 -21.84375 C 2.539062 -25.664062 4.601562 -28.898438 7.34375 -31.546875 C 10.09375 -34.203125 13.367188 -35.53125 17.171875 -35.53125 C 19.085938 -35.53125 20.515625 -35.203125 21.453125 -34.546875 C 22.390625 -33.890625 22.859375 -33.019531 22.859375 -31.9375 L 22.859375 -31.453125 L 23.640625 -35.1875 L 33.765625 -35.1875 L 28.703125 -11.25 C 28.515625 -10.550781 28.421875 -9.800781 28.421875 -9 C 28.421875 -6.988281 29.382812 -5.984375 31.3125 -5.984375 C 32.625 -5.984375 33.757812 -6.59375 34.71875 -7.8125 C 35.6875 -9.03125 36.453125 -10.625 37.015625 -12.59375 L 39.96875 -12.59375 C 38.226562 -7.53125 36.078125 -4.09375 33.515625 -2.28125 C 30.960938 -0.476562 28.398438 0.421875 25.828125 0.421875 C 23.847656 0.421875 22.257812 -0.128906 21.0625 -1.234375 C 19.875 -2.335938 19.160156 -3.941406 18.921875 -6.046875 C 17.566406 -4.128906 16.054688 -2.570312 14.390625 -1.375 C 12.722656 -0.175781 10.738281 0.421875 8.4375 0.421875 Z M 13.015625 -6.40625 C 14.191406 -6.40625 15.351562 -6.953125 16.5 -8.046875 C 17.644531 -9.148438 18.429688 -10.664062 18.859375 -12.59375 L 22.234375 -28.5 C 22.234375 -29.101562 22 -29.695312 21.53125 -30.28125 C 21.0625 -30.875 20.332031 -31.171875 19.34375 -31.171875 C 17.46875 -31.171875 15.78125 -30.078125 14.28125 -27.890625 C 12.78125 -25.710938 11.609375 -23.085938 10.765625 -20.015625 C 9.921875 -16.941406 9.5 -14.234375 9.5 -11.890625 C 9.5 -9.546875 9.835938 -8.046875 10.515625 -7.390625 C 11.191406 -6.734375 12.023438 -6.40625 13.015625 -6.40625 Z M 13.015625 -6.40625 "/></g></g></g><g fill="#526554" fill-opacity="1"><g transform="translate(819.084007, 257.128235)"><g><path d="M 12.453125 17.59375 C 10.203125 17.59375 8.328125 17.003906 6.828125 15.828125 C 5.328125 14.660156 4.578125 12.972656 4.578125 10.765625 C 4.578125 8.085938 5.65625 5.941406 7.8125 4.328125 C 9.96875 2.710938 12.710938 1.363281 16.046875 0.28125 L 16.890625 -3.453125 C 14.492188 -0.867188 11.675781 0.421875 8.4375 0.421875 C 5.769531 0.421875 3.539062 -0.488281 1.75 -2.3125 C -0.03125 -4.144531 -0.921875 -7.007812 -0.921875 -10.90625 C -0.921875 -14.375 -0.226562 -18.019531 1.15625 -21.84375 C 2.539062 -25.664062 4.601562 -28.898438 7.34375 -31.546875 C 10.09375 -34.203125 13.367188 -35.53125 17.171875 -35.53125 C 19.085938 -35.53125 20.515625 -35.203125 21.453125 -34.546875 C 22.390625 -33.890625 22.859375 -33.019531 22.859375 -31.9375 L 22.859375 -31.515625 L 23.640625 -35.1875 L 33.765625 -35.1875 L 26.8125 -2.53125 C 29.0625 -3.28125 30.863281 -4.40625 32.21875 -5.90625 C 33.582031 -7.40625 34.734375 -9.632812 35.671875 -12.59375 L 38.625 -12.59375 C 37.363281 -8.414062 35.648438 -5.351562 33.484375 -3.40625 C 31.328125 -1.46875 28.890625 -0.144531 26.171875 0.5625 L 25.125 5.625 C 24.1875 10.175781 22.566406 13.304688 20.265625 15.015625 C 17.960938 16.734375 15.359375 17.59375 12.453125 17.59375 Z M 13.015625 -6.40625 C 14.097656 -6.40625 15.203125 -6.894531 16.328125 -7.875 C 17.453125 -8.863281 18.222656 -10.203125 18.640625 -11.890625 L 22.234375 -28.5625 C 22.234375 -29.125 22 -29.695312 21.53125 -30.28125 C 21.0625 -30.875 20.332031 -31.171875 19.34375 -31.171875 C 17.46875 -31.171875 15.78125 -30.078125 14.28125 -27.890625 C 12.78125 -25.710938 11.609375 -23.085938 10.765625 -20.015625 C 9.921875 -16.941406 9.5 -14.234375 9.5 -11.890625 C 9.5 -9.546875 9.835938 -8.046875 10.515625 -7.390625 C 11.191406 -6.734375 12.023438 -6.40625 13.015625 -6.40625 Z M 10.828125 12.109375 C 11.628906 12.109375 12.40625 11.566406 13.15625 10.484375 C 13.90625 9.398438 14.492188 7.851562 14.921875 5.84375 L 15.34375 3.796875 C 10.738281 5.484375 8.4375 7.476562 8.4375 9.78125 C 8.4375 10.382812 8.644531 10.921875 9.0625 11.390625 C 9.488281 11.867188 10.078125 12.109375 10.828125 12.109375 Z M 10.828125 12.109375 "/></g></g></g><g fill="#526554" fill-opacity="1"><g transform="translate(851.07329, 257.128235)"><g><path d="M 10.0625 0.421875 C 6.59375 0.421875 3.894531 -0.476562 1.96875 -2.28125 C 0.0390625 -4.09375 -0.921875 -6.921875 -0.921875 -10.765625 C -0.921875 -14.003906 -0.285156 -17.566406 0.984375 -21.453125 C 2.253906 -25.347656 4.316406 -28.710938 7.171875 -31.546875 C 10.035156 -34.390625 13.671875 -35.8125 18.078125 -35.8125 C 23.242188 -35.8125 25.828125 -33.5625 25.828125 -29.0625 C 25.828125 -26.4375 25.070312 -24.019531 23.5625 -21.8125 C 22.0625 -19.601562 20.066406 -17.832031 17.578125 -16.5 C 15.097656 -15.164062 12.453125 -14.40625 9.640625 -14.21875 C 9.546875 -12.8125 9.5 -11.867188 9.5 -11.390625 C 9.5 -9.097656 9.894531 -7.539062 10.6875 -6.71875 C 11.488281 -5.894531 12.78125 -5.484375 14.5625 -5.484375 C 17.09375 -5.484375 19.257812 -6.066406 21.0625 -7.234375 C 22.875 -8.410156 24.859375 -10.195312 27.015625 -12.59375 L 29.40625 -12.59375 C 24.195312 -3.914062 17.75 0.421875 10.0625 0.421875 Z M 10.203125 -17.59375 C 11.941406 -17.6875 13.59375 -18.296875 15.15625 -19.421875 C 16.726562 -20.546875 17.992188 -21.972656 18.953125 -23.703125 C 19.921875 -25.441406 20.40625 -27.273438 20.40625 -29.203125 C 20.40625 -31.117188 19.816406 -32.078125 18.640625 -32.078125 C 16.953125 -32.078125 15.296875 -30.597656 13.671875 -27.640625 C 12.054688 -24.691406 10.898438 -21.34375 10.203125 -17.59375 Z M 10.203125 -17.59375 "/></g></g></g><g fill="#526554" fill-opacity="1"><g transform="translate(385.444936, 352.468856)"><g><path d="M 22.578125 -48.34375 C 19.015625 -47.164062 16.257812 -45.226562 14.3125 -42.53125 C 12.363281 -39.832031 11.390625 -36.488281 11.390625 -32.5 C 11.390625 -30.71875 11.554688 -29.5 11.890625 -28.84375 C 12.222656 -28.1875 12.390625 -27.789062 12.390625 -27.65625 C 7.367188 -27.65625 4.859375 -29.785156 4.859375 -34.046875 C 4.859375 -36.960938 5.96875 -39.882812 8.1875 -42.8125 C 10.414062 -45.75 13.273438 -48.140625 16.765625 -49.984375 C 20.265625 -51.835938 23.753906 -52.765625 27.234375 -52.765625 C 28.960938 -52.765625 30.742188 -52.4375 32.578125 -51.78125 L 30.953125 -14.703125 L 46.4375 -51.78125 L 56.5625 -51.78125 L 49.1875 0 L 39.046875 0 L 43.546875 -31.59375 L 30.328125 0 L 20.6875 0 L 22.09375 -31.734375 L 10.34375 0 L 4.71875 0 Z M 22.578125 -48.34375 "/></g></g></g><g fill="#526554" fill-opacity="1"><g transform="translate(437.121995, 352.468856)"><g><path d="M 10.0625 0.421875 C 6.59375 0.421875 3.894531 -0.476562 1.96875 -2.28125 C 0.0390625 -4.09375 -0.921875 -6.921875 -0.921875 -10.765625 C -0.921875 -14.003906 -0.285156 -17.566406 0.984375 -21.453125 C 2.253906 -25.347656 4.316406 -28.710938 7.171875 -31.546875 C 10.035156 -34.390625 13.671875 -35.8125 18.078125 -35.8125 C 23.242188 -35.8125 25.828125 -33.5625 25.828125 -29.0625 C 25.828125 -26.4375 25.070312 -24.019531 23.5625 -21.8125 C 22.0625 -19.601562 20.066406 -17.832031 17.578125 -16.5 C 15.097656 -15.164062 12.453125 -14.40625 9.640625 -14.21875 C 9.546875 -12.8125 9.5 -11.867188 9.5 -11.390625 C 9.5 -9.097656 9.894531 -7.539062 10.6875 -6.71875 C 11.488281 -5.894531 12.78125 -5.484375 14.5625 -5.484375 C 17.09375 -5.484375 19.257812 -6.066406 21.0625 -7.234375 C 22.875 -8.410156 24.859375 -10.195312 27.015625 -12.59375 L 29.40625 -12.59375 C 24.195312 -3.914062 17.75 0.421875 10.0625 0.421875 Z M 10.203125 -17.59375 C 11.941406 -17.6875 13.59375 -18.296875 15.15625 -19.421875 C 16.726562 -20.546875 17.992188 -21.972656 18.953125 -23.703125 C 19.921875 -25.441406 20.40625 -27.273438 20.40625 -29.203125 C 20.40625 -31.117188 19.816406 -32.078125 18.640625 -32.078125 C 16.953125 -32.078125 15.296875 -30.597656 13.671875 -27.640625 C 12.054688 -24.691406 10.898438 -21.34375 10.203125 -17.59375 Z M 10.203125 -17.59375 "/></g></g></g><g fill="#526554" fill-opacity="1"><g transform="translate(460.462656, 352.468856)"><g><path d="M 25.40625 0.421875 C 22.539062 0.421875 20.4375 -0.335938 19.09375 -1.859375 C 17.757812 -3.390625 17.09375 -5.28125 17.09375 -7.53125 C 17.09375 -8.507812 17.207031 -9.617188 17.4375 -10.859375 C 17.675781 -12.109375 17.925781 -13.316406 18.1875 -14.484375 C 18.445312 -15.660156 18.625 -16.414062 18.71875 -16.75 C 19.09375 -18.382812 19.441406 -20 19.765625 -21.59375 C 20.097656 -23.195312 20.265625 -24.488281 20.265625 -25.46875 C 20.265625 -27.863281 19.421875 -29.0625 17.734375 -29.0625 C 16.515625 -29.0625 15.4375 -28.460938 14.5 -27.265625 C 13.5625 -26.066406 12.8125 -24.503906 12.25 -22.578125 L 7.453125 0 L -2.671875 0 L 4.78125 -35.1875 L 14.921875 -35.1875 L 14.140625 -31.515625 C 16.484375 -34.148438 19.226562 -35.46875 22.375 -35.46875 C 24.769531 -35.46875 26.671875 -34.804688 28.078125 -33.484375 C 29.484375 -32.171875 30.1875 -30.179688 30.1875 -27.515625 C 30.1875 -26.148438 30.019531 -24.632812 29.6875 -22.96875 C 29.363281 -21.300781 28.894531 -19.273438 28.28125 -16.890625 C 27.90625 -15.429688 27.566406 -14.007812 27.265625 -12.625 C 26.960938 -11.238281 26.8125 -10.148438 26.8125 -9.359375 C 26.8125 -8.421875 27.019531 -7.691406 27.4375 -7.171875 C 27.863281 -6.660156 28.59375 -6.40625 29.625 -6.40625 C 31.03125 -6.40625 32.15625 -6.90625 33 -7.90625 C 33.84375 -8.914062 34.6875 -10.476562 35.53125 -12.59375 L 38.484375 -12.59375 C 36.753906 -7.4375 34.75 -3.976562 32.46875 -2.21875 C 30.195312 -0.457031 27.84375 0.421875 25.40625 0.421875 Z M 25.40625 0.421875 "/></g></g></g><g fill="#526554" fill-opacity="1"><g transform="translate(492.311252, 352.468856)"><g><path d="M 6.96875 0.421875 C 4.71875 0.421875 2.898438 -0.28125 1.515625 -1.6875 C 0.128906 -3.09375 -0.5625 -5.203125 -0.5625 -8.015625 C -0.5625 -9.191406 -0.375 -10.71875 0 -12.59375 L 4.21875 -32.359375 L 1.90625 -32.359375 L 2.46875 -35.1875 L 4.78125 -35.1875 L 6.890625 -44.890625 L 17.3125 -46.296875 L 14.921875 -35.1875 L 19.140625 -35.1875 L 18.578125 -32.359375 L 14.359375 -32.359375 L 9.84375 -11.25 C 9.65625 -10.550781 9.5625 -9.800781 9.5625 -9 C 9.5625 -8.0625 9.785156 -7.394531 10.234375 -7 C 10.679688 -6.601562 11.421875 -6.40625 12.453125 -6.40625 C 13.816406 -6.40625 15.082031 -6.976562 16.25 -8.125 C 17.425781 -9.269531 18.269531 -10.757812 18.78125 -12.59375 L 21.734375 -12.59375 C 20.003906 -7.53125 17.773438 -4.09375 15.046875 -2.28125 C 12.328125 -0.476562 9.632812 0.421875 6.96875 0.421875 Z M 6.96875 0.421875 "/></g></g></g><g fill="#526554" fill-opacity="1"><g transform="translate(507.425196, 352.468856)"><g><path d="M 8.4375 0.421875 C 5.769531 0.421875 3.539062 -0.488281 1.75 -2.3125 C -0.03125 -4.144531 -0.921875 -7.007812 -0.921875 -10.90625 C -0.921875 -14.375 -0.226562 -18.019531 1.15625 -21.84375 C 2.539062 -25.664062 4.601562 -28.898438 7.34375 -31.546875 C 10.09375 -34.203125 13.367188 -35.53125 17.171875 -35.53125 C 19.085938 -35.53125 20.515625 -35.203125 21.453125 -34.546875 C 22.390625 -33.890625 22.859375 -33.019531 22.859375 -31.9375 L 22.859375 -31.453125 L 23.640625 -35.1875 L 33.765625 -35.1875 L 28.703125 -11.25 C 28.515625 -10.550781 28.421875 -9.800781 28.421875 -9 C 28.421875 -6.988281 29.382812 -5.984375 31.3125 -5.984375 C 32.625 -5.984375 33.757812 -6.59375 34.71875 -7.8125 C 35.6875 -9.03125 36.453125 -10.625 37.015625 -12.59375 L 39.96875 -12.59375 C 38.226562 -7.53125 36.078125 -4.09375 33.515625 -2.28125 C 30.960938 -0.476562 28.398438 0.421875 25.828125 0.421875 C 23.847656 0.421875 22.257812 -0.128906 21.0625 -1.234375 C 19.875 -2.335938 19.160156 -3.941406 18.921875 -6.046875 C 17.566406 -4.128906 16.054688 -2.570312 14.390625 -1.375 C 12.722656 -0.175781 10.738281 0.421875 8.4375 0.421875 Z M 13.015625 -6.40625 C 14.191406 -6.40625 15.351562 -6.953125 16.5 -8.046875 C 17.644531 -9.148438 18.429688 -10.664062 18.859375 -12.59375 L 22.234375 -28.5 C 22.234375 -29.101562 22 -29.695312 21.53125 -30.28125 C 21.0625 -30.875 20.332031 -31.171875 19.34375 -31.171875 C 17.46875 -31.171875 15.78125 -30.078125 14.28125 -27.890625 C 12.78125 -25.710938 11.609375 -23.085938 10.765625 -20.015625 C 9.921875 -16.941406 9.5 -14.234375 9.5 -11.890625 C 9.5 -9.546875 9.835938 -8.046875 10.515625 -7.390625 C 11.191406 -6.734375 12.023438 -6.40625 13.015625 -6.40625 Z M 13.015625 -6.40625 "/></g></g></g><g fill="#526554" fill-opacity="1"><g transform="translate(540.750397, 352.468856)"><g><path d="M 6.96875 0.421875 C 4.71875 0.421875 2.898438 -0.28125 1.515625 -1.6875 C 0.128906 -3.09375 -0.5625 -5.203125 -0.5625 -8.015625 C -0.5625 -9.191406 -0.375 -10.71875 0 -12.59375 L 7.53125 -47.84375 L 17.9375 -49.25 L 9.84375 -11.25 C 9.65625 -10.550781 9.5625 -9.800781 9.5625 -9 C 9.5625 -8.0625 9.785156 -7.394531 10.234375 -7 C 10.679688 -6.601562 11.421875 -6.40625 12.453125 -6.40625 C 13.816406 -6.40625 15.082031 -6.976562 16.25 -8.125 C 17.425781 -9.269531 18.269531 -10.757812 18.78125 -12.59375 L 21.734375 -12.59375 C 20.003906 -7.53125 17.773438 -4.09375 15.046875 -2.28125 C 12.328125 -0.476562 9.632812 0.421875 6.96875 0.421875 Z M 6.96875 0.421875 "/></g></g></g><g fill="#526554" fill-opacity="1"><g transform="translate(555.864332, 352.468856)"><g/></g></g><g fill="#526554" fill-opacity="1"><g transform="translate(567.462567, 352.468856)"><g><path d="M 17.234375 -47.84375 C 14.097656 -46.53125 11.671875 -44.5625 9.953125 -41.9375 C 8.242188 -39.3125 7.390625 -36.144531 7.390625 -32.4375 C 7.390625 -30.695312 7.550781 -29.488281 7.875 -28.8125 C 8.207031 -28.132812 8.375 -27.75 8.375 -27.65625 C 5.84375 -27.65625 3.953125 -28.179688 2.703125 -29.234375 C 1.460938 -30.285156 0.84375 -32.03125 0.84375 -34.46875 C 0.84375 -37.476562 2.070312 -40.398438 4.53125 -43.234375 C 7 -46.078125 10.15625 -48.375 14 -50.125 C 17.84375 -51.882812 21.691406 -52.765625 25.546875 -52.765625 C 26.203125 -52.765625 27.140625 -52.71875 28.359375 -52.625 L 23.859375 -31.65625 L 34.1875 -31.65625 L 38.703125 -52.625 L 48.828125 -52.625 L 37.640625 0 L 27.515625 0 L 33.140625 -26.453125 L 22.796875 -26.453125 L 17.171875 0 L 7.03125 0 Z M 17.234375 -47.84375 "/></g></g></g><g fill="#526554" fill-opacity="1"><g transform="translate(610.561351, 352.468856)"><g><path d="M 10.0625 0.421875 C 6.59375 0.421875 3.894531 -0.476562 1.96875 -2.28125 C 0.0390625 -4.09375 -0.921875 -6.921875 -0.921875 -10.765625 C -0.921875 -14.003906 -0.285156 -17.566406 0.984375 -21.453125 C 2.253906 -25.347656 4.316406 -28.710938 7.171875 -31.546875 C 10.035156 -34.390625 13.671875 -35.8125 18.078125 -35.8125 C 23.242188 -35.8125 25.828125 -33.5625 25.828125 -29.0625 C 25.828125 -26.4375 25.070312 -24.019531 23.5625 -21.8125 C 22.0625 -19.601562 20.066406 -17.832031 17.578125 -16.5 C 15.097656 -15.164062 12.453125 -14.40625 9.640625 -14.21875 C 9.546875 -12.8125 9.5 -11.867188 9.5 -11.390625 C 9.5 -9.097656 9.894531 -7.539062 10.6875 -6.71875 C 11.488281 -5.894531 12.78125 -5.484375 14.5625 -5.484375 C 17.09375 -5.484375 19.257812 -6.066406 21.0625 -7.234375 C 22.875 -8.410156 24.859375 -10.195312 27.015625 -12.59375 L 29.40625 -12.59375 C 24.195312 -3.914062 17.75 0.421875 10.0625 0.421875 Z M 10.203125 -17.59375 C 11.941406 -17.6875 13.59375 -18.296875 15.15625 -19.421875 C 16.726562 -20.546875 17.992188 -21.972656 18.953125 -23.703125 C 19.921875 -25.441406 20.40625 -27.273438 20.40625 -29.203125 C 20.40625 -31.117188 19.816406 -32.078125 18.640625 -32.078125 C 16.953125 -32.078125 15.296875 -30.597656 13.671875 -27.640625 C 12.054688 -24.691406 10.898438 -21.34375 10.203125 -17.59375 Z M 10.203125 -17.59375 "/></g></g></g><g fill="#526554" fill-opacity="1"><g transform="translate(633.902007, 352.468856)"><g><path d="M 8.4375 0.421875 C 5.769531 0.421875 3.539062 -0.488281 1.75 -2.3125 C -0.03125 -4.144531 -0.921875 -7.007812 -0.921875 -10.90625 C -0.921875 -14.375 -0.226562 -18.019531 1.15625 -21.84375 C 2.539062 -25.664062 4.601562 -28.898438 7.34375 -31.546875 C 10.09375 -34.203125 13.367188 -35.53125 17.171875 -35.53125 C 19.085938 -35.53125 20.515625 -35.203125 21.453125 -34.546875 C 22.390625 -33.890625 22.859375 -33.019531 22.859375 -31.9375 L 22.859375 -31.453125 L 23.640625 -35.1875 L 33.765625 -35.1875 L 28.703125 -11.25 C 28.515625 -10.550781 28.421875 -9.800781 28.421875 -9 C 28.421875 -6.988281 29.382812 -5.984375 31.3125 -5.984375 C 32.625 -5.984375 33.757812 -6.59375 34.71875 -7.8125 C 35.6875 -9.03125 36.453125 -10.625 37.015625 -12.59375 L 39.96875 -12.59375 C 38.226562 -7.53125 36.078125 -4.09375 33.515625 -2.28125 C 30.960938 -0.476562 28.398438 0.421875 25.828125 0.421875 C 23.847656 0.421875 22.257812 -0.128906 21.0625 -1.234375 C 19.875 -2.335938 19.160156 -3.941406 18.921875 -6.046875 C 17.566406 -4.128906 16.054688 -2.570312 14.390625 -1.375 C 12.722656 -0.175781 10.738281 0.421875 8.4375 0.421875 Z M 13.015625 -6.40625 C 14.191406 -6.40625 15.351562 -6.953125 16.5 -8.046875 C 17.644531 -9.148438 18.429688 -10.664062 18.859375 -12.59375 L 22.234375 -28.5 C 22.234375 -29.101562 22 -29.695312 21.53125 -30.28125 C 21.0625 -30.875 20.332031 -31.171875 19.34375 -31.171875 C 17.46875 -31.171875 15.78125 -30.078125 14.28125 -27.890625 C 12.78125 -25.710938 11.609375 -23.085938 10.765625 -20.015625 C 9.921875 -16.941406 9.5 -14.234375 9.5 -11.890625 C 9.5 -9.546875 9.835938 -8.046875 10.515625 -7.390625 C 11.191406 -6.734375 12.023438 -6.40625 13.015625 -6.40625 Z M 13.015625 -6.40625 "/></g></g></g><g fill="#526554" fill-opacity="1"><g transform="translate(667.227199, 352.468856)"><g><path d="M 6.96875 0.421875 C 4.71875 0.421875 2.898438 -0.28125 1.515625 -1.6875 C 0.128906 -3.09375 -0.5625 -5.203125 -0.5625 -8.015625 C -0.5625 -9.191406 -0.375 -10.71875 0 -12.59375 L 7.53125 -47.84375 L 17.9375 -49.25 L 9.84375 -11.25 C 9.65625 -10.550781 9.5625 -9.800781 9.5625 -9 C 9.5625 -8.0625 9.785156 -7.394531 10.234375 -7 C 10.679688 -6.601562 11.421875 -6.40625 12.453125 -6.40625 C 13.816406 -6.40625 15.082031 -6.976562 16.25 -8.125 C 17.425781 -9.269531 18.269531 -10.757812 18.78125 -12.59375 L 21.734375 -12.59375 C 20.003906 -7.53125 17.773438 -4.09375 15.046875 -2.28125 C 12.328125 -0.476562 9.632812 0.421875 6.96875 0.421875 Z M 6.96875 0.421875 "/></g></g></g><g fill="#526554" fill-opacity="1"><g transform="translate(682.341134, 352.468856)"><g><path d="M 6.96875 0.421875 C 4.71875 0.421875 2.898438 -0.28125 1.515625 -1.6875 C 0.128906 -3.09375 -0.5625 -5.203125 -0.5625 -8.015625 C -0.5625 -9.191406 -0.375 -10.71875 0 -12.59375 L 4.21875 -32.359375 L 1.90625 -32.359375 L 2.46875 -35.1875 L 4.78125 -35.1875 L 6.890625 -44.890625 L 17.3125 -46.296875 L 14.921875 -35.1875 L 19.140625 -35.1875 L 18.578125 -32.359375 L 14.359375 -32.359375 L 9.84375 -11.25 C 9.65625 -10.550781 9.5625 -9.800781 9.5625 -9 C 9.5625 -8.0625 9.785156 -7.394531 10.234375 -7 C 10.679688 -6.601562 11.421875 -6.40625 12.453125 -6.40625 C 13.816406 -6.40625 15.082031 -6.976562 16.25 -8.125 C 17.425781 -9.269531 18.269531 -10.757812 18.78125 -12.59375 L 21.734375 -12.59375 C 20.003906 -7.53125 17.773438 -4.09375 15.046875 -2.28125 C 12.328125 -0.476562 9.632812 0.421875 6.96875 0.421875 Z M 6.96875 0.421875 "/></g></g></g><g fill="#526554" fill-opacity="1"><g transform="translate(697.455069, 352.468856)"><g><path d="M 25.40625 0.421875 C 22.539062 0.421875 20.4375 -0.335938 19.09375 -1.859375 C 17.757812 -3.390625 17.09375 -5.28125 17.09375 -7.53125 C 17.09375 -8.507812 17.207031 -9.617188 17.4375 -10.859375 C 17.675781 -12.109375 17.925781 -13.316406 18.1875 -14.484375 C 18.445312 -15.660156 18.625 -16.414062 18.71875 -16.75 C 19.09375 -18.382812 19.441406 -20 19.765625 -21.59375 C 20.097656 -23.195312 20.265625 -24.488281 20.265625 -25.46875 C 20.265625 -27.863281 19.421875 -29.0625 17.734375 -29.0625 C 16.515625 -29.0625 15.4375 -28.460938 14.5 -27.265625 C 13.5625 -26.066406 12.8125 -24.503906 12.25 -22.578125 L 7.453125 0 L -2.671875 0 L 7.53125 -47.84375 L 17.9375 -49.25 L 14.140625 -31.515625 C 16.484375 -34.148438 19.226562 -35.46875 22.375 -35.46875 C 24.769531 -35.46875 26.671875 -34.804688 28.078125 -33.484375 C 29.484375 -32.171875 30.1875 -30.179688 30.1875 -27.515625 C 30.1875 -26.148438 30.019531 -24.632812 29.6875 -22.96875 C 29.363281 -21.300781 28.894531 -19.273438 28.28125 -16.890625 C 27.90625 -15.429688 27.566406 -14.007812 27.265625 -12.625 C 26.960938 -11.238281 26.8125 -10.148438 26.8125 -9.359375 C 26.8125 -8.421875 27.019531 -7.691406 27.4375 -7.171875 C 27.863281 -6.660156 28.59375 -6.40625 29.625 -6.40625 C 31.03125 -6.40625 32.15625 -6.90625 33 -7.90625 C 33.84375 -8.914062 34.6875 -10.476562 35.53125 -12.59375 L 38.484375 -12.59375 C 36.753906 -7.4375 34.75 -3.976562 32.46875 -2.21875 C 30.195312 -0.457031 27.84375 0.421875 25.40625 0.421875 Z M 25.40625 0.421875 "/></g></g></g><g fill="#bfd9c2" fill-opacity="1"><g transform="translate(182.974384, 402.408749)"><g><path d="M 207.75 -128.0625 C 208.375 -125.53125 208.6875 -123.109375 208.6875 -120.796875 C 208.6875 -113.410156 205.894531 -106.453125 200.3125 -99.921875 C 194.726562 -93.390625 187.71875 -88.75 179.28125 -86 C 175.695312 -84.945312 171.484375 -84.421875 166.640625 -84.421875 C 164.742188 -66.503906 159.421875 -50.75 150.671875 -37.15625 C 141.921875 -23.5625 130.484375 -13.019531 116.359375 -5.53125 C 102.234375 1.945312 86.425781 5.6875 68.9375 5.6875 C 48.90625 5.6875 33.144531 0.628906 21.65625 -9.484375 C 10.164062 -19.597656 4.421875 -33.300781 4.421875 -50.59375 C 4.421875 -62.1875 7.003906 -73.617188 12.171875 -84.890625 C 17.335938 -96.171875 24.398438 -105.921875 33.359375 -114.140625 C 42.316406 -122.367188 52.171875 -128.0625 62.921875 -131.21875 L 62.921875 -132.484375 C 56.390625 -137.960938 51.753906 -143.757812 49.015625 -149.875 C 46.273438 -155.988281 44.90625 -163.578125 44.90625 -172.640625 C 44.90625 -184.023438 48.015625 -194.722656 54.234375 -204.734375 C 60.453125 -214.753906 68.882812 -222.765625 79.53125 -228.765625 C 90.175781 -234.773438 101.71875 -237.78125 114.15625 -237.78125 C 128.488281 -237.78125 140.289062 -233.671875 149.5625 -225.453125 C 158.84375 -217.234375 163.484375 -206.800781 163.484375 -194.15625 C 163.484375 -185.507812 161.269531 -178.441406 156.84375 -172.953125 C 152.414062 -167.472656 146.617188 -164.734375 139.453125 -164.734375 C 131.441406 -164.734375 125.007812 -168.003906 120.15625 -174.546875 C 123.945312 -176.859375 127.054688 -180.4375 129.484375 -185.28125 C 131.910156 -190.132812 133.125 -195.300781 133.125 -200.78125 C 133.125 -206.6875 131.644531 -211.328125 128.6875 -214.703125 C 125.738281 -218.078125 121.734375 -219.765625 116.671875 -219.765625 C 111.191406 -219.765625 105.921875 -217.65625 100.859375 -213.4375 C 95.804688 -209.21875 91.75 -203.578125 88.6875 -196.515625 C 85.632812 -189.453125 84.109375 -182.023438 84.109375 -174.234375 C 84.109375 -163.691406 86.953125 -154.78125 92.640625 -147.5 C 98.335938 -140.226562 106.140625 -135.332031 116.046875 -132.8125 L 116.046875 -131.546875 C 106.140625 -129.640625 96.8125 -125.050781 88.0625 -117.78125 C 79.3125 -110.507812 72.351562 -101.65625 67.1875 -91.21875 C 62.03125 -80.789062 59.453125 -70.203125 59.453125 -59.453125 C 59.453125 -48.484375 62.191406 -39.941406 67.671875 -33.828125 C 73.148438 -27.710938 80.738281 -24.65625 90.4375 -24.65625 C 99.5 -24.65625 108.457031 -27.1875 117.3125 -32.25 C 126.164062 -37.3125 133.753906 -44.375 140.078125 -53.4375 C 146.398438 -62.5 150.613281 -72.722656 152.71875 -84.109375 C 148.082031 -84.109375 143.238281 -83.476562 138.1875 -82.21875 C 126.59375 -78.414062 118.265625 -72.828125 113.203125 -65.453125 L 112.25 -65.140625 C 109.9375 -68.085938 108.039062 -71.878906 106.5625 -76.515625 C 105.71875 -79.046875 105.296875 -81.789062 105.296875 -84.75 C 105.296875 -91.914062 107.820312 -98.34375 112.875 -104.03125 C 117.9375 -109.71875 124.265625 -113.722656 131.859375 -116.046875 C 137.753906 -117.734375 145.867188 -119 156.203125 -119.84375 C 163.160156 -120.257812 169.171875 -120.992188 174.234375 -122.046875 C 179.078125 -123.523438 183.972656 -126.003906 188.921875 -129.484375 C 193.878906 -132.960938 197.625 -136.390625 200.15625 -139.765625 L 200.78125 -139.765625 C 203.945312 -136.597656 206.269531 -132.695312 207.75 -128.0625 Z M 207.75 -128.0625 "/></g></g></g></svg>