<svg xmlns="http://www.w3.org/2000/svg" xmlns:xlink="http://www.w3.org/1999/xlink" width="500" zoomAndPan="magnify" viewBox="0 0 375 374.999991" height="500" preserveAspectRatio="xMidYMid meet" version="1.0"><defs><clipPath id="70075d5fe5"><path d="M 1 47 L 372 47 L 372 332.734375 L 1 332.734375 Z M 1 47 " clip-rule="nonzero"/></clipPath><clipPath id="fcdaf2891a"><path d="M 107 124 L 319 124 L 319 303 L 107 303 Z M 107 124 " clip-rule="nonzero"/></clipPath><clipPath id="0199f29469"><path d="M 92.671875 148.417969 L 299.289062 106.875 L 335.804688 288.492188 L 129.1875 330.035156 Z M 92.671875 148.417969 " clip-rule="nonzero"/></clipPath><clipPath id="a024d3553c"><path d="M 92.671875 148.417969 L 299.289062 106.875 L 335.804688 288.492188 L 129.1875 330.035156 Z M 92.671875 148.417969 " clip-rule="nonzero"/></clipPath></defs><g clip-path="url(#70075d5fe5)"><path fill="#a3c9a8" d="M 258.464844 332.175781 C 256.714844 326.800781 256.65625 320.347656 255.457031 314.734375 C 254.535156 310.125 253.230469 305.625 251.546875 301.234375 C 248.960938 294.769531 245.003906 288.855469 238.679688 285.589844 C 225.816406 278.921875 208.445312 282.320312 194.886719 284.335938 C 153.058594 290.554688 105.714844 295.933594 65 280.003906 C -15.460938 248.523438 -19.6875 122.691406 52.121094 79.355469 C 110.429688 44.171875 180.199219 42.714844 245.8125 51.761719 C 279.332031 56.378906 316.355469 63.789062 342.105469 87.445312 C 373.023438 115.867188 374.976562 161.144531 369.746094 199.972656 C 364.417969 239.539062 332.957031 263.09375 295.21875 270.933594 C 289.722656 272.078125 289.476562 280.066406 288.277344 284.425781 C 283.6875 301.078125 277.542969 326.585938 258.511719 332.335938 Z M 258.464844 332.175781 " fill-opacity="1" fill-rule="nonzero"/></g><g clip-path="url(#fcdaf2891a)"><g clip-path="url(#0199f29469)"><g clip-path="url(#a024d3553c)"><path fill="#576d70" d="M 310.859375 180.550781 C 307.492188 175.394531 303.144531 170.90625 297.960938 167.523438 C 296.835938 166.789062 295.578125 166.101562 294.25 165.527344 C 292.945312 159.132812 290.175781 153.152344 286.175781 148.144531 C 282.144531 143.097656 276.882812 139.027344 270.652344 136.5625 C 266.820312 135.042969 262.632812 133.984375 258.367188 133.492188 C 254.101562 133.019531 249.753906 133.109375 245.558594 133.953125 C 244.089844 134.246094 242.621094 134.640625 241.210938 135.121094 C 241.160156 135.070312 241.113281 135.023438 241.0625 134.972656 C 238.300781 132.433594 234.917969 130.296875 231.585938 128.636719 C 229.914062 127.816406 228.265625 127.113281 226.6875 126.566406 C 225.109375 126.023438 223.632812 125.597656 222.3125 125.351562 C 216.941406 124.339844 211.59375 124.511719 206.417969 125.554688 C 199.984375 126.847656 193.796875 129.480469 188.128906 132.832031 C 187.007812 133.488281 185.78125 134.304688 184.582031 135.25 C 178.164062 133.703125 171.535156 133.644531 165.191406 134.917969 C 157.027344 136.5625 149.300781 140.40625 142.992188 146.117188 C 140.410156 148.457031 136.683594 152.222656 133.757812 156.46875 C 132.308594 158.601562 131.039062 160.855469 130.246094 163.148438 C 130.160156 163.398438 130.074219 163.652344 130.011719 163.917969 C 126.539062 165.066406 123.402344 166.890625 120.65625 169.207031 C 115.488281 173.574219 111.65625 179.648438 109.453125 186.316406 C 107.253906 192.984375 106.652344 200.230469 108.007812 206.96875 C 108.601562 209.921875 109.566406 212.761719 110.9375 215.402344 C 110.742188 215.699219 110.570312 216.007812 110.414062 216.3125 C 109.378906 218.261719 108.789062 220.398438 108.570312 222.613281 C 108.347656 224.8125 108.492188 227.09375 108.941406 229.332031 C 109.75 233.359375 111.542969 237.304688 114.019531 240.664062 C 115.257812 242.335938 116.65625 243.855469 118.214844 245.167969 C 119.765625 246.460938 121.453125 247.550781 123.253906 248.324219 C 125.804688 249.433594 128.445312 250.097656 131.125 250.382812 C 133.804688 250.664062 136.507812 250.570312 139.183594 250.152344 C 139.714844 250.0625 140.082031 249.558594 139.996094 249.027344 C 139.910156 248.496094 139.402344 248.128906 138.875 248.214844 C 136.371094 248.621094 133.824219 248.703125 131.34375 248.4375 C 128.84375 248.179688 126.386719 247.554688 124.027344 246.523438 C 122.417969 245.828125 120.894531 244.863281 119.476562 243.660156 C 117.355469 241.875 115.46875 239.589844 114 237.066406 C 112.511719 234.527344 111.445312 231.746094 110.882812 228.960938 C 110.511719 227.117188 110.375 225.265625 110.488281 223.480469 C 110.570312 222.152344 110.800781 220.855469 111.199219 219.621094 C 111.433594 218.847656 111.734375 218.101562 112.101562 217.402344 C 113.351562 219.421875 114.878906 221.285156 116.664062 222.945312 C 117.988281 224.1875 119.714844 225.074219 121.558594 225.582031 C 123.402344 226.09375 125.382812 226.203125 127.246094 225.828125 C 128.148438 225.648438 129.046875 225.347656 129.863281 224.910156 C 130.691406 224.46875 131.441406 223.910156 132.101562 223.207031 C 133.050781 222.175781 133.671875 220.972656 133.96875 219.738281 C 134.265625 218.484375 134.265625 217.214844 134.015625 215.972656 C 133.765625 214.730469 133.269531 213.535156 132.589844 212.480469 C 131.902344 211.402344 131.027344 210.464844 129.980469 209.734375 C 128.703125 208.835938 127.265625 208.304688 125.769531 208.058594 C 124.269531 207.808594 122.734375 207.863281 121.265625 208.160156 C 120.304688 208.351562 119.386719 208.652344 118.523438 209.023438 C 116.347656 209.988281 114.546875 211.253906 113.097656 212.71875 C 112.804688 213.011719 112.535156 213.320312 112.265625 213.628906 C 111.210938 211.414062 110.441406 209.042969 109.949219 206.597656 C 109.097656 202.363281 109.054688 197.871094 109.753906 193.460938 C 110.796875 186.851562 113.496094 180.414062 117.503906 175.320312 C 119.515625 172.78125 121.847656 170.550781 124.472656 168.8125 C 126.0625 167.746094 127.746094 166.878906 129.527344 166.1875 C 129.515625 166.328125 129.484375 166.472656 129.472656 166.609375 C 129.355469 167.769531 129.371094 168.921875 129.59375 170.03125 C 129.792969 171.011719 130.140625 171.976562 130.660156 172.890625 C 131.175781 173.804688 131.878906 174.683594 132.746094 175.488281 C 133.855469 176.515625 135.191406 177.226562 136.640625 177.621094 C 138.070312 178.019531 139.59375 178.085938 141.058594 177.789062 C 141.398438 177.722656 141.714844 177.636719 142.046875 177.53125 C 142.894531 177.265625 143.726562 176.84375 144.457031 176.285156 C 145.1875 175.726562 145.828125 175.011719 146.257812 174.140625 C 146.5625 173.511719 146.742188 172.847656 146.820312 172.167969 C 146.882812 171.507812 146.847656 170.832031 146.714844 170.171875 C 146.445312 168.835938 145.824219 167.59375 144.953125 166.574219 C 144.230469 165.71875 143.371094 165.03125 142.433594 164.476562 C 141.039062 163.660156 139.449219 163.15625 137.839844 162.953125 C 136.234375 162.746094 134.5625 162.808594 132.984375 163.125 C 132.90625 163.140625 132.832031 163.15625 132.738281 163.175781 C 132.585938 163.207031 132.4375 163.234375 132.308594 163.28125 C 132.542969 162.6875 132.808594 162.066406 133.101562 161.476562 C 134.449219 158.738281 136.421875 155.992188 138.484375 153.582031 C 140.542969 151.171875 142.6875 149.074219 144.328125 147.589844 C 150.328125 142.097656 157.730469 138.417969 165.558594 136.84375 C 171.167969 135.714844 176.976562 135.683594 182.667969 136.828125 C 182.085938 137.335938 181.527344 137.878906 180.992188 138.4375 C 179.574219 139.9375 178.316406 141.578125 177.476562 143.335938 C 177.066406 144.21875 176.757812 145.121094 176.59375 146.054688 C 176.449219 146.988281 176.445312 147.945312 176.632812 148.886719 C 176.839844 149.902344 177.253906 150.894531 177.933594 151.835938 C 178.59375 152.78125 179.496094 153.675781 180.644531 154.519531 C 181.769531 155.351562 183.074219 155.894531 184.421875 156.171875 C 185.769531 156.445312 187.175781 156.4375 188.511719 156.167969 C 189.960938 155.878906 191.347656 155.265625 192.53125 154.34375 C 193.988281 153.210938 195.042969 151.644531 195.660156 149.9375 C 196.273438 148.226562 196.425781 146.355469 196.066406 144.570312 C 195.945312 143.964844 195.773438 143.394531 195.539062 142.816406 C 195.167969 141.949219 194.699219 141.164062 194.121094 140.4375 C 193.257812 139.359375 192.214844 138.453125 191.050781 137.726562 C 189.90625 136.996094 188.636719 136.429688 187.359375 136.023438 C 187.234375 135.988281 187.089844 135.9375 186.964844 135.90625 C 187.703125 135.386719 188.429688 134.925781 189.113281 134.515625 C 194.640625 131.25 200.613281 128.71875 206.785156 127.476562 C 211.734375 126.480469 216.828125 126.316406 221.917969 127.292969 C 223.753906 127.648438 226.03125 128.363281 228.425781 129.371094 C 232.023438 130.898438 235.875 133.121094 238.972656 135.765625 C 239.039062 135.8125 239.089844 135.859375 239.140625 135.925781 C 236.488281 137.046875 233.992188 138.550781 231.710938 140.457031 C 230.386719 141.5625 229.28125 142.960938 228.515625 144.523438 C 227.753906 146.085938 227.320312 147.820312 227.402344 149.585938 C 227.417969 150.167969 227.492188 150.722656 227.597656 151.246094 C 227.859375 152.546875 228.359375 153.679688 229.058594 154.613281 C 229.570312 155.316406 230.195312 155.894531 230.902344 156.378906 C 231.945312 157.089844 233.128906 157.535156 234.363281 157.738281 C 235.597656 157.941406 236.886719 157.914062 238.148438 157.664062 C 239.390625 157.414062 240.609375 156.953125 241.722656 156.257812 C 242.835938 155.566406 243.828125 154.660156 244.625 153.558594 C 245.742188 152.003906 246.476562 150.40625 246.828125 148.847656 C 247.195312 147.269531 247.179688 145.726562 246.882812 144.238281 C 246.628906 142.976562 246.167969 141.757812 245.546875 140.609375 C 244.816406 139.230469 243.851562 137.9375 242.746094 136.710938 C 243.792969 136.382812 244.855469 136.109375 245.929688 135.894531 C 249.878906 135.101562 254.027344 134.992188 258.132812 135.457031 C 262.21875 135.90625 266.242188 136.9375 269.921875 138.390625 C 275.835938 140.726562 280.8125 144.5625 284.640625 149.371094 C 288.175781 153.808594 290.722656 159.074219 292.046875 164.699219 C 291.417969 164.492188 290.769531 164.289062 290.113281 164.128906 C 288.6875 163.769531 287.234375 163.53125 285.789062 163.46875 C 284.34375 163.390625 282.914062 163.480469 281.523438 163.761719 C 280.507812 163.964844 279.511719 164.28125 278.582031 164.703125 C 277.183594 165.355469 275.902344 166.28125 274.824219 167.535156 C 273.757812 168.765625 272.898438 170.332031 272.332031 172.1875 C 271.785156 173.941406 271.71875 175.753906 272.058594 177.449219 C 272.402344 179.160156 273.152344 180.753906 274.265625 182.09375 C 275.378906 183.4375 276.847656 184.511719 278.582031 185.164062 C 279.640625 185.554688 280.6875 185.796875 281.679688 185.871094 C 282.695312 185.960938 283.664062 185.902344 284.605469 185.714844 C 286.296875 185.371094 287.828125 184.613281 289.148438 183.585938 C 291.128906 182.03125 292.667969 179.863281 293.65625 177.472656 C 294.640625 175.0625 295.089844 172.425781 294.851562 169.871094 C 294.796875 169.214844 294.703125 168.550781 294.609375 167.902344 C 295.394531 168.292969 296.148438 168.730469 296.84375 169.175781 C 301.777344 172.394531 305.953125 176.703125 309.179688 181.652344 C 312.40625 186.601562 314.6875 192.195312 315.855469 198.007812 C 316.15625 199.511719 316.386719 201.035156 316.539062 202.570312 C 316.675781 204.03125 316.710938 205.570312 316.601562 207.078125 C 316.433594 209.34375 315.898438 211.566406 314.957031 213.5 C 314.484375 214.453125 313.902344 215.355469 313.203125 216.160156 C 312.503906 216.96875 311.683594 217.660156 310.703125 218.25 C 309.082031 219.242188 307.386719 219.855469 305.617188 220.210938 C 304.132812 220.511719 302.601562 220.601562 301.042969 220.542969 C 298.71875 220.464844 296.355469 220 294.03125 219.351562 C 291.703125 218.683594 289.414062 217.8125 287.253906 216.894531 C 275.964844 212.058594 264.628906 206.117188 252.855469 201.707031 C 246.972656 199.503906 240.96875 197.695312 234.820312 196.605469 C 228.953125 195.570312 222.925781 195.199219 216.734375 195.757812 C 217.308594 191.882812 218.351562 188.109375 219.875 184.59375 C 221.382812 184.996094 222.910156 185.375 224.417969 185.675781 C 231.007812 186.996094 237.742188 187.285156 244.269531 185.972656 C 246.09375 185.605469 247.894531 185.105469 249.6875 184.492188 C 250.988281 184.035156 252.300781 183.457031 253.546875 182.738281 C 255.40625 181.679688 257.152344 180.328125 258.445312 178.679688 C 259.101562 177.84375 259.644531 176.949219 260.015625 175.972656 C 260.40625 174.996094 260.648438 173.949219 260.675781 172.828125 C 260.695312 172.136719 260.640625 171.484375 260.507812 170.824219 C 260.316406 169.863281 259.976562 168.953125 259.511719 168.109375 C 258.824219 166.835938 257.871094 165.695312 256.746094 164.769531 C 255.636719 163.835938 254.347656 163.078125 252.980469 162.589844 C 251.417969 162.023438 249.796875 161.761719 248.183594 161.714844 C 246.566406 161.664062 244.9375 161.835938 243.359375 162.15625 C 242.265625 162.375 241.191406 162.667969 240.140625 162.996094 C 236.226562 164.273438 232.714844 166.175781 229.667969 168.546875 C 225.078125 172.113281 221.503906 176.730469 218.96875 181.9375 C 218.910156 182.046875 218.855469 182.15625 218.816406 182.261719 C 214.488281 180.976562 210.253906 179.304688 206.230469 177.390625 C 203.632812 176.152344 201.050781 174.8125 198.40625 173.542969 C 195.785156 172.269531 193.089844 171.046875 190.292969 170.082031 C 187.640625 169.167969 184.933594 168.558594 182.238281 168.296875 C 179.542969 168.035156 176.847656 168.148438 174.191406 168.679688 C 171.632812 169.195312 169.117188 170.113281 166.667969 171.464844 C 161.347656 174.414062 156.78125 178.761719 153.34375 183.875 C 149.910156 188.988281 147.605469 194.855469 146.820312 200.886719 C 146.566406 202.835938 146.503906 204.964844 146.914062 206.996094 C 147.109375 207.976562 147.421875 208.949219 147.875 209.835938 C 148.332031 210.742188 148.945312 211.558594 149.753906 212.257812 C 149.96875 212.449219 150.199219 212.640625 150.429688 212.808594 C 150.117188 213.496094 149.824219 214.164062 149.53125 214.769531 C 147.890625 218.390625 146.5625 222.296875 145.859375 226.296875 C 145.136719 230.296875 145.042969 234.40625 145.851562 238.414062 C 146.265625 240.484375 146.925781 242.507812 147.871094 244.46875 C 149.023438 246.898438 150.503906 249.011719 152.230469 250.777344 C 154.824219 253.449219 157.972656 255.378906 161.425781 256.582031 C 164.882812 257.808594 168.664062 258.320312 172.535156 258.1875 C 174.925781 258.097656 177.273438 257.800781 179.585938 257.335938 C 182.222656 256.808594 184.8125 256.070312 187.386719 255.238281 C 191.5625 253.890625 195.445312 251.996094 199.320312 250.238281 C 203.199219 248.476562 207.046875 246.882812 211.167969 246.054688 C 211.710938 245.945312 212.261719 245.851562 212.8125 245.761719 C 215.304688 245.398438 217.757812 245.042969 220.203125 244.746094 C 220.75 246.496094 221.558594 248.171875 222.527344 249.78125 C 224.542969 253.09375 227.292969 256.066406 230.3125 258.609375 C 233.328125 261.15625 236.570312 263.246094 239.578125 264.773438 C 242.257812 266.132812 244.992188 267.363281 247.660156 268.648438 C 250.324219 269.933594 252.910156 271.292969 255.3125 272.925781 C 258.484375 275.066406 260.871094 277.601562 262.667969 280.492188 C 264.460938 283.378906 265.664062 286.625 266.378906 290.179688 C 266.628906 291.421875 266.828125 292.710938 266.957031 294.035156 C 267.164062 295.933594 266.96875 298.28125 266.417969 300.898438 C 266.308594 301.429688 266.648438 301.949219 267.179688 302.058594 C 267.710938 302.167969 268.230469 301.828125 268.339844 301.296875 C 268.917969 298.535156 269.136719 296.007812 268.910156 293.820312 C 268.769531 292.4375 268.558594 291.09375 268.292969 289.773438 C 267.539062 286.03125 266.273438 282.546875 264.335938 279.429688 C 262.394531 276.316406 259.789062 273.570312 256.410156 271.277344 C 253.894531 269.570312 251.203125 268.171875 248.515625 266.871094 C 245.808594 265.578125 243.078125 264.363281 240.457031 263.011719 C 236.640625 261.078125 232.324219 258.105469 228.789062 254.53125 C 227.015625 252.734375 225.433594 250.800781 224.195312 248.738281 C 223.351562 247.363281 222.675781 245.953125 222.191406 244.503906 C 223.667969 244.363281 225.15625 244.257812 226.613281 244.203125 C 231.121094 244.039062 235.542969 244.421875 239.839844 245.828125 C 244.828125 247.46875 249.929688 249.457031 255.140625 250.839844 C 257.746094 251.527344 260.375 252.054688 263.03125 252.304688 C 265.683594 252.554688 268.378906 252.523438 271.085938 252.054688 C 271.347656 252.003906 271.632812 251.964844 271.898438 251.914062 C 273.855469 251.519531 275.820312 250.871094 277.609375 249.941406 C 279.398438 248.996094 281.046875 247.761719 282.375 246.183594 C 283.890625 244.371094 284.867188 242.21875 285.335938 239.96875 C 285.800781 237.722656 285.792969 235.335938 285.335938 233.058594 C 284.863281 230.707031 283.914062 228.429688 282.558594 226.453125 C 280.566406 223.5625 277.847656 221.332031 274.800781 219.710938 C 271.753906 218.09375 268.359375 217.074219 264.945312 216.644531 C 263.195312 216.425781 261.480469 216.554688 259.804688 216.894531 C 257.226562 217.410156 254.746094 218.398438 252.308594 219.417969 C 249.863281 220.417969 247.484375 221.425781 245.152344 222.011719 C 244.59375 222.144531 244.015625 222.28125 243.429688 222.398438 C 242.039062 222.679688 240.539062 222.921875 239.023438 223.167969 C 237.488281 223.417969 235.910156 223.65625 234.367188 223.964844 C 231.660156 224.511719 228.988281 225.242188 226.652344 226.476562 C 225.484375 227.101562 224.402344 227.847656 223.449219 228.765625 C 222.5 229.679688 221.703125 230.78125 221.078125 232.058594 C 220.210938 233.878906 219.691406 235.6875 219.488281 237.488281 C 219.277344 239.273438 219.382812 241.054688 219.726562 242.765625 C 219.730469 242.785156 219.738281 242.824219 219.742188 242.84375 C 217.351562 243.125 214.953125 243.472656 212.5625 243.835938 C 211.96875 243.914062 211.386719 244.03125 210.804688 244.148438 C 206.4375 245.027344 202.449219 246.710938 198.554688 248.472656 C 194.644531 250.238281 190.828125 252.101562 186.839844 253.390625 C 184.324219 254.210938 181.800781 254.914062 179.261719 255.425781 C 177.042969 255.871094 174.808594 256.164062 172.535156 256.25 C 167.65625 256.425781 163.003906 255.484375 159.066406 253.417969 C 157.097656 252.382812 155.28125 251.046875 153.703125 249.425781 C 152.121094 247.804688 150.777344 245.882812 149.699219 243.632812 C 148.828125 241.832031 148.234375 239.953125 147.847656 238.035156 C 147.101562 234.328125 147.183594 230.453125 147.867188 226.636719 C 148.546875 222.820312 149.808594 219.0625 151.398438 215.570312 C 151.65625 215.007812 151.925781 214.40625 152.195312 213.804688 C 152.214844 213.800781 152.21875 213.820312 152.238281 213.816406 C 153.535156 214.414062 154.90625 214.726562 156.339844 214.832031 C 157.769531 214.933594 159.230469 214.796875 160.679688 214.507812 C 163.574219 213.925781 166.457031 212.679688 168.941406 211.101562 C 170.1875 210.304688 171.328125 209.449219 172.335938 208.519531 C 173.34375 207.59375 174.207031 206.617188 174.890625 205.640625 C 175.628906 204.550781 176.152344 203.347656 176.4375 202.136719 C 176.722656 200.925781 176.765625 199.683594 176.527344 198.496094 C 176.394531 197.839844 176.167969 197.199219 175.855469 196.617188 C 175.363281 195.734375 174.660156 194.957031 173.726562 194.402344 C 172.792969 193.84375 171.667969 193.503906 170.339844 193.4375 C 169.25 193.363281 168.210938 193.453125 167.214844 193.65625 C 166.027344 193.894531 164.914062 194.292969 163.867188 194.835938 C 162.042969 195.789062 160.414062 197.136719 158.953125 198.722656 C 156.769531 201.097656 154.957031 203.96875 153.4375 206.820312 C 152.683594 208.242188 151.984375 209.636719 151.355469 210.976562 C 151.28125 210.914062 151.210938 210.851562 151.140625 210.785156 C 150.542969 210.257812 150.066406 209.632812 149.707031 208.921875 C 149.347656 208.210938 149.074219 207.421875 148.90625 206.59375 C 148.5625 204.882812 148.601562 202.9375 148.828125 201.128906 C 149.5625 195.441406 151.761719 189.832031 155.03125 184.964844 C 158.300781 180.097656 162.65625 175.953125 167.695312 173.179688 C 169.949219 171.921875 172.285156 171.082031 174.65625 170.605469 C 177.105469 170.113281 179.605469 170 182.140625 170.234375 C 184.65625 170.472656 187.199219 171.058594 189.742188 171.917969 C 192.433594 172.84375 195.039062 174.023438 197.640625 175.28125 C 200.246094 176.539062 202.824219 177.882812 205.46875 179.152344 C 209.492188 181.0625 213.75 182.75 218.082031 184.054688 C 216.488281 187.820312 215.402344 191.855469 214.84375 195.980469 C 213.257812 196.183594 211.683594 196.441406 210.121094 196.753906 C 204.15625 197.953125 198.363281 200 193.027344 202.855469 C 187.6875 205.707031 182.789062 209.394531 178.679688 213.882812 C 177.296875 215.375 175.984375 217.027344 174.945312 218.863281 C 174.421875 219.769531 173.988281 220.71875 173.640625 221.726562 C 173.292969 222.71875 173.070312 223.761719 172.972656 224.835938 C 172.871094 225.972656 172.953125 227.074219 173.167969 228.144531 C 173.460938 229.59375 174.011719 230.972656 174.753906 232.230469 C 175.878906 234.121094 177.445312 235.78125 179.273438 237.078125 C 181.101562 238.375 183.1875 239.308594 185.390625 239.765625 C 188.082031 240.300781 190.808594 240.222656 193.441406 239.691406 C 197.527344 238.871094 201.394531 236.976562 204.773438 234.613281 C 206.953125 233.078125 209.003906 231.296875 210.761719 229.242188 C 212.523438 227.203125 213.980469 224.894531 214.9375 222.351562 C 215.660156 220.40625 216.089844 218.441406 216.320312 216.476562 C 216.664062 213.507812 216.597656 210.546875 216.496094 207.609375 C 216.394531 204.675781 216.28125 201.78125 216.503906 198.996094 C 216.542969 198.59375 216.578125 198.195312 216.613281 197.777344 C 222.773438 197.167969 228.738281 197.515625 234.601562 198.546875 C 243.613281 200.140625 252.34375 203.339844 260.960938 207.066406 C 269.582031 210.796875 278.070312 215.042969 286.601562 218.710938 C 289.539062 219.980469 292.769531 221.152344 296.0625 221.859375 C 297.71875 222.210938 299.390625 222.441406 301.085938 222.511719 C 302.765625 222.585938 304.445312 222.464844 306.121094 222.125 C 308.078125 221.734375 310.007812 221.011719 311.824219 219.921875 C 313.34375 219.011719 314.574219 217.824219 315.558594 216.488281 C 317.011719 214.476562 317.890625 212.125 318.339844 209.683594 C 318.789062 207.246094 318.835938 204.75 318.597656 202.390625 C 318.433594 200.796875 318.210938 199.199219 317.894531 197.636719 C 316.589844 191.539062 314.207031 185.714844 310.859375 180.550781 Z M 113.972656 214.539062 C 115.296875 213.039062 117.035156 211.75 119.261719 210.753906 C 120 210.429688 120.789062 210.171875 121.597656 210.011719 C 122.859375 209.757812 124.164062 209.710938 125.398438 209.914062 C 126.632812 210.113281 127.800781 210.566406 128.800781 211.265625 C 129.621094 211.84375 130.34375 212.597656 130.886719 213.46875 C 131.453125 214.332031 131.847656 215.3125 132.042969 216.289062 C 132.242188 217.285156 132.25 218.285156 132.003906 219.214844 C 131.785156 220.160156 131.332031 221.03125 130.605469 221.804688 C 130.105469 222.335938 129.53125 222.785156 128.890625 223.109375 C 128.257812 223.453125 127.542969 223.695312 126.789062 223.847656 C 125.265625 224.152344 123.5625 224.0625 121.988281 223.636719 C 120.414062 223.207031 118.96875 222.441406 117.910156 221.460938 C 116.007812 219.691406 114.425781 217.660156 113.179688 215.460938 C 113.4375 215.175781 113.6875 214.871094 113.972656 214.539062 Z M 133.121094 165.074219 C 133.195312 165.058594 133.25 165.050781 133.328125 165.035156 C 135.152344 164.667969 137.132812 164.679688 138.910156 165.144531 C 139.796875 165.378906 140.648438 165.714844 141.402344 166.152344 C 142.160156 166.605469 142.835938 167.15625 143.402344 167.824219 C 144.066406 168.589844 144.539062 169.574219 144.734375 170.550781 C 144.828125 171.023438 144.867188 171.503906 144.820312 171.964844 C 144.777344 172.421875 144.648438 172.859375 144.453125 173.25 C 144.175781 173.816406 143.742188 174.292969 143.222656 174.710938 C 142.695312 175.113281 142.054688 175.4375 141.394531 175.648438 C 141.136719 175.738281 140.890625 175.789062 140.628906 175.839844 C 139.480469 176.070312 138.257812 176.023438 137.117188 175.703125 C 135.976562 175.386719 134.902344 174.820312 134.035156 174.015625 C 133.292969 173.339844 132.738281 172.628906 132.316406 171.894531 C 131.894531 171.15625 131.628906 170.40625 131.46875 169.617188 C 131.285156 168.714844 131.257812 167.78125 131.371094 166.796875 C 131.421875 166.355469 131.507812 165.910156 131.605469 165.4375 C 132.09375 165.320312 132.59375 165.179688 133.121094 165.074219 Z M 186.777344 137.902344 C 188.285156 138.382812 189.742188 139.105469 190.972656 140.070312 C 191.582031 140.558594 192.136719 141.089844 192.609375 141.679688 C 193.082031 142.273438 193.460938 142.898438 193.757812 143.605469 C 193.945312 144.035156 194.078125 144.5 194.171875 144.96875 C 194.453125 146.378906 194.332031 147.914062 193.828125 149.304688 C 193.34375 150.695312 192.480469 151.945312 191.34375 152.820312 C 190.410156 153.535156 189.316406 154.03125 188.132812 154.269531 C 187.039062 154.488281 185.882812 154.484375 184.804688 154.273438 C 183.703125 154.0625 182.675781 153.625 181.785156 152.980469 C 180.773438 152.242188 180.035156 151.492188 179.515625 150.753906 C 178.996094 150.019531 178.691406 149.277344 178.539062 148.523438 C 178.414062 147.902344 178.40625 147.277344 178.472656 146.636719 C 178.617188 145.511719 179.070312 144.34375 179.757812 143.1875 C 180.777344 141.457031 182.3125 139.738281 184.007812 138.242188 C 184.34375 137.960938 184.679688 137.675781 184.992188 137.398438 C 185.609375 137.546875 186.191406 137.707031 186.777344 137.902344 Z M 242.898438 140.007812 C 243.941406 141.5 244.664062 143.039062 244.976562 144.601562 C 245.226562 145.84375 245.222656 147.097656 244.9375 148.386719 C 244.628906 149.683594 244.035156 151.015625 243.042969 152.410156 C 242.398438 153.304688 241.585938 154.035156 240.679688 154.589844 C 239.773438 155.140625 238.777344 155.539062 237.761719 155.742188 C 236.839844 155.929688 235.90625 155.960938 235.023438 155.84375 C 234.359375 155.761719 233.71875 155.597656 233.121094 155.34375 C 232.222656 154.976562 231.449219 154.429688 230.828125 153.691406 C 230.210938 152.953125 229.75 152.027344 229.515625 150.863281 C 229.433594 150.449219 229.378906 149.988281 229.363281 149.503906 C 229.3125 148.085938 229.652344 146.664062 230.289062 145.363281 C 230.929688 144.058594 231.867188 142.871094 232.984375 141.921875 C 234.863281 140.351562 236.914062 139.058594 239.082031 138.074219 C 239.621094 137.828125 240.164062 137.601562 240.722656 137.371094 C 241.546875 138.242188 242.289062 139.113281 242.898438 140.007812 Z M 292.949219 170.058594 C 293.085938 171.519531 292.964844 173.050781 292.617188 174.546875 C 292.089844 176.789062 291.011719 178.921875 289.5625 180.566406 C 288.847656 181.394531 288.03125 182.105469 287.144531 182.65625 C 286.253906 183.207031 285.296875 183.597656 284.28125 183.800781 C 283.527344 183.953125 282.734375 183.996094 281.914062 183.925781 C 281.097656 183.851562 280.21875 183.660156 279.328125 183.328125 C 277.910156 182.792969 276.738281 181.929688 275.832031 180.839844 C 274.929688 179.75 274.316406 178.445312 274.035156 177.050781 C 273.753906 175.660156 273.808594 174.179688 274.246094 172.742188 C 274.574219 171.65625 275.011719 170.707031 275.53125 169.898438 C 276.308594 168.6875 277.238281 167.773438 278.335938 167.082031 C 279.410156 166.398438 280.628906 165.9375 281.964844 165.667969 C 283.152344 165.429688 284.425781 165.351562 285.734375 165.421875 C 287.691406 165.515625 289.714844 165.949219 291.628906 166.601562 C 291.945312 166.714844 292.242188 166.832031 292.539062 166.949219 C 292.707031 167.972656 292.835938 169.003906 292.949219 170.058594 Z M 221.605469 242.371094 C 221.296875 240.84375 221.21875 239.277344 221.394531 237.714844 C 221.582031 236.128906 222.027344 234.53125 222.816406 232.90625 C 223.320312 231.824219 224 230.925781 224.789062 230.160156 C 225.984375 229 227.472656 228.132812 229.15625 227.441406 C 230.855469 226.746094 232.757812 226.265625 234.710938 225.875 C 236.21875 225.570312 237.773438 225.316406 239.289062 225.070312 C 240.824219 224.820312 242.34375 224.59375 243.773438 224.304688 C 244.394531 224.179688 244.996094 224.042969 245.59375 223.902344 C 248.128906 223.273438 250.578125 222.214844 253 221.21875 C 255.425781 220.222656 257.796875 219.273438 260.132812 218.804688 C 261.65625 218.5 263.140625 218.394531 264.648438 218.582031 C 267.84375 218.996094 271.011719 219.945312 273.820312 221.457031 C 276.628906 222.964844 279.09375 224.996094 280.886719 227.589844 C 282.097656 229.324219 282.9375 231.367188 283.363281 233.476562 C 283.773438 235.507812 283.785156 237.621094 283.378906 239.601562 C 282.976562 241.582031 282.132812 243.414062 280.835938 244.964844 C 279.703125 246.328125 278.273438 247.402344 276.664062 248.253906 C 275.066406 249.082031 273.289062 249.675781 271.480469 250.039062 C 271.238281 250.085938 270.972656 250.140625 270.726562 250.171875 C 268.207031 250.597656 265.707031 250.632812 263.175781 250.398438 C 259.402344 250.039062 255.609375 249.078125 251.804688 247.886719 C 248.003906 246.695312 244.210938 245.261719 240.417969 244.027344 C 235.847656 242.519531 231.191406 242.144531 226.523438 242.300781 C 224.890625 242.355469 223.253906 242.488281 221.621094 242.640625 C 221.636719 242.519531 221.621094 242.445312 221.605469 242.371094 Z M 154.070312 209.6875 C 155.632812 206.554688 157.519531 203.277344 159.753906 200.65625 C 160.882812 199.351562 162.082031 198.210938 163.375 197.34375 C 164.664062 196.457031 166.050781 195.847656 167.515625 195.550781 C 168.34375 195.386719 169.214844 195.328125 170.125 195.378906 C 170.816406 195.417969 171.429688 195.546875 171.921875 195.742188 C 172.683594 196.039062 173.238281 196.457031 173.65625 196.980469 C 174.074219 197.503906 174.363281 198.148438 174.507812 198.863281 C 174.675781 199.710938 174.660156 200.691406 174.421875 201.660156 C 174.191406 202.648438 173.761719 203.632812 173.175781 204.515625 C 172.601562 205.355469 171.851562 206.210938 170.925781 207.0625 C 169.554688 208.316406 167.855469 209.5 166.015625 210.476562 C 164.171875 211.433594 162.171875 212.191406 160.214844 212.582031 C 158.464844 212.933594 156.734375 213.007812 155.191406 212.730469 C 154.421875 212.59375 153.671875 212.371094 152.976562 212.042969 C 152.960938 212.046875 152.957031 212.027344 152.933594 212.011719 C 153.308594 211.25 153.679688 210.472656 154.070312 209.6875 Z M 223.503906 178.011719 C 225.558594 174.992188 228.015625 172.308594 230.910156 170.0625 C 233.789062 167.816406 237.089844 166.039062 240.78125 164.824219 C 241.757812 164.511719 242.777344 164.230469 243.792969 164.023438 C 245.261719 163.730469 246.734375 163.570312 248.171875 163.613281 C 249.609375 163.65625 251.03125 163.902344 252.378906 164.375 C 253.894531 164.910156 255.320312 165.859375 256.4375 167.042969 C 256.988281 167.636719 257.472656 168.285156 257.84375 168.972656 C 258.21875 169.660156 258.480469 170.390625 258.632812 171.144531 C 258.734375 171.652344 258.78125 172.171875 258.769531 172.699219 C 258.730469 173.863281 258.417969 174.945312 257.898438 175.949219 C 257.5 176.695312 256.980469 177.425781 256.367188 178.078125 C 255.453125 179.085938 254.300781 179.960938 253.042969 180.722656 C 251.785156 181.484375 250.425781 182.113281 249.070312 182.578125 C 247.367188 183.175781 245.660156 183.636719 243.910156 183.988281 C 237.703125 185.238281 231.226562 184.972656 224.824219 183.695312 C 223.457031 183.421875 222.078125 183.09375 220.714844 182.742188 C 221.546875 181.125 222.476562 179.527344 223.503906 178.011719 Z M 214.464844 198.777344 C 214.160156 202.714844 214.484375 206.664062 214.535156 210.511719 C 214.546875 212.425781 214.519531 214.332031 214.300781 216.175781 C 214.085938 218.019531 213.6875 219.84375 213.023438 221.601562 C 212.15625 223.910156 210.820312 226.019531 209.183594 227.914062 C 207.546875 229.808594 205.613281 231.488281 203.542969 232.960938 C 200.351562 235.210938 196.695312 236.980469 192.953125 237.734375 C 190.523438 238.222656 188.070312 238.285156 185.683594 237.804688 C 183.152344 237.296875 180.699219 235.988281 178.773438 234.203125 C 177.808594 233.300781 176.980469 232.292969 176.332031 231.210938 C 175.683594 230.125 175.210938 228.949219 174.96875 227.746094 C 174.785156 226.84375 174.738281 225.914062 174.804688 224.980469 C 174.878906 224.082031 175.09375 223.199219 175.371094 222.339844 C 175.816406 221.054688 176.484375 219.804688 177.28125 218.605469 C 178.078125 217.410156 179.027344 216.28125 180.003906 215.203125 C 183.949219 210.882812 188.660156 207.332031 193.839844 204.570312 C 199 201.808594 204.628906 199.816406 210.410156 198.671875 C 211.765625 198.402344 213.128906 198.164062 214.5 197.988281 C 214.511719 198.238281 214.488281 198.5 214.464844 198.777344 Z M 214.464844 198.777344 " fill-opacity="1" fill-rule="nonzero"/></g></g></g></svg>