<svg xmlns="http://www.w3.org/2000/svg" xmlns:xlink="http://www.w3.org/1999/xlink" width="500" zoomAndPan="magnify" viewBox="0 0 375 374.999991" height="500" preserveAspectRatio="xMidYMid meet" version="1.0"><defs><clipPath id="610ed6ffed"><path d="M 16 39 L 369 39 L 369 335 L 16 335 Z M 16 39 " clip-rule="nonzero"/></clipPath><clipPath id="ed72d57c94"><path d="M -7.945312 78.785156 L 336.902344 9.445312 L 397.8125 312.382812 L 52.964844 381.722656 Z M -7.945312 78.785156 " clip-rule="nonzero"/></clipPath><clipPath id="c392965fc9"><path d="M -7.945312 78.785156 L 336.902344 9.445312 L 397.8125 312.382812 L 52.964844 381.722656 Z M -7.945312 78.785156 " clip-rule="nonzero"/></clipPath></defs><g clip-path="url(#610ed6ffed)"><g clip-path="url(#ed72d57c94)"><g clip-path="url(#c392965fc9)"><path fill="#576d70" d="M 355.691406 132.339844 C 350.082031 123.746094 342.835938 116.261719 334.199219 110.625 C 332.320312 109.402344 330.230469 108.257812 328.015625 107.300781 C 325.839844 96.644531 321.226562 86.675781 314.554688 78.324219 C 307.839844 69.917969 299.070312 63.132812 288.683594 59.023438 C 282.300781 56.488281 275.320312 54.726562 268.207031 53.90625 C 261.097656 53.117188 253.851562 53.269531 246.859375 54.675781 C 244.414062 55.167969 241.96875 55.820312 239.617188 56.621094 C 239.535156 56.539062 239.453125 56.457031 239.371094 56.375 C 234.769531 52.144531 229.125 48.582031 223.578125 45.816406 C 220.789062 44.449219 218.042969 43.273438 215.410156 42.367188 C 212.78125 41.460938 210.324219 40.746094 208.121094 40.34375 C 199.167969 38.652344 190.253906 38.941406 181.628906 40.675781 C 170.902344 42.832031 160.59375 47.222656 151.144531 52.808594 C 149.277344 53.902344 147.234375 55.257812 145.234375 56.835938 C 134.535156 54.257812 123.488281 54.160156 112.921875 56.285156 C 99.308594 59.023438 86.4375 65.429688 75.921875 74.949219 C 71.613281 78.847656 65.40625 85.121094 60.53125 92.203125 C 58.113281 95.757812 55.996094 99.511719 54.675781 103.332031 C 54.53125 103.753906 54.390625 104.171875 54.28125 104.617188 C 48.5 106.53125 43.273438 109.574219 38.695312 113.429688 C 30.078125 120.710938 23.695312 130.835938 20.023438 141.949219 C 16.355469 153.0625 15.355469 165.140625 17.613281 176.367188 C 18.605469 181.289062 20.207031 186.023438 22.496094 190.425781 C 22.171875 190.914062 21.882812 191.429688 21.625 191.9375 C 19.898438 195.191406 18.917969 198.746094 18.550781 202.441406 C 18.175781 206.105469 18.417969 209.910156 19.171875 213.640625 C 20.519531 220.351562 23.507812 226.929688 27.632812 232.527344 C 29.695312 235.308594 32.03125 237.84375 34.621094 240.027344 C 37.210938 242.183594 40.023438 244 43.023438 245.289062 C 47.277344 247.140625 51.675781 248.25 56.144531 248.71875 C 60.609375 249.191406 65.113281 249.039062 69.574219 248.335938 C 70.457031 248.191406 71.070312 247.351562 70.925781 246.464844 C 70.78125 245.582031 69.941406 244.96875 69.054688 245.113281 C 64.886719 245.789062 60.636719 245.925781 56.503906 245.484375 C 52.335938 245.046875 48.246094 244.011719 44.3125 242.289062 C 41.632812 241.132812 39.089844 239.523438 36.726562 237.515625 C 33.191406 234.542969 30.046875 230.738281 27.601562 226.53125 C 25.121094 222.296875 23.339844 217.664062 22.40625 213.023438 C 21.789062 209.949219 21.558594 206.863281 21.746094 203.890625 C 21.886719 201.675781 22.265625 199.507812 22.929688 197.453125 C 23.324219 196.164062 23.824219 194.921875 24.4375 193.753906 C 26.519531 197.121094 29.066406 200.230469 32.039062 202.992188 C 34.25 205.0625 37.125 206.539062 40.199219 207.390625 C 43.273438 208.238281 46.574219 208.425781 49.675781 207.800781 C 51.183594 207.496094 52.679688 207 54.035156 206.269531 C 55.421875 205.535156 56.667969 204.601562 57.773438 203.433594 C 59.351562 201.710938 60.382812 199.710938 60.882812 197.652344 C 61.378906 195.5625 61.375 193.441406 60.957031 191.371094 C 60.542969 189.300781 59.71875 187.3125 58.582031 185.550781 C 57.4375 183.757812 55.980469 182.191406 54.234375 180.976562 C 52.109375 179.480469 49.710938 178.589844 47.214844 178.179688 C 44.714844 177.769531 42.15625 177.859375 39.710938 178.351562 C 38.109375 178.671875 36.582031 179.175781 35.136719 179.792969 C 31.515625 181.402344 28.511719 183.507812 26.097656 185.949219 C 25.609375 186.4375 25.160156 186.953125 24.707031 187.46875 C 22.953125 183.777344 21.667969 179.824219 20.851562 175.746094 C 19.429688 168.691406 19.359375 161.203125 20.527344 153.855469 C 22.257812 142.835938 26.757812 132.109375 33.4375 123.621094 C 36.796875 119.390625 40.679688 115.671875 45.058594 112.769531 C 47.703125 111 50.511719 109.554688 53.476562 108.402344 C 53.460938 108.632812 53.410156 108.871094 53.390625 109.105469 C 53.191406 111.039062 53.21875 112.957031 53.589844 114.808594 C 53.917969 116.4375 54.503906 118.050781 55.363281 119.574219 C 56.226562 121.097656 57.402344 122.558594 58.84375 123.898438 C 60.691406 125.613281 62.917969 126.796875 65.335938 127.453125 C 67.71875 128.117188 70.253906 128.226562 72.699219 127.734375 C 73.265625 127.621094 73.792969 127.484375 74.34375 127.308594 C 75.753906 126.859375 77.144531 126.15625 78.363281 125.226562 C 79.578125 124.296875 80.644531 123.105469 81.363281 121.652344 C 81.871094 120.605469 82.171875 119.5 82.300781 118.367188 C 82.40625 117.269531 82.34375 116.140625 82.121094 115.042969 C 81.675781 112.816406 80.636719 110.738281 79.1875 109.039062 C 77.988281 107.617188 76.550781 106.472656 74.992188 105.542969 C 72.664062 104.1875 70.015625 103.347656 67.335938 103.003906 C 64.65625 102.664062 61.871094 102.765625 59.238281 103.296875 C 59.113281 103.320312 58.988281 103.347656 58.828125 103.378906 C 58.578125 103.429688 58.328125 103.480469 58.113281 103.554688 C 58.503906 102.5625 58.949219 101.527344 59.4375 100.546875 C 61.683594 95.984375 64.972656 91.410156 68.40625 87.390625 C 71.839844 83.371094 75.410156 79.878906 78.144531 77.40625 C 88.148438 68.25 100.488281 62.113281 113.53125 59.492188 C 122.878906 57.613281 132.558594 57.558594 142.042969 59.46875 C 141.074219 60.316406 140.144531 61.21875 139.253906 62.148438 C 136.886719 64.648438 134.792969 67.386719 133.390625 70.3125 C 132.710938 71.785156 132.195312 73.292969 131.921875 74.847656 C 131.679688 76.398438 131.675781 77.996094 131.988281 79.566406 C 132.332031 81.257812 133.023438 82.914062 134.152344 84.480469 C 135.253906 86.054688 136.757812 87.546875 138.675781 88.957031 C 140.550781 90.339844 142.722656 91.242188 144.96875 91.703125 C 147.214844 92.164062 149.5625 92.148438 151.789062 91.703125 C 154.203125 91.21875 156.511719 90.199219 158.484375 88.660156 C 160.910156 86.769531 162.671875 84.164062 163.695312 81.3125 C 164.722656 78.464844 164.976562 75.347656 164.378906 72.367188 C 164.175781 71.363281 163.886719 70.410156 163.496094 69.445312 C 162.878906 68.003906 162.09375 66.691406 161.132812 65.484375 C 159.695312 63.683594 157.957031 62.175781 156.015625 60.964844 C 154.109375 59.75 151.992188 58.804688 149.867188 58.125 C 149.660156 58.066406 149.414062 57.984375 149.207031 57.929688 C 150.433594 57.0625 151.652344 56.296875 152.785156 55.609375 C 162.003906 50.167969 171.953125 45.949219 182.238281 43.882812 C 190.488281 42.222656 198.980469 41.949219 207.464844 43.574219 C 210.519531 44.167969 214.316406 45.359375 218.308594 47.039062 C 224.300781 49.585938 230.722656 53.285156 235.882812 57.695312 C 235.996094 57.773438 236.078125 57.855469 236.167969 57.964844 C 231.746094 59.835938 227.582031 62.335938 223.785156 65.511719 C 221.578125 67.359375 219.730469 69.6875 218.460938 72.292969 C 217.1875 74.898438 216.464844 77.785156 216.597656 80.726562 C 216.632812 81.699219 216.75 82.621094 216.929688 83.5 C 217.363281 85.664062 218.199219 87.550781 219.363281 89.113281 C 220.214844 90.277344 221.257812 91.242188 222.433594 92.050781 C 224.171875 93.234375 226.148438 93.980469 228.207031 94.316406 C 230.265625 94.652344 232.410156 94.613281 234.511719 94.191406 C 236.582031 93.773438 238.613281 93.007812 240.46875 91.851562 C 242.324219 90.695312 243.976562 89.1875 245.304688 87.355469 C 247.167969 84.761719 248.394531 82.101562 248.980469 79.503906 C 249.59375 76.867188 249.566406 74.292969 249.066406 71.816406 C 248.644531 69.714844 247.875 67.683594 246.839844 65.773438 C 245.625 63.472656 244.019531 61.316406 242.171875 59.269531 C 243.921875 58.722656 245.691406 58.269531 247.476562 57.910156 C 254.0625 56.585938 260.976562 56.402344 267.820312 57.179688 C 274.628906 57.933594 281.335938 59.652344 287.46875 62.074219 C 297.320312 65.964844 305.621094 72.355469 311.996094 80.371094 C 317.886719 87.769531 322.132812 96.539062 324.34375 105.917969 C 323.296875 105.574219 322.214844 105.234375 321.117188 104.96875 C 318.746094 104.367188 316.316406 103.972656 313.914062 103.871094 C 311.507812 103.734375 309.121094 103.886719 306.800781 104.355469 C 305.109375 104.695312 303.453125 105.222656 301.898438 105.925781 C 299.570312 107.015625 297.433594 108.554688 295.636719 110.644531 C 293.863281 112.699219 292.429688 115.304688 291.484375 118.398438 C 290.570312 121.320312 290.460938 124.34375 291.027344 127.167969 C 291.601562 130.019531 292.855469 132.671875 294.707031 134.910156 C 296.558594 137.148438 299.007812 138.941406 301.902344 140.023438 C 303.664062 140.679688 305.410156 141.078125 307.066406 141.203125 C 308.757812 141.351562 310.371094 141.257812 311.9375 140.941406 C 314.761719 140.375 317.3125 139.109375 319.515625 137.394531 C 322.8125 134.808594 325.378906 131.191406 327.023438 127.207031 C 328.664062 123.1875 329.414062 118.796875 329.011719 114.539062 C 328.925781 113.445312 328.765625 112.335938 328.613281 111.257812 C 329.921875 111.910156 331.175781 112.636719 332.335938 113.378906 C 340.5625 118.742188 347.519531 125.925781 352.898438 134.175781 C 358.277344 142.425781 362.074219 151.742188 364.023438 161.433594 C 364.527344 163.941406 364.90625 166.476562 365.160156 169.035156 C 365.386719 171.46875 365.445312 174.035156 365.265625 176.550781 C 364.984375 180.328125 364.097656 184.027344 362.523438 187.25 C 361.734375 188.84375 360.765625 190.34375 359.597656 191.6875 C 358.433594 193.03125 357.066406 194.1875 355.4375 195.167969 C 352.734375 196.820312 349.90625 197.84375 346.960938 198.4375 C 344.480469 198.9375 341.933594 199.089844 339.335938 198.992188 C 335.460938 198.855469 331.519531 198.082031 327.648438 197.003906 C 323.769531 195.890625 319.953125 194.4375 316.351562 192.910156 C 297.535156 184.851562 278.644531 174.945312 259.027344 167.601562 C 249.21875 163.929688 239.214844 160.914062 228.960938 159.09375 C 219.1875 157.371094 209.144531 156.75 198.824219 157.679688 C 199.777344 151.226562 201.515625 144.9375 204.054688 139.074219 C 206.570312 139.742188 209.113281 140.375 211.628906 140.878906 C 222.609375 143.078125 233.832031 143.5625 244.714844 141.375 C 247.757812 140.761719 250.753906 139.929688 253.746094 138.90625 C 255.910156 138.144531 258.097656 137.183594 260.171875 135.980469 C 263.277344 134.214844 266.183594 131.96875 268.339844 129.21875 C 269.429688 127.824219 270.339844 126.335938 270.957031 124.710938 C 271.609375 123.078125 272.007812 121.332031 272.058594 119.464844 C 272.085938 118.316406 272 117.226562 271.777344 116.128906 C 271.457031 114.527344 270.890625 113.011719 270.117188 111.601562 C 268.972656 109.480469 267.382812 107.582031 265.507812 106.035156 C 263.660156 104.480469 261.515625 103.214844 259.230469 102.402344 C 256.625 101.457031 253.925781 101.019531 251.234375 100.941406 C 248.542969 100.863281 245.828125 101.148438 243.195312 101.679688 C 241.375 102.042969 239.582031 102.535156 237.832031 103.082031 C 231.308594 105.210938 225.453125 108.375 220.375 112.335938 C 212.730469 118.277344 206.769531 125.96875 202.546875 134.648438 C 202.453125 134.828125 202.359375 135.011719 202.296875 135.1875 C 195.078125 133.050781 188.023438 130.257812 181.316406 127.074219 C 176.984375 125.007812 172.683594 122.773438 168.277344 120.65625 C 163.90625 118.535156 159.417969 116.5 154.753906 114.890625 C 150.335938 113.367188 145.824219 112.347656 141.332031 111.914062 C 136.839844 111.480469 132.34375 111.664062 127.921875 112.554688 C 123.65625 113.410156 119.460938 114.941406 115.378906 117.195312 C 106.515625 122.113281 98.898438 129.351562 93.175781 137.878906 C 87.449219 146.402344 83.605469 156.179688 82.300781 166.230469 C 81.875 169.480469 81.773438 173.027344 82.453125 176.414062 C 82.78125 178.042969 83.304688 179.667969 84.058594 181.148438 C 84.820312 182.660156 85.84375 184.019531 87.1875 185.183594 C 87.546875 185.503906 87.933594 185.816406 88.316406 186.097656 C 87.796875 187.246094 87.304688 188.359375 86.820312 189.367188 C 84.085938 195.398438 81.871094 201.914062 80.699219 208.578125 C 79.496094 215.246094 79.339844 222.097656 80.683594 228.777344 C 81.375 232.226562 82.476562 235.59375 84.050781 238.867188 C 85.972656 242.917969 88.441406 246.433594 91.316406 249.382812 C 95.640625 253.832031 100.886719 257.050781 106.640625 259.058594 C 112.402344 261.097656 118.707031 261.949219 125.15625 261.730469 C 129.140625 261.582031 133.054688 261.089844 136.910156 260.3125 C 141.300781 259.429688 145.621094 258.203125 149.910156 256.816406 C 156.867188 254.570312 163.34375 251.410156 169.800781 248.480469 C 176.261719 245.550781 182.675781 242.890625 189.542969 241.507812 C 190.453125 241.324219 191.367188 241.171875 192.285156 241.023438 C 196.4375 240.414062 200.527344 239.820312 204.605469 239.328125 C 205.515625 242.246094 206.863281 245.039062 208.476562 247.71875 C 211.839844 253.242188 216.421875 258.191406 221.453125 262.433594 C 226.480469 266.675781 231.878906 270.160156 236.894531 272.707031 C 241.363281 274.972656 245.921875 277.027344 250.363281 279.167969 C 254.808594 281.308594 259.113281 283.574219 263.117188 286.292969 C 268.40625 289.863281 272.386719 294.085938 275.378906 298.902344 C 278.367188 303.71875 280.367188 309.121094 281.558594 315.050781 C 281.976562 317.121094 282.3125 319.269531 282.527344 321.480469 C 282.867188 324.640625 282.546875 328.554688 281.628906 332.917969 C 281.449219 333.800781 282.011719 334.664062 282.898438 334.847656 C 283.78125 335.027344 284.648438 334.460938 284.828125 333.578125 C 285.796875 328.976562 286.15625 324.761719 285.78125 321.117188 C 285.546875 318.816406 285.195312 316.570312 284.753906 314.375 C 283.496094 308.132812 281.382812 302.328125 278.15625 297.136719 C 274.925781 291.945312 270.578125 287.371094 264.949219 283.542969 C 260.753906 280.699219 256.273438 278.371094 251.792969 276.203125 C 247.277344 274.046875 242.726562 272.023438 238.359375 269.769531 C 232 266.546875 224.808594 261.597656 218.910156 255.636719 C 215.960938 252.640625 213.320312 249.417969 211.261719 245.984375 C 209.851562 243.6875 208.726562 241.335938 207.914062 238.921875 C 210.378906 238.6875 212.859375 238.515625 215.285156 238.421875 C 222.800781 238.148438 230.171875 238.789062 237.332031 241.132812 C 245.648438 243.867188 254.144531 247.183594 262.828125 249.480469 C 267.171875 250.632812 271.558594 251.511719 275.980469 251.925781 C 280.40625 252.34375 284.894531 252.289062 289.40625 251.511719 C 289.84375 251.425781 290.320312 251.359375 290.761719 251.273438 C 294.023438 250.617188 297.296875 249.535156 300.28125 247.988281 C 303.257812 246.410156 306.011719 244.355469 308.222656 241.726562 C 310.746094 238.707031 312.375 235.117188 313.15625 231.371094 C 313.933594 227.625 313.917969 223.644531 313.15625 219.851562 C 312.367188 215.929688 310.789062 212.136719 308.527344 208.839844 C 305.210938 204.027344 300.675781 200.304688 295.597656 197.605469 C 290.519531 194.90625 284.859375 193.207031 279.171875 192.492188 C 276.257812 192.128906 273.398438 192.347656 270.609375 192.90625 C 266.3125 193.769531 262.171875 195.417969 258.109375 197.117188 C 254.039062 198.785156 250.070312 200.460938 246.1875 201.4375 C 245.253906 201.660156 244.289062 201.886719 243.316406 202.082031 C 240.996094 202.546875 238.5 202.953125 235.972656 203.363281 C 233.410156 203.78125 230.785156 204.175781 228.210938 204.695312 C 223.695312 205.601562 219.242188 206.824219 215.351562 208.878906 C 213.40625 209.921875 211.601562 211.167969 210.015625 212.691406 C 208.429688 214.21875 207.101562 216.050781 206.0625 218.1875 C 204.617188 221.21875 203.753906 224.230469 203.410156 227.234375 C 203.0625 230.207031 203.234375 233.175781 203.808594 236.03125 C 203.816406 236.0625 203.828125 236.125 203.835938 236.15625 C 199.851562 236.628906 195.855469 237.203125 191.867188 237.8125 C 190.882812 237.941406 189.910156 238.140625 188.9375 238.335938 C 181.664062 239.796875 175.015625 242.601562 168.527344 245.539062 C 162.003906 248.480469 155.648438 251.585938 149 253.738281 C 144.804688 255.105469 140.601562 256.273438 136.367188 257.125 C 132.667969 257.871094 128.949219 258.355469 125.160156 258.5 C 117.03125 258.796875 109.273438 257.222656 102.707031 253.78125 C 99.425781 252.058594 96.398438 249.828125 93.769531 247.125 C 91.136719 244.425781 88.894531 241.222656 87.097656 237.472656 C 85.644531 234.46875 84.65625 231.339844 84.011719 228.140625 C 82.769531 221.960938 82.910156 215.507812 84.042969 209.144531 C 85.179688 202.78125 87.28125 196.519531 89.929688 190.703125 C 90.359375 189.765625 90.8125 188.761719 91.261719 187.757812 C 91.292969 187.753906 91.300781 187.785156 91.332031 187.777344 C 93.488281 188.777344 95.78125 189.296875 98.164062 189.46875 C 100.546875 189.644531 102.980469 189.414062 105.394531 188.929688 C 110.226562 187.957031 115.027344 185.882812 119.167969 183.257812 C 121.246094 181.925781 123.148438 180.5 124.828125 178.953125 C 126.507812 177.410156 127.941406 175.78125 129.082031 174.152344 C 130.316406 172.335938 131.1875 170.335938 131.660156 168.3125 C 132.136719 166.292969 132.207031 164.222656 131.8125 162.246094 C 131.589844 161.148438 131.210938 160.082031 130.691406 159.113281 C 129.875 157.644531 128.699219 156.347656 127.144531 155.421875 C 125.585938 154.492188 123.710938 153.925781 121.5 153.8125 C 119.683594 153.691406 117.949219 153.84375 116.289062 154.175781 C 114.3125 154.574219 112.457031 155.242188 110.714844 156.144531 C 107.671875 157.738281 104.957031 159.980469 102.519531 162.621094 C 98.878906 166.585938 95.863281 171.367188 93.324219 176.121094 C 92.074219 178.492188 90.910156 180.8125 89.859375 183.046875 C 89.738281 182.941406 89.617188 182.835938 89.5 182.730469 C 88.507812 181.851562 87.710938 180.804688 87.113281 179.621094 C 86.515625 178.433594 86.054688 177.125 85.777344 175.746094 C 85.203125 172.890625 85.269531 169.648438 85.644531 166.636719 C 86.871094 157.15625 90.535156 147.804688 95.984375 139.695312 C 101.4375 131.582031 108.691406 124.675781 117.09375 120.050781 C 120.851562 117.957031 124.746094 116.554688 128.695312 115.757812 C 132.773438 114.9375 136.945312 114.753906 141.167969 115.144531 C 145.359375 115.542969 149.597656 116.515625 153.835938 117.949219 C 158.320312 119.492188 162.664062 121.457031 167.003906 123.554688 C 171.339844 125.652344 175.640625 127.886719 180.042969 130.003906 C 186.753906 133.191406 193.847656 136.003906 201.070312 138.175781 C 198.414062 144.449219 196.601562 151.179688 195.667969 158.054688 C 193.027344 158.390625 190.40625 158.820312 187.804688 159.34375 C 177.863281 161.339844 168.203125 164.75 159.308594 169.507812 C 150.410156 174.265625 142.25 180.410156 135.398438 187.890625 C 133.09375 190.375 130.90625 193.132812 129.171875 196.1875 C 128.304688 197.703125 127.578125 199.28125 127 200.964844 C 126.417969 202.613281 126.050781 204.351562 125.890625 206.148438 C 125.714844 208.042969 125.855469 209.875 126.214844 211.660156 C 126.699219 214.078125 127.621094 216.371094 128.855469 218.472656 C 130.730469 221.617188 133.34375 224.390625 136.386719 226.550781 C 139.433594 228.710938 142.910156 230.261719 146.585938 231.023438 C 151.070312 231.917969 155.613281 231.789062 160.003906 230.90625 C 166.808594 229.535156 173.253906 226.378906 178.890625 222.441406 C 182.519531 219.882812 185.9375 216.914062 188.867188 213.484375 C 191.808594 210.089844 194.230469 206.242188 195.828125 202.003906 C 197.035156 198.761719 197.746094 195.484375 198.132812 192.210938 C 198.703125 187.265625 198.59375 182.328125 198.421875 177.4375 C 198.253906 172.542969 198.070312 167.71875 198.441406 163.078125 C 198.503906 162.410156 198.566406 161.746094 198.621094 161.050781 C 208.886719 160.03125 218.824219 160.609375 228.601562 162.332031 C 243.621094 164.988281 258.167969 170.316406 272.535156 176.53125 C 286.902344 182.746094 301.046875 189.820312 315.265625 195.9375 C 320.160156 198.050781 325.542969 200.003906 331.035156 201.183594 C 333.796875 201.769531 336.582031 202.15625 339.410156 202.273438 C 342.207031 202.394531 345.003906 202.191406 347.796875 201.628906 C 351.058594 200.972656 354.273438 199.773438 357.304688 197.957031 C 359.835938 196.4375 361.886719 194.457031 363.527344 192.234375 C 365.953125 188.875 367.414062 184.960938 368.164062 180.894531 C 368.914062 176.828125 368.988281 172.667969 368.589844 168.738281 C 368.316406 166.082031 367.945312 163.417969 367.421875 160.816406 C 365.246094 150.648438 361.273438 140.941406 355.691406 132.339844 Z M 27.558594 188.984375 C 29.761719 186.484375 32.660156 184.335938 36.371094 182.675781 C 37.601562 182.136719 38.917969 181.707031 40.265625 181.4375 C 42.367188 181.015625 44.539062 180.9375 46.59375 181.273438 C 48.652344 181.609375 50.597656 182.359375 52.269531 183.527344 C 53.636719 184.492188 54.835938 185.75 55.746094 187.199219 C 56.691406 188.640625 57.34375 190.269531 57.671875 191.902344 C 58.007812 193.5625 58.015625 195.226562 57.609375 196.777344 C 57.238281 198.351562 56.488281 199.808594 55.277344 201.09375 C 54.445312 201.980469 53.488281 202.726562 52.421875 203.269531 C 51.359375 203.839844 50.167969 204.242188 48.914062 204.496094 C 46.375 205.003906 43.539062 204.859375 40.917969 204.144531 C 38.292969 203.433594 35.882812 202.15625 34.117188 200.519531 C 30.949219 197.570312 28.308594 194.183594 26.234375 190.523438 C 26.660156 190.046875 27.082031 189.535156 27.558594 188.984375 Z M 59.46875 106.546875 C 59.59375 106.519531 59.6875 106.5 59.8125 106.476562 C 62.855469 105.863281 66.152344 105.886719 69.117188 106.660156 C 70.597656 107.046875 72.015625 107.613281 73.269531 108.339844 C 74.53125 109.097656 75.660156 110.011719 76.605469 111.125 C 77.710938 112.40625 78.496094 114.042969 78.824219 115.671875 C 78.980469 116.457031 79.042969 117.257812 78.96875 118.023438 C 78.894531 118.789062 78.683594 119.519531 78.355469 120.171875 C 77.894531 121.113281 77.171875 121.910156 76.300781 122.605469 C 75.425781 123.273438 74.359375 123.8125 73.253906 124.164062 C 72.828125 124.316406 72.421875 124.398438 71.980469 124.488281 C 70.070312 124.871094 68.03125 124.792969 66.128906 124.261719 C 64.226562 123.730469 62.4375 122.785156 60.992188 121.441406 C 59.757812 120.320312 58.832031 119.136719 58.128906 117.90625 C 57.425781 116.679688 56.980469 115.429688 56.714844 114.113281 C 56.410156 112.609375 56.359375 111.054688 56.550781 109.414062 C 56.632812 108.679688 56.777344 107.933594 56.945312 107.148438 C 57.753906 106.953125 58.589844 106.722656 59.46875 106.546875 Z M 148.898438 61.253906 C 151.40625 62.054688 153.835938 63.261719 155.890625 64.875 C 156.898438 65.683594 157.828125 66.570312 158.613281 67.554688 C 159.398438 68.539062 160.035156 69.585938 160.53125 70.757812 C 160.839844 71.480469 161.058594 72.253906 161.21875 73.035156 C 161.691406 75.386719 161.484375 77.941406 160.648438 80.261719 C 159.839844 82.578125 158.398438 84.664062 156.507812 86.121094 C 154.953125 87.3125 153.128906 88.136719 151.152344 88.535156 C 149.332031 88.902344 147.40625 88.898438 145.605469 88.539062 C 143.773438 88.191406 142.058594 87.460938 140.574219 86.386719 C 138.890625 85.160156 137.660156 83.90625 136.792969 82.679688 C 135.925781 81.449219 135.414062 80.214844 135.164062 78.960938 C 134.957031 77.925781 134.941406 76.882812 135.054688 75.816406 C 135.296875 73.941406 136.046875 71.996094 137.191406 70.066406 C 138.898438 67.179688 141.453125 64.316406 144.28125 61.824219 C 144.835938 61.351562 145.394531 60.882812 145.921875 60.417969 C 146.953125 60.667969 147.917969 60.929688 148.898438 61.253906 Z M 242.429688 64.765625 C 244.167969 67.253906 245.371094 69.820312 245.894531 72.421875 C 246.308594 74.492188 246.304688 76.582031 245.824219 78.734375 C 245.3125 80.890625 244.324219 83.113281 242.667969 85.4375 C 241.597656 86.925781 240.246094 88.144531 238.734375 89.066406 C 237.222656 89.992188 235.5625 90.652344 233.867188 90.992188 C 232.332031 91.300781 230.773438 91.351562 229.300781 91.160156 C 228.195312 91.023438 227.128906 90.746094 226.132812 90.328125 C 224.636719 89.714844 223.34375 88.800781 222.316406 87.570312 C 221.285156 86.34375 220.519531 84.800781 220.125 82.855469 C 219.988281 82.167969 219.898438 81.402344 219.867188 80.59375 C 219.785156 78.226562 220.351562 75.863281 221.417969 73.691406 C 222.480469 71.519531 224.039062 69.539062 225.90625 67.957031 C 229.035156 65.339844 232.453125 63.183594 236.070312 61.542969 C 236.96875 61.132812 237.871094 60.757812 238.804688 60.371094 C 240.171875 61.828125 241.410156 63.273438 242.429688 64.765625 Z M 325.847656 114.847656 C 326.074219 117.28125 325.871094 119.835938 325.296875 122.332031 C 324.414062 126.066406 322.617188 129.625 320.199219 132.363281 C 319.007812 133.746094 317.648438 134.933594 316.167969 135.847656 C 314.6875 136.765625 313.089844 137.414062 311.398438 137.753906 C 310.140625 138.007812 308.820312 138.078125 307.457031 137.960938 C 306.097656 137.839844 304.628906 137.515625 303.144531 136.964844 C 300.78125 136.070312 298.828125 134.636719 297.320312 132.820312 C 295.8125 131 294.789062 128.824219 294.320312 126.503906 C 293.855469 124.183594 293.945312 121.71875 294.671875 119.320312 C 295.222656 117.515625 295.949219 115.933594 296.820312 114.582031 C 298.109375 112.5625 299.664062 111.042969 301.488281 109.894531 C 303.28125 108.75 305.3125 107.980469 307.539062 107.535156 C 309.515625 107.136719 311.640625 107.003906 313.816406 107.121094 C 317.082031 107.28125 320.457031 108.003906 323.644531 109.09375 C 324.171875 109.28125 324.667969 109.472656 325.164062 109.667969 C 325.441406 111.375 325.65625 113.09375 325.847656 114.847656 Z M 206.9375 235.367188 C 206.429688 232.828125 206.292969 230.210938 206.585938 227.609375 C 206.902344 224.964844 207.640625 222.304688 208.957031 219.59375 C 209.800781 217.792969 210.933594 216.292969 212.246094 215.019531 C 214.238281 213.082031 216.71875 211.636719 219.523438 210.488281 C 222.359375 209.328125 225.523438 208.53125 228.785156 207.875 C 231.296875 207.371094 233.886719 206.945312 236.414062 206.535156 C 238.972656 206.121094 241.507812 205.742188 243.890625 205.261719 C 244.925781 205.054688 245.921875 204.820312 246.917969 204.585938 C 251.144531 203.542969 255.226562 201.773438 259.265625 200.113281 C 263.304688 198.453125 267.261719 196.875 271.148438 196.09375 C 273.691406 195.582031 276.167969 195.410156 278.679688 195.722656 C 284.003906 196.414062 289.28125 197.996094 293.964844 200.511719 C 298.648438 203.027344 302.753906 206.414062 305.742188 210.738281 C 307.761719 213.628906 309.164062 217.03125 309.867188 220.546875 C 310.550781 223.933594 310.574219 227.453125 309.898438 230.75 C 309.222656 234.050781 307.816406 237.109375 305.660156 239.695312 C 303.769531 241.96875 301.386719 243.753906 298.703125 245.171875 C 296.042969 246.554688 293.078125 247.542969 290.066406 248.148438 C 289.660156 248.230469 289.21875 248.320312 288.808594 248.371094 C 284.609375 249.082031 280.445312 249.136719 276.222656 248.746094 C 269.9375 248.152344 263.609375 246.550781 257.273438 244.5625 C 250.933594 242.574219 244.617188 240.191406 238.296875 238.132812 C 230.679688 235.617188 222.917969 234.992188 215.136719 235.253906 C 212.414062 235.34375 209.6875 235.566406 206.964844 235.820312 C 206.988281 235.617188 206.964844 235.492188 206.9375 235.367188 Z M 94.382812 180.898438 C 96.988281 175.675781 100.132812 170.214844 103.855469 165.84375 C 105.734375 163.671875 107.734375 161.769531 109.890625 160.324219 C 112.039062 158.847656 114.347656 157.828125 116.792969 157.339844 C 118.171875 157.0625 119.621094 156.964844 121.140625 157.050781 C 122.296875 157.113281 123.316406 157.332031 124.132812 157.65625 C 125.40625 158.152344 126.332031 158.847656 127.027344 159.71875 C 127.726562 160.589844 128.203125 161.667969 128.441406 162.859375 C 128.726562 164.269531 128.695312 165.90625 128.304688 167.519531 C 127.917969 169.164062 127.203125 170.808594 126.226562 172.277344 C 125.265625 173.675781 124.019531 175.101562 122.476562 176.523438 C 120.191406 178.613281 117.355469 180.585938 114.292969 182.214844 C 111.21875 183.8125 107.882812 185.070312 104.621094 185.726562 C 101.703125 186.3125 98.824219 186.433594 96.253906 185.972656 C 94.96875 185.742188 93.71875 185.371094 92.5625 184.820312 C 92.53125 184.828125 92.527344 184.796875 92.488281 184.769531 C 93.113281 183.503906 93.734375 182.203125 94.382812 180.898438 Z M 210.105469 128.101562 C 213.53125 123.074219 217.621094 118.597656 222.449219 114.855469 C 227.246094 111.117188 232.75 108.148438 238.902344 106.128906 C 240.527344 105.609375 242.226562 105.136719 243.917969 104.792969 C 246.363281 104.304688 248.824219 104.035156 251.21875 104.109375 C 253.617188 104.183594 255.980469 104.589844 258.230469 105.375 C 260.757812 106.269531 263.128906 107.847656 264.996094 109.824219 C 265.914062 110.8125 266.71875 111.890625 267.339844 113.039062 C 267.960938 114.1875 268.402344 115.402344 268.652344 116.65625 C 268.824219 117.503906 268.898438 118.371094 268.882812 119.253906 C 268.816406 121.191406 268.296875 122.992188 267.425781 124.667969 C 266.761719 125.914062 265.898438 127.128906 264.875 128.214844 C 263.355469 129.894531 261.429688 131.355469 259.335938 132.625 C 257.242188 133.894531 254.972656 134.9375 252.714844 135.71875 C 249.878906 136.714844 247.03125 137.480469 244.117188 138.066406 C 233.765625 140.148438 222.976562 139.707031 212.304688 137.578125 C 210.027344 137.125 207.730469 136.574219 205.457031 135.988281 C 206.839844 133.292969 208.394531 130.632812 210.105469 128.101562 Z M 195.039062 162.714844 C 194.53125 169.277344 195.070312 175.859375 195.152344 182.269531 C 195.175781 185.460938 195.128906 188.636719 194.769531 191.710938 C 194.40625 194.785156 193.746094 197.824219 192.636719 200.753906 C 191.195312 204.601562 188.964844 208.117188 186.238281 211.273438 C 183.511719 214.433594 180.289062 217.234375 176.835938 219.691406 C 171.519531 223.433594 165.425781 226.390625 159.183594 227.644531 C 155.140625 228.457031 151.050781 228.5625 147.070312 227.761719 C 142.855469 226.914062 138.761719 224.734375 135.554688 221.757812 C 133.945312 220.253906 132.566406 218.574219 131.484375 216.769531 C 130.402344 214.964844 129.617188 213 129.214844 210.992188 C 128.910156 209.488281 128.828125 207.9375 128.9375 206.382812 C 129.0625 204.890625 129.417969 203.414062 129.882812 201.984375 C 130.625 199.84375 131.742188 197.761719 133.070312 195.765625 C 134.394531 193.769531 135.976562 191.882812 137.605469 190.089844 C 144.183594 182.894531 152.03125 176.976562 160.664062 172.367188 C 169.269531 167.765625 178.648438 164.445312 188.285156 162.539062 C 190.542969 162.085938 192.8125 161.695312 195.101562 161.398438 C 195.121094 161.820312 195.078125 162.25 195.039062 162.714844 Z M 195.039062 162.714844 " fill-opacity="1" fill-rule="nonzero"/></g></g></g></svg>