<svg xmlns="http://www.w3.org/2000/svg" xmlns:xlink="http://www.w3.org/1999/xlink" width="500" zoomAndPan="magnify" viewBox="0 0 375 374.999991" height="500" preserveAspectRatio="xMidYMid meet" version="1.0"><defs><g/><clipPath id="23245fe85f"><path d="M 110 128 L 317 128 L 317 301 L 110 301 Z M 110 128 " clip-rule="nonzero"/></clipPath><clipPath id="cbbaf8b8e5"><path d="M 96.699219 151.871094 L 296.363281 111.726562 L 331.570312 286.816406 L 131.902344 326.964844 Z M 96.699219 151.871094 " clip-rule="nonzero"/></clipPath><clipPath id="be67038fa5"><path d="M 96.699219 151.871094 L 296.363281 111.726562 L 331.570312 286.816406 L 131.902344 326.964844 Z M 96.699219 151.871094 " clip-rule="nonzero"/></clipPath></defs><path fill="#a3c9a8" d="M 257.570312 330.171875 C 255.871094 324.953125 255.816406 318.691406 254.652344 313.246094 C 253.757812 308.773438 252.492188 304.40625 250.859375 300.144531 C 248.351562 293.875 244.507812 288.132812 238.375 284.964844 C 225.890625 278.496094 209.035156 281.792969 195.878906 283.746094 C 155.292969 289.785156 109.351562 295.003906 69.84375 279.546875 C -8.230469 248.996094 -12.332031 126.898438 57.347656 84.847656 C 113.925781 50.707031 181.625 49.292969 245.296875 58.070312 C 277.820312 62.550781 313.746094 69.738281 338.734375 92.695312 C 368.734375 120.273438 370.628906 164.210938 365.554688 201.886719 C 360.382812 240.277344 329.855469 263.136719 293.234375 270.742188 C 287.902344 271.851562 287.664062 279.605469 286.5 283.835938 C 282.046875 299.996094 276.085938 324.746094 257.621094 330.328125 Z M 257.570312 330.171875 " fill-opacity="1" fill-rule="nonzero"/><g clip-path="url(#23245fe85f)"><g clip-path="url(#cbbaf8b8e5)"><g clip-path="url(#be67038fa5)"><path fill="#576d70" d="M 308.402344 183.042969 C 305.132812 178.039062 300.914062 173.683594 295.886719 170.402344 C 294.792969 169.691406 293.578125 169.023438 292.289062 168.464844 C 291.019531 162.261719 288.335938 156.457031 284.449219 151.597656 C 280.542969 146.703125 275.4375 142.753906 269.390625 140.363281 C 265.671875 138.886719 261.613281 137.859375 257.46875 137.382812 C 253.332031 136.921875 249.113281 137.011719 245.042969 137.828125 C 243.617188 138.117188 242.195312 138.496094 240.824219 138.960938 C 240.777344 138.914062 240.730469 138.867188 240.683594 138.820312 C 238.003906 136.359375 234.71875 134.285156 231.488281 132.671875 C 229.863281 131.878906 228.265625 131.191406 226.734375 130.664062 C 225.203125 130.136719 223.769531 129.722656 222.488281 129.484375 C 217.277344 128.5 212.085938 128.671875 207.066406 129.679688 C 200.824219 130.9375 194.820312 133.492188 189.320312 136.742188 C 188.234375 137.378906 187.042969 138.171875 185.878906 139.089844 C 179.652344 137.585938 173.21875 137.53125 167.066406 138.769531 C 159.144531 140.359375 151.648438 144.089844 145.527344 149.632812 C 143.019531 151.902344 139.40625 155.554688 136.566406 159.679688 C 135.160156 161.746094 133.929688 163.933594 133.160156 166.15625 C 133.074219 166.402344 132.992188 166.644531 132.929688 166.90625 C 129.5625 168.019531 126.519531 169.789062 123.855469 172.035156 C 118.839844 176.273438 115.125 182.167969 112.988281 188.636719 C 110.847656 195.109375 110.269531 202.136719 111.582031 208.675781 C 112.160156 211.539062 113.09375 214.296875 114.425781 216.859375 C 114.234375 217.144531 114.066406 217.445312 113.917969 217.742188 C 112.914062 219.632812 112.339844 221.703125 112.128906 223.855469 C 111.910156 225.988281 112.050781 228.203125 112.488281 230.375 C 113.273438 234.28125 115.011719 238.109375 117.414062 241.371094 C 118.617188 242.988281 119.976562 244.464844 121.484375 245.738281 C 122.992188 246.992188 124.628906 248.050781 126.375 248.800781 C 128.851562 249.878906 131.414062 250.523438 134.011719 250.796875 C 136.613281 251.070312 139.234375 250.980469 141.832031 250.574219 C 142.347656 250.488281 142.703125 250 142.621094 249.484375 C 142.535156 248.96875 142.046875 248.613281 141.53125 248.695312 C 139.101562 249.089844 136.628906 249.167969 134.222656 248.910156 C 131.796875 248.660156 129.417969 248.054688 127.125 247.054688 C 125.566406 246.378906 124.085938 245.441406 122.710938 244.273438 C 120.652344 242.542969 118.820312 240.328125 117.398438 237.878906 C 115.953125 235.414062 114.917969 232.714844 114.371094 230.015625 C 114.011719 228.226562 113.878906 226.429688 113.988281 224.699219 C 114.070312 223.40625 114.292969 222.148438 114.679688 220.949219 C 114.90625 220.199219 115.199219 219.476562 115.554688 218.796875 C 116.765625 220.757812 118.25 222.566406 119.980469 224.175781 C 121.265625 225.378906 122.941406 226.242188 124.730469 226.734375 C 126.519531 227.230469 128.441406 227.335938 130.25 226.972656 C 131.125 226.796875 131.996094 226.507812 132.785156 226.085938 C 133.59375 225.65625 134.320312 225.109375 134.960938 224.429688 C 135.878906 223.429688 136.480469 222.265625 136.773438 221.066406 C 137.058594 219.847656 137.058594 218.613281 136.816406 217.410156 C 136.574219 216.207031 136.09375 215.046875 135.433594 214.023438 C 134.765625 212.980469 133.917969 212.066406 132.902344 211.359375 C 131.664062 210.488281 130.269531 209.96875 128.816406 209.730469 C 127.359375 209.492188 125.871094 209.542969 124.445312 209.828125 C 123.515625 210.015625 122.625 210.308594 121.785156 210.667969 C 119.675781 211.605469 117.925781 212.832031 116.523438 214.253906 C 116.238281 214.539062 115.976562 214.839844 115.710938 215.136719 C 114.691406 212.988281 113.945312 210.6875 113.46875 208.316406 C 112.640625 204.207031 112.601562 199.847656 113.277344 195.570312 C 114.289062 189.15625 116.90625 182.910156 120.792969 177.96875 C 122.75 175.503906 125.011719 173.339844 127.558594 171.652344 C 129.097656 170.621094 130.734375 169.777344 132.460938 169.109375 C 132.449219 169.242188 132.421875 169.382812 132.410156 169.515625 C 132.296875 170.640625 132.3125 171.761719 132.527344 172.835938 C 132.71875 173.785156 133.058594 174.722656 133.558594 175.613281 C 134.0625 176.5 134.746094 177.347656 135.585938 178.128906 C 136.660156 179.128906 137.957031 179.816406 139.363281 180.199219 C 140.753906 180.585938 142.226562 180.648438 143.652344 180.363281 C 143.980469 180.296875 144.289062 180.21875 144.609375 180.113281 C 145.429688 179.855469 146.242188 179.445312 146.949219 178.902344 C 147.65625 178.363281 148.277344 177.667969 148.695312 176.824219 C 148.992188 176.214844 149.164062 175.570312 149.242188 174.910156 C 149.304688 174.269531 149.265625 173.613281 149.136719 172.972656 C 148.875 171.675781 148.273438 170.46875 147.429688 169.480469 C 146.730469 168.652344 145.894531 167.984375 144.988281 167.445312 C 143.628906 166.652344 142.089844 166.164062 140.53125 165.964844 C 138.96875 165.765625 137.347656 165.828125 135.816406 166.136719 C 135.742188 166.148438 135.667969 166.164062 135.578125 166.183594 C 135.429688 166.210938 135.285156 166.242188 135.160156 166.285156 C 135.386719 165.707031 135.644531 165.105469 135.929688 164.535156 C 137.238281 161.878906 139.152344 159.214844 141.152344 156.875 C 143.152344 154.535156 145.230469 152.503906 146.820312 151.0625 C 152.644531 145.734375 159.828125 142.160156 167.421875 140.632812 C 172.863281 139.539062 178.5 139.507812 184.023438 140.621094 C 183.457031 141.113281 182.917969 141.640625 182.398438 142.179688 C 181.019531 143.636719 179.800781 145.230469 178.984375 146.933594 C 178.585938 147.792969 178.289062 148.667969 178.128906 149.574219 C 177.988281 150.476562 177.984375 151.40625 178.167969 152.320312 C 178.367188 153.304688 178.769531 154.269531 179.429688 155.183594 C 180.066406 156.097656 180.945312 156.964844 182.058594 157.789062 C 183.152344 158.59375 184.417969 159.117188 185.726562 159.386719 C 187.03125 159.65625 188.398438 159.648438 189.695312 159.386719 C 191.101562 159.105469 192.445312 158.511719 193.59375 157.613281 C 195.003906 156.515625 196.03125 154.996094 196.628906 153.339844 C 197.226562 151.679688 197.371094 149.863281 197.023438 148.128906 C 196.90625 147.546875 196.738281 146.992188 196.511719 146.429688 C 196.152344 145.589844 195.695312 144.828125 195.136719 144.121094 C 194.296875 143.074219 193.285156 142.195312 192.15625 141.492188 C 191.046875 140.785156 189.8125 140.234375 188.574219 139.835938 C 188.453125 139.804688 188.3125 139.757812 188.191406 139.726562 C 188.90625 139.21875 189.613281 138.773438 190.277344 138.375 C 195.640625 135.207031 201.433594 132.75 207.421875 131.546875 C 212.222656 130.582031 217.167969 130.421875 222.109375 131.367188 C 223.886719 131.710938 226.097656 132.40625 228.421875 133.382812 C 231.910156 134.867188 235.648438 137.019531 238.652344 139.589844 C 238.71875 139.632812 238.765625 139.679688 238.816406 139.746094 C 236.242188 140.832031 233.820312 142.289062 231.609375 144.140625 C 230.324219 145.214844 229.25 146.570312 228.507812 148.085938 C 227.769531 149.605469 227.347656 151.285156 227.425781 152.996094 C 227.445312 153.5625 227.515625 154.101562 227.617188 154.609375 C 227.871094 155.871094 228.355469 156.96875 229.035156 157.878906 C 229.53125 158.558594 230.136719 159.117188 230.820312 159.589844 C 231.832031 160.277344 232.984375 160.710938 234.183594 160.90625 C 235.378906 161.105469 236.628906 161.082031 237.851562 160.835938 C 239.058594 160.59375 240.242188 160.144531 241.320312 159.472656 C 242.402344 158.800781 243.363281 157.921875 244.136719 156.855469 C 245.21875 155.34375 245.933594 153.796875 246.277344 152.285156 C 246.632812 150.75 246.617188 149.253906 246.328125 147.808594 C 246.082031 146.585938 245.632812 145.402344 245.03125 144.289062 C 244.324219 142.949219 243.386719 141.695312 242.3125 140.507812 C 243.332031 140.1875 244.359375 139.921875 245.402344 139.714844 C 249.234375 138.941406 253.261719 138.835938 257.246094 139.289062 C 261.207031 139.726562 265.113281 140.726562 268.683594 142.136719 C 274.417969 144.402344 279.25 148.125 282.960938 152.789062 C 286.390625 157.097656 288.863281 162.203125 290.148438 167.660156 C 289.539062 167.460938 288.910156 167.265625 288.273438 167.109375 C 286.890625 166.757812 285.476562 166.53125 284.078125 166.46875 C 282.675781 166.390625 281.289062 166.480469 279.9375 166.75 C 278.953125 166.949219 277.988281 167.257812 277.082031 167.667969 C 275.730469 168.300781 274.484375 169.195312 273.4375 170.414062 C 272.40625 171.609375 271.570312 173.125 271.019531 174.925781 C 270.488281 176.628906 270.425781 178.390625 270.753906 180.03125 C 271.089844 181.695312 271.816406 183.238281 272.898438 184.539062 C 273.976562 185.84375 275.402344 186.886719 277.085938 187.515625 C 278.113281 187.898438 279.128906 188.132812 280.089844 188.203125 C 281.078125 188.289062 282.015625 188.234375 282.929688 188.050781 C 284.570312 187.722656 286.058594 186.984375 287.339844 185.988281 C 289.257812 184.480469 290.753906 182.375 291.710938 180.054688 C 292.664062 177.71875 293.101562 175.160156 292.867188 172.679688 C 292.816406 172.046875 292.726562 171.398438 292.636719 170.769531 C 293.398438 171.148438 294.128906 171.574219 294.804688 172.007812 C 299.589844 175.128906 303.640625 179.308594 306.773438 184.113281 C 309.902344 188.914062 312.117188 194.339844 313.25 199.980469 C 313.542969 201.441406 313.765625 202.917969 313.910156 204.40625 C 314.042969 205.824219 314.078125 207.316406 313.976562 208.78125 C 313.808594 210.980469 313.292969 213.136719 312.378906 215.011719 C 311.917969 215.9375 311.351562 216.8125 310.675781 217.59375 C 309.996094 218.375 309.199219 219.050781 308.253906 219.621094 C 306.679688 220.582031 305.03125 221.179688 303.316406 221.523438 C 301.875 221.8125 300.390625 221.902344 298.878906 221.847656 C 296.621094 221.769531 294.328125 221.316406 292.074219 220.6875 C 289.816406 220.039062 287.59375 219.195312 285.5 218.304688 C 274.542969 213.613281 263.546875 207.847656 252.125 203.570312 C 246.414062 201.433594 240.589844 199.679688 234.621094 198.617188 C 228.929688 197.617188 223.085938 197.253906 217.078125 197.796875 C 217.632812 194.039062 218.644531 190.378906 220.121094 186.964844 C 221.585938 187.355469 223.066406 187.722656 224.53125 188.015625 C 230.925781 189.296875 237.457031 189.578125 243.792969 188.304688 C 245.5625 187.945312 247.308594 187.464844 249.050781 186.867188 C 250.308594 186.421875 251.585938 185.863281 252.792969 185.164062 C 254.597656 184.136719 256.292969 182.828125 257.546875 181.226562 C 258.183594 180.414062 258.710938 179.546875 259.070312 178.601562 C 259.449219 177.652344 259.683594 176.636719 259.710938 175.546875 C 259.726562 174.878906 259.675781 174.246094 259.546875 173.605469 C 259.359375 172.675781 259.03125 171.792969 258.582031 170.96875 C 257.914062 169.734375 256.988281 168.628906 255.898438 167.730469 C 254.824219 166.824219 253.574219 166.089844 252.242188 165.613281 C 250.726562 165.066406 249.15625 164.8125 247.589844 164.765625 C 246.023438 164.71875 244.441406 164.886719 242.90625 165.195312 C 241.847656 165.40625 240.804688 165.691406 239.785156 166.011719 C 235.988281 167.25 232.582031 169.09375 229.625 171.398438 C 225.171875 174.855469 221.703125 179.335938 219.242188 184.386719 C 219.1875 184.492188 219.132812 184.597656 219.097656 184.703125 C 214.898438 183.457031 210.789062 181.832031 206.882812 179.976562 C 204.363281 178.773438 201.859375 177.472656 199.296875 176.242188 C 196.75 175.007812 194.136719 173.820312 191.421875 172.886719 C 188.847656 171.996094 186.222656 171.40625 183.609375 171.152344 C 180.992188 170.898438 178.375 171.007812 175.800781 171.527344 C 173.316406 172.023438 170.875 172.914062 168.5 174.226562 C 163.335938 177.089844 158.90625 181.304688 155.570312 186.269531 C 152.238281 191.230469 150 196.921875 149.242188 202.773438 C 148.996094 204.667969 148.933594 206.730469 149.332031 208.703125 C 149.523438 209.652344 149.824219 210.597656 150.265625 211.457031 C 150.707031 212.335938 151.304688 213.128906 152.085938 213.808594 C 152.292969 213.996094 152.519531 214.175781 152.742188 214.339844 C 152.441406 215.007812 152.152344 215.65625 151.875 216.246094 C 150.28125 219.753906 148.992188 223.546875 148.308594 227.425781 C 147.609375 231.308594 147.515625 235.296875 148.300781 239.1875 C 148.703125 241.195312 149.34375 243.15625 150.257812 245.0625 C 151.378906 247.417969 152.816406 249.464844 154.492188 251.179688 C 157.007812 253.773438 160.0625 255.644531 163.410156 256.816406 C 166.765625 258 170.4375 258.5 174.191406 258.371094 C 176.507812 258.285156 178.789062 257.996094 181.035156 257.546875 C 183.589844 257.03125 186.105469 256.316406 188.601562 255.511719 C 192.652344 254.203125 196.421875 252.363281 200.183594 250.65625 C 203.941406 248.949219 207.675781 247.402344 211.675781 246.597656 C 212.203125 246.492188 212.738281 246.402344 213.269531 246.316406 C 215.6875 245.960938 218.066406 245.617188 220.441406 245.328125 C 220.972656 247.027344 221.757812 248.65625 222.695312 250.214844 C 224.652344 253.429688 227.324219 256.3125 230.25 258.78125 C 233.179688 261.25 236.320312 263.277344 239.242188 264.761719 C 241.84375 266.082031 244.496094 267.273438 247.082031 268.523438 C 249.667969 269.769531 252.175781 271.085938 254.507812 272.671875 C 257.585938 274.75 259.902344 277.207031 261.644531 280.011719 C 263.386719 282.8125 264.550781 285.960938 265.242188 289.410156 C 265.484375 290.617188 265.679688 291.867188 265.804688 293.152344 C 266.003906 294.996094 265.816406 297.273438 265.28125 299.8125 C 265.175781 300.328125 265.507812 300.832031 266.023438 300.9375 C 266.535156 301.042969 267.039062 300.710938 267.144531 300.199219 C 267.710938 297.519531 267.917969 295.066406 267.699219 292.945312 C 267.566406 291.605469 267.359375 290.296875 267.101562 289.019531 C 266.371094 285.386719 265.140625 282.003906 263.261719 278.984375 C 261.378906 275.960938 258.851562 273.296875 255.570312 271.070312 C 253.128906 269.414062 250.523438 268.058594 247.914062 266.796875 C 245.285156 265.539062 242.636719 264.363281 240.09375 263.050781 C 236.390625 261.171875 232.203125 258.292969 228.769531 254.824219 C 227.050781 253.078125 225.515625 251.203125 224.316406 249.203125 C 223.496094 247.867188 222.84375 246.5 222.371094 245.09375 C 223.804688 244.957031 225.246094 244.855469 226.660156 244.800781 C 231.035156 244.640625 235.328125 245.015625 239.496094 246.378906 C 244.335938 247.96875 249.285156 249.902344 254.339844 251.238281 C 256.867188 251.910156 259.421875 252.421875 261.996094 252.664062 C 264.570312 252.90625 267.183594 252.875 269.8125 252.421875 C 270.066406 252.371094 270.34375 252.332031 270.597656 252.28125 C 272.5 251.902344 274.402344 251.269531 276.140625 250.371094 C 277.875 249.453125 279.476562 248.257812 280.765625 246.722656 C 282.234375 244.964844 283.183594 242.875 283.636719 240.695312 C 284.089844 238.515625 284.082031 236.199219 283.636719 233.992188 C 283.179688 231.707031 282.257812 229.5 280.941406 227.578125 C 279.011719 224.777344 276.371094 222.609375 273.417969 221.039062 C 270.460938 219.46875 267.164062 218.476562 263.851562 218.0625 C 262.15625 217.851562 260.492188 217.976562 258.867188 218.304688 C 256.367188 218.808594 253.957031 219.765625 251.589844 220.753906 C 249.222656 221.726562 246.910156 222.703125 244.652344 223.269531 C 244.105469 223.398438 243.542969 223.53125 242.980469 223.644531 C 241.628906 223.917969 240.175781 224.152344 238.703125 224.390625 C 237.214844 224.632812 235.683594 224.867188 234.1875 225.167969 C 231.558594 225.695312 228.964844 226.40625 226.699219 227.601562 C 225.566406 228.210938 224.515625 228.933594 223.59375 229.824219 C 222.667969 230.710938 221.894531 231.777344 221.292969 233.019531 C 220.449219 234.785156 219.945312 236.539062 219.746094 238.289062 C 219.546875 240.019531 219.644531 241.746094 219.980469 243.410156 C 219.984375 243.425781 219.992188 243.464844 219.996094 243.480469 C 217.675781 243.757812 215.347656 244.09375 213.027344 244.445312 C 212.453125 244.523438 211.886719 244.636719 211.320312 244.75 C 207.085938 245.601562 203.214844 247.234375 199.4375 248.945312 C 195.640625 250.65625 191.941406 252.464844 188.070312 253.71875 C 185.628906 254.511719 183.183594 255.195312 180.71875 255.691406 C 178.5625 256.125 176.398438 256.40625 174.191406 256.488281 C 169.460938 256.664062 164.945312 255.746094 161.121094 253.742188 C 159.210938 252.738281 157.449219 251.441406 155.917969 249.867188 C 154.386719 248.296875 153.078125 246.429688 152.035156 244.25 C 151.1875 242.5 150.613281 240.679688 150.238281 238.816406 C 149.515625 235.21875 149.59375 231.460938 150.257812 227.757812 C 150.917969 224.054688 152.140625 220.40625 153.683594 217.019531 C 153.933594 216.476562 154.195312 215.890625 154.457031 215.308594 C 154.476562 215.304688 154.480469 215.320312 154.5 215.316406 C 155.753906 215.902344 157.089844 216.203125 158.476562 216.304688 C 159.863281 216.402344 161.28125 216.269531 162.6875 215.988281 C 165.5 215.421875 168.292969 214.214844 170.703125 212.6875 C 171.914062 211.910156 173.019531 211.082031 174 210.179688 C 174.976562 209.28125 175.8125 208.335938 176.476562 207.382812 C 177.195312 206.328125 177.699219 205.164062 177.976562 203.988281 C 178.253906 202.808594 178.296875 201.605469 178.066406 200.457031 C 177.9375 199.816406 177.714844 199.195312 177.414062 198.628906 C 176.9375 197.777344 176.253906 197.019531 175.347656 196.480469 C 174.441406 195.941406 173.347656 195.609375 172.0625 195.546875 C 171.003906 195.472656 169.996094 195.5625 169.027344 195.757812 C 167.878906 195.988281 166.796875 196.375 165.78125 196.902344 C 164.011719 197.828125 162.433594 199.132812 161.011719 200.671875 C 158.894531 202.980469 157.136719 205.765625 155.660156 208.53125 C 154.929688 209.910156 154.253906 211.265625 153.640625 212.566406 C 153.570312 212.503906 153.5 212.441406 153.433594 212.378906 C 152.855469 211.867188 152.390625 211.257812 152.042969 210.570312 C 151.695312 209.878906 151.425781 209.117188 151.265625 208.3125 C 150.933594 206.652344 150.96875 204.761719 151.1875 203.011719 C 151.902344 197.492188 154.035156 192.046875 157.207031 187.324219 C 160.382812 182.601562 164.605469 178.582031 169.496094 175.890625 C 171.683594 174.671875 173.949219 173.855469 176.25 173.390625 C 178.625 172.914062 181.054688 172.804688 183.511719 173.035156 C 185.949219 173.265625 188.421875 173.832031 190.886719 174.664062 C 193.5 175.566406 196.027344 176.710938 198.550781 177.929688 C 201.078125 179.152344 203.578125 180.453125 206.144531 181.683594 C 210.050781 183.539062 214.179688 185.179688 218.382812 186.441406 C 216.839844 190.09375 215.785156 194.011719 215.242188 198.015625 C 213.703125 198.210938 212.175781 198.460938 210.660156 198.765625 C 204.875 199.925781 199.25 201.914062 194.070312 204.683594 C 188.894531 207.453125 184.140625 211.027344 180.152344 215.382812 C 178.8125 216.832031 177.539062 218.433594 176.527344 220.214844 C 176.023438 221.09375 175.597656 222.015625 175.265625 222.996094 C 174.925781 223.957031 174.710938 224.96875 174.617188 226.011719 C 174.515625 227.117188 174.597656 228.183594 174.808594 229.222656 C 175.089844 230.628906 175.625 231.964844 176.34375 233.1875 C 177.433594 235.019531 178.957031 236.632812 180.730469 237.890625 C 182.5 239.148438 184.523438 240.050781 186.664062 240.496094 C 189.277344 241.015625 191.921875 240.9375 194.476562 240.425781 C 198.4375 239.628906 202.191406 237.792969 205.472656 235.5 C 207.585938 234.007812 209.574219 232.28125 211.28125 230.285156 C 212.992188 228.308594 214.402344 226.066406 215.332031 223.601562 C 216.035156 221.710938 216.449219 219.804688 216.675781 217.898438 C 217.007812 215.019531 216.941406 212.144531 216.84375 209.296875 C 216.746094 206.449219 216.636719 203.640625 216.855469 200.9375 C 216.890625 200.550781 216.925781 200.164062 216.957031 199.757812 C 222.9375 199.164062 228.722656 199.5 234.414062 200.503906 C 243.15625 202.050781 251.625 205.152344 259.988281 208.769531 C 268.351562 212.390625 276.589844 216.507812 284.863281 220.066406 C 287.714844 221.296875 290.847656 222.433594 294.046875 223.121094 C 295.652344 223.464844 297.273438 223.6875 298.921875 223.757812 C 300.550781 223.828125 302.179688 223.707031 303.804688 223.382812 C 305.703125 223 307.574219 222.300781 309.339844 221.242188 C 310.8125 220.359375 312.007812 219.207031 312.960938 217.914062 C 314.371094 215.957031 315.226562 213.679688 315.660156 211.3125 C 316.097656 208.945312 316.140625 206.523438 315.910156 204.234375 C 315.75 202.6875 315.535156 201.136719 315.230469 199.621094 C 313.964844 193.703125 311.648438 188.050781 308.402344 183.042969 Z M 117.371094 216.019531 C 118.65625 214.566406 120.339844 213.316406 122.503906 212.347656 C 123.21875 212.035156 123.984375 211.785156 124.769531 211.625 C 125.992188 211.378906 127.257812 211.335938 128.453125 211.53125 C 129.652344 211.726562 130.785156 212.164062 131.757812 212.84375 C 132.554688 213.40625 133.253906 214.136719 133.78125 214.980469 C 134.332031 215.820312 134.710938 216.769531 134.902344 217.71875 C 135.097656 218.6875 135.101562 219.652344 134.867188 220.554688 C 134.652344 221.472656 134.214844 222.320312 133.511719 223.070312 C 133.023438 223.585938 132.464844 224.019531 131.847656 224.335938 C 131.230469 224.667969 130.535156 224.902344 129.804688 225.050781 C 128.328125 225.347656 126.675781 225.261719 125.148438 224.847656 C 123.621094 224.433594 122.21875 223.6875 121.191406 222.734375 C 119.34375 221.019531 117.808594 219.046875 116.601562 216.914062 C 116.851562 216.636719 117.09375 216.34375 117.371094 216.019531 Z M 135.949219 168.027344 C 136.019531 168.011719 136.074219 168 136.148438 167.988281 C 137.921875 167.632812 139.839844 167.644531 141.566406 168.09375 C 142.425781 168.320312 143.253906 168.648438 143.984375 169.070312 C 144.71875 169.511719 145.375 170.042969 145.925781 170.695312 C 146.570312 171.4375 147.027344 172.390625 147.214844 173.339844 C 147.308594 173.796875 147.34375 174.265625 147.300781 174.710938 C 147.257812 175.15625 147.136719 175.578125 146.945312 175.960938 C 146.675781 176.507812 146.257812 176.972656 145.75 177.378906 C 145.238281 177.765625 144.617188 178.078125 143.976562 178.285156 C 143.726562 178.375 143.488281 178.421875 143.234375 178.472656 C 142.121094 178.695312 140.933594 178.648438 139.828125 178.339844 C 138.71875 178.03125 137.679688 177.480469 136.835938 176.699219 C 136.117188 176.046875 135.578125 175.359375 135.167969 174.640625 C 134.761719 173.925781 134.5 173.199219 134.347656 172.433594 C 134.167969 171.558594 134.140625 170.652344 134.25 169.699219 C 134.296875 169.269531 134.382812 168.835938 134.480469 168.378906 C 134.953125 168.265625 135.4375 168.128906 135.949219 168.027344 Z M 188.011719 141.660156 C 189.472656 142.125 190.886719 142.832031 192.082031 143.765625 C 192.671875 144.238281 193.210938 144.757812 193.667969 145.328125 C 194.125 145.902344 194.496094 146.511719 194.785156 147.195312 C 194.964844 147.613281 195.089844 148.0625 195.183594 148.519531 C 195.457031 149.890625 195.339844 151.375 194.851562 152.726562 C 194.382812 154.074219 193.542969 155.289062 192.441406 156.136719 C 191.535156 156.832031 190.472656 157.3125 189.324219 157.542969 C 188.265625 157.753906 187.144531 157.753906 186.09375 157.546875 C 185.027344 157.34375 184.03125 156.917969 183.164062 156.292969 C 182.1875 155.578125 181.46875 154.847656 180.964844 154.132812 C 180.460938 153.417969 180.164062 152.699219 180.015625 151.96875 C 179.894531 151.367188 179.886719 150.757812 179.953125 150.136719 C 180.09375 149.046875 180.53125 147.914062 181.199219 146.792969 C 182.191406 145.109375 183.679688 143.445312 185.324219 141.992188 C 185.648438 141.71875 185.972656 141.445312 186.28125 141.171875 C 186.878906 141.320312 187.441406 141.472656 188.011719 141.660156 Z M 242.460938 143.707031 C 243.476562 145.152344 244.175781 146.648438 244.480469 148.164062 C 244.722656 149.367188 244.71875 150.582031 244.4375 151.835938 C 244.140625 153.09375 243.566406 154.386719 242.601562 155.738281 C 241.980469 156.605469 241.191406 157.3125 240.3125 157.851562 C 239.429688 158.390625 238.464844 158.773438 237.476562 158.972656 C 236.582031 159.152344 235.679688 159.183594 234.820312 159.070312 C 234.175781 158.992188 233.554688 158.832031 232.976562 158.585938 C 232.105469 158.230469 231.351562 157.695312 230.753906 156.980469 C 230.152344 156.265625 229.707031 155.367188 229.480469 154.238281 C 229.398438 153.835938 229.347656 153.390625 229.328125 152.917969 C 229.277344 151.542969 229.609375 150.164062 230.230469 148.898438 C 230.847656 147.636719 231.757812 146.484375 232.84375 145.5625 C 234.664062 144.039062 236.65625 142.785156 238.761719 141.828125 C 239.28125 141.589844 239.808594 141.371094 240.351562 141.148438 C 241.148438 141.992188 241.871094 142.835938 242.460938 143.707031 Z M 291.023438 172.859375 C 291.15625 174.277344 291.039062 175.765625 290.703125 177.21875 C 290.191406 179.390625 289.144531 181.464844 287.738281 183.058594 C 287.042969 183.863281 286.253906 184.554688 285.390625 185.085938 C 284.53125 185.621094 283.597656 186 282.613281 186.195312 C 281.882812 186.34375 281.113281 186.382812 280.320312 186.316406 C 279.527344 186.246094 278.671875 186.058594 277.808594 185.738281 C 276.433594 185.214844 275.296875 184.382812 274.417969 183.324219 C 273.539062 182.265625 272.945312 181 272.671875 179.648438 C 272.402344 178.296875 272.453125 176.859375 272.875 175.464844 C 273.195312 174.414062 273.621094 173.492188 274.125 172.707031 C 274.878906 171.53125 275.78125 170.644531 276.84375 169.976562 C 277.886719 169.308594 279.070312 168.863281 280.367188 168.601562 C 281.515625 168.371094 282.753906 168.292969 284.023438 168.363281 C 285.921875 168.453125 287.886719 168.875 289.742188 169.511719 C 290.050781 169.621094 290.339844 169.730469 290.628906 169.84375 C 290.789062 170.839844 290.914062 171.839844 291.023438 172.859375 Z M 221.800781 243.023438 C 221.503906 241.542969 221.425781 240.019531 221.597656 238.503906 C 221.78125 236.96875 222.210938 235.417969 222.976562 233.839844 C 223.46875 232.792969 224.128906 231.917969 224.890625 231.175781 C 226.050781 230.050781 227.496094 229.207031 229.128906 228.539062 C 230.777344 227.863281 232.621094 227.398438 234.519531 227.015625 C 235.980469 226.722656 237.488281 226.476562 238.960938 226.238281 C 240.449219 225.996094 241.925781 225.777344 243.3125 225.496094 C 243.914062 225.375 244.496094 225.238281 245.078125 225.105469 C 247.539062 224.496094 249.914062 223.464844 252.265625 222.5 C 254.617188 221.535156 256.917969 220.613281 259.183594 220.160156 C 260.660156 219.863281 262.105469 219.761719 263.566406 219.941406 C 266.667969 220.34375 269.738281 221.265625 272.464844 222.730469 C 275.191406 224.195312 277.582031 226.167969 279.320312 228.683594 C 280.496094 230.367188 281.3125 232.347656 281.722656 234.394531 C 282.121094 236.367188 282.132812 238.414062 281.742188 240.335938 C 281.347656 242.257812 280.527344 244.035156 279.273438 245.542969 C 278.171875 246.867188 276.785156 247.90625 275.222656 248.730469 C 273.675781 249.535156 271.949219 250.113281 270.195312 250.464844 C 269.957031 250.511719 269.703125 250.5625 269.460938 250.59375 C 267.019531 251.007812 264.59375 251.039062 262.136719 250.8125 C 258.476562 250.464844 254.792969 249.535156 251.105469 248.375 C 247.414062 247.21875 243.734375 245.832031 240.054688 244.632812 C 235.621094 243.167969 231.101562 242.804688 226.574219 242.957031 C 224.988281 243.007812 223.402344 243.136719 221.816406 243.285156 C 221.832031 243.167969 221.816406 243.097656 221.800781 243.023438 Z M 156.277344 211.3125 C 157.792969 208.273438 159.621094 205.09375 161.789062 202.550781 C 162.882812 201.285156 164.046875 200.175781 165.304688 199.335938 C 166.554688 198.476562 167.898438 197.882812 169.320312 197.597656 C 170.125 197.4375 170.96875 197.378906 171.851562 197.429688 C 172.523438 197.464844 173.121094 197.59375 173.59375 197.78125 C 174.335938 198.070312 174.875 198.476562 175.28125 198.984375 C 175.6875 199.488281 175.964844 200.117188 176.105469 200.8125 C 176.269531 201.632812 176.25 202.585938 176.023438 203.523438 C 175.796875 204.480469 175.382812 205.4375 174.8125 206.292969 C 174.253906 207.109375 173.527344 207.9375 172.632812 208.765625 C 171.300781 209.984375 169.648438 211.132812 167.863281 212.078125 C 166.078125 213.007812 164.132812 213.742188 162.234375 214.121094 C 160.539062 214.464844 158.863281 214.535156 157.363281 214.265625 C 156.613281 214.132812 155.886719 213.917969 155.214844 213.597656 C 155.199219 213.601562 155.195312 213.582031 155.171875 213.566406 C 155.535156 212.828125 155.898438 212.074219 156.277344 211.3125 Z M 223.644531 180.578125 C 225.640625 177.648438 228.019531 175.042969 230.832031 172.863281 C 233.621094 170.6875 236.828125 168.960938 240.410156 167.785156 C 241.355469 167.480469 242.34375 167.207031 243.328125 167.007812 C 244.753906 166.722656 246.183594 166.566406 247.582031 166.609375 C 248.976562 166.652344 250.351562 166.886719 251.660156 167.347656 C 253.132812 167.867188 254.515625 168.785156 255.601562 169.9375 C 256.132812 170.511719 256.601562 171.140625 256.964844 171.808594 C 257.328125 172.476562 257.582031 173.183594 257.730469 173.914062 C 257.828125 174.40625 257.875 174.910156 257.863281 175.425781 C 257.824219 176.554688 257.523438 177.601562 257.015625 178.578125 C 256.628906 179.300781 256.125 180.011719 255.53125 180.644531 C 254.644531 181.621094 253.523438 182.472656 252.304688 183.210938 C 251.085938 183.949219 249.765625 184.558594 248.449219 185.011719 C 246.800781 185.589844 245.140625 186.039062 243.445312 186.378906 C 237.417969 187.589844 231.136719 187.332031 224.925781 186.09375 C 223.597656 185.828125 222.261719 185.507812 220.9375 185.167969 C 221.746094 183.601562 222.648438 182.050781 223.644531 180.578125 Z M 214.875 200.726562 C 214.578125 204.546875 214.894531 208.378906 214.941406 212.113281 C 214.953125 213.96875 214.925781 215.816406 214.714844 217.609375 C 214.507812 219.398438 214.121094 221.164062 213.476562 222.871094 C 212.636719 225.113281 211.335938 227.15625 209.75 228.996094 C 208.164062 230.835938 206.289062 232.464844 204.277344 233.894531 C 201.183594 236.074219 197.632812 237.796875 194 238.527344 C 191.644531 239 189.265625 239.0625 186.949219 238.597656 C 184.492188 238.101562 182.113281 236.832031 180.242188 235.101562 C 179.308594 234.226562 178.503906 233.246094 177.875 232.195312 C 177.246094 231.144531 176.789062 230 176.550781 228.832031 C 176.375 227.957031 176.328125 227.054688 176.390625 226.148438 C 176.464844 225.28125 176.671875 224.421875 176.941406 223.589844 C 177.375 222.34375 178.023438 221.128906 178.796875 219.96875 C 179.570312 218.804688 180.488281 217.707031 181.4375 216.664062 C 185.269531 212.472656 189.835938 209.027344 194.863281 206.347656 C 199.871094 203.667969 205.332031 201.734375 210.941406 200.625 C 212.253906 200.363281 213.578125 200.132812 214.910156 199.960938 C 214.921875 200.207031 214.894531 200.457031 214.875 200.726562 Z M 214.875 200.726562 " fill-opacity="1" fill-rule="nonzero"/></g></g></g><g fill="#526554" fill-opacity="1"><g transform="translate(49.169489, 193.039308)"><g><path d="M 7.8125 -8.234375 C 6.582031 -6.734375 5.238281 -5.625 3.78125 -4.90625 C 2.320312 -4.195312 0.867188 -3.914062 -0.578125 -4.0625 C -2.035156 -4.21875 -3.382812 -4.804688 -4.625 -5.828125 C -5.664062 -6.679688 -6.4375 -7.675781 -6.9375 -8.8125 C -7.4375 -9.957031 -7.625 -11.109375 -7.5 -12.265625 C -7.382812 -13.429688 -6.960938 -14.46875 -6.234375 -15.375 C -5.546875 -16.207031 -4.757812 -16.738281 -3.875 -16.96875 C -2.988281 -17.207031 -2.113281 -17.097656 -1.25 -16.640625 C -2.269531 -15.398438 -2.753906 -14.140625 -2.703125 -12.859375 C -2.648438 -11.585938 -2.066406 -10.492188 -0.953125 -9.578125 C 0.078125 -8.734375 1.15625 -8.367188 2.28125 -8.484375 C 3.40625 -8.597656 4.390625 -9.164062 5.234375 -10.1875 C 6.265625 -11.445312 6.691406 -12.832031 6.515625 -14.34375 C 6.335938 -15.863281 5.609375 -17.148438 4.328125 -18.203125 C 3.203125 -19.117188 1.882812 -19.679688 0.375 -19.890625 C -1.132812 -20.097656 -3.109375 -20.164062 -5.546875 -20.09375 C -8.085938 -20.019531 -10.15625 -20.085938 -11.75 -20.296875 C -13.34375 -20.503906 -14.773438 -21.128906 -16.046875 -22.171875 C -17.285156 -23.179688 -18.113281 -24.4375 -18.53125 -25.9375 C -18.957031 -27.445312 -18.957031 -29.046875 -18.53125 -30.734375 C -18.113281 -32.421875 -17.28125 -34.023438 -16.03125 -35.546875 C -14.445312 -37.472656 -12.726562 -38.644531 -10.875 -39.0625 C -9.019531 -39.476562 -7.328125 -39.0625 -5.796875 -37.8125 C -4.796875 -36.988281 -4.1875 -36.070312 -3.96875 -35.0625 C -3.757812 -34.0625 -3.988281 -33.148438 -4.65625 -32.328125 C -5.40625 -31.421875 -6.375 -30.992188 -7.5625 -31.046875 C -7.519531 -31.785156 -7.664062 -32.507812 -8 -33.21875 C -8.34375 -33.9375 -8.8125 -34.539062 -9.40625 -35.03125 C -10.164062 -35.644531 -10.957031 -35.910156 -11.78125 -35.828125 C -12.601562 -35.742188 -13.335938 -35.3125 -13.984375 -34.53125 C -14.765625 -33.570312 -15.066406 -32.507812 -14.890625 -31.34375 C -14.710938 -30.175781 -14.097656 -29.164062 -13.046875 -28.3125 C -12.085938 -27.519531 -10.972656 -27.0625 -9.703125 -26.9375 C -8.429688 -26.820312 -6.671875 -26.820312 -4.421875 -26.9375 C -2.609375 -27.050781 -1.097656 -27.097656 0.109375 -27.078125 C 1.328125 -27.054688 2.585938 -26.859375 3.890625 -26.484375 C 5.203125 -26.109375 6.421875 -25.460938 7.546875 -24.546875 C 9.078125 -23.296875 10.113281 -21.738281 10.65625 -19.875 C 11.207031 -18.007812 11.238281 -16.050781 10.75 -14 C 10.257812 -11.945312 9.28125 -10.023438 7.8125 -8.234375 Z M 7.8125 -8.234375 "/></g></g></g><g fill="#526554" fill-opacity="1"><g transform="translate(62.428455, 175.765929)"><g><path d="M -10.59375 -33.4375 C -11.800781 -31.28125 -12.269531 -29.113281 -12 -26.9375 C -11.738281 -24.769531 -10.722656 -22.726562 -8.953125 -20.8125 C -8.160156 -19.9375 -7.539062 -19.410156 -7.09375 -19.234375 C -6.644531 -19.066406 -6.390625 -18.953125 -6.328125 -18.890625 C -8.753906 -16.648438 -10.914062 -16.5625 -12.8125 -18.625 C -14.101562 -20.03125 -14.863281 -21.9375 -15.09375 -24.34375 C -15.320312 -26.75 -15.003906 -29.175781 -14.140625 -31.625 C -13.273438 -34.082031 -12 -36.085938 -10.3125 -37.640625 C -9.476562 -38.410156 -8.476562 -39.046875 -7.3125 -39.546875 L 8.421875 -20.890625 L -0.59375 -45.71875 L 4.296875 -50.234375 L 23.78125 -21.890625 L 18.890625 -17.390625 L 7 -34.671875 L 14.671875 -13.5 L 10 -9.203125 L -3.4375 -25.171875 L 5 -4.609375 L 2.28125 -2.09375 Z M -10.59375 -33.4375 "/></g></g></g><g fill="#526554" fill-opacity="1"><g transform="translate(85.447173, 154.236384)"><g><path d="M 13.859375 -8.828125 C 11.316406 -7.140625 8.984375 -6.484375 6.859375 -6.859375 C 4.734375 -7.234375 2.859375 -8.644531 1.234375 -11.09375 C 0.429688 -12.300781 -0.285156 -13.765625 -0.921875 -15.484375 L -7.390625 -33.734375 C -9.203125 -31.679688 -10.222656 -29.492188 -10.453125 -27.171875 C -10.691406 -24.859375 -10.21875 -22.800781 -9.03125 -21 C -8.195312 -19.738281 -7.050781 -18.734375 -5.59375 -17.984375 C -7.050781 -17.015625 -8.421875 -16.625 -9.703125 -16.8125 C -10.992188 -17 -12.070312 -17.742188 -12.9375 -19.046875 C -14.050781 -20.710938 -14.441406 -22.757812 -14.109375 -25.1875 C -13.785156 -27.613281 -12.8125 -30.03125 -11.1875 -32.4375 C -9.570312 -34.851562 -7.519531 -36.890625 -5.03125 -38.546875 C -4.15625 -39.128906 -3.390625 -39.539062 -2.734375 -39.78125 L 4.390625 -18.875 C 5.023438 -16.957031 5.726562 -15.421875 6.5 -14.265625 C 8.113281 -11.828125 9.925781 -11.273438 11.9375 -12.609375 C 14.8125 -14.523438 15.046875 -18.488281 12.640625 -24.5 L 4.640625 -44.875 L 10.09375 -48.484375 L 18.1875 -28.1875 C 19.875 -23.875 20.347656 -20.082031 19.609375 -16.8125 C 18.878906 -13.550781 16.960938 -10.890625 13.859375 -8.828125 Z M 13.859375 -8.828125 "/></g></g></g><g fill="#526554" fill-opacity="1"><g transform="translate(109.943076, 138.373053)"><g/></g></g><g fill="#526554" fill-opacity="1"><g transform="translate(116.105546, 134.993047)"><g/></g></g><g fill="#bfd9c2" fill-opacity="1"><g transform="translate(121.40638, 131.664043)"><g><path d="M 21.625 -28.40625 C 21.851562 -28.082031 22.03125 -27.765625 22.15625 -27.453125 C 22.539062 -26.441406 22.519531 -25.34375 22.09375 -24.15625 C 21.675781 -22.976562 20.960938 -21.976562 19.953125 -21.15625 C 19.515625 -20.820312 18.96875 -20.523438 18.3125 -20.265625 C 18.988281 -17.734375 19.085938 -15.3125 18.609375 -13 C 18.140625 -10.6875 17.132812 -8.644531 15.59375 -6.875 C 14.0625 -5.113281 12.097656 -3.773438 9.703125 -2.859375 C 6.972656 -1.804688 4.554688 -1.664062 2.453125 -2.4375 C 0.347656 -3.21875 -1.15625 -4.785156 -2.0625 -7.140625 C -2.664062 -8.722656 -2.910156 -10.414062 -2.796875 -12.21875 C -2.679688 -14.03125 -2.226562 -15.734375 -1.4375 -17.328125 C -0.644531 -18.921875 0.398438 -20.21875 1.703125 -21.21875 L 1.640625 -21.390625 C 0.453125 -21.796875 -0.488281 -22.34375 -1.1875 -23.03125 C -1.882812 -23.726562 -2.46875 -24.691406 -2.9375 -25.921875 C -3.539062 -27.472656 -3.679688 -29.097656 -3.359375 -30.796875 C -3.035156 -32.492188 -2.304688 -34.03125 -1.171875 -35.40625 C -0.0351562 -36.78125 1.382812 -37.796875 3.09375 -38.453125 C 5.039062 -39.203125 6.863281 -39.257812 8.5625 -38.625 C 10.257812 -38 11.441406 -36.820312 12.109375 -35.09375 C 12.566406 -33.914062 12.632812 -32.832031 12.3125 -31.84375 C 12 -30.863281 11.351562 -30.1875 10.375 -29.8125 C 9.28125 -29.394531 8.234375 -29.503906 7.234375 -30.140625 C 7.628906 -30.648438 7.863281 -31.300781 7.9375 -32.09375 C 8.007812 -32.894531 7.90625 -33.664062 7.625 -34.40625 C 7.3125 -35.207031 6.863281 -35.757812 6.28125 -36.0625 C 5.695312 -36.375 5.0625 -36.394531 4.375 -36.125 C 3.625 -35.84375 3.015625 -35.28125 2.546875 -34.4375 C 2.078125 -33.601562 1.816406 -32.617188 1.765625 -31.484375 C 1.722656 -30.359375 1.90625 -29.265625 2.3125 -28.203125 C 2.863281 -26.765625 3.722656 -25.695312 4.890625 -25 C 6.054688 -24.3125 7.382812 -24.050781 8.875 -24.21875 L 8.9375 -24.046875 C 7.675781 -23.273438 6.640625 -22.160156 5.828125 -20.703125 C 5.023438 -19.242188 4.539062 -17.664062 4.375 -15.96875 C 4.21875 -14.28125 4.421875 -12.703125 4.984375 -11.234375 C 5.554688 -9.742188 6.378906 -8.722656 7.453125 -8.171875 C 8.523438 -7.628906 9.722656 -7.613281 11.046875 -8.125 C 12.285156 -8.601562 13.375 -9.414062 14.3125 -10.5625 C 15.25 -11.71875 15.910156 -13.082031 16.296875 -14.65625 C 16.691406 -16.226562 16.738281 -17.84375 16.4375 -19.5 C 15.800781 -19.25 15.171875 -18.914062 14.546875 -18.5 C 13.160156 -17.351562 12.316406 -16.148438 12.015625 -14.890625 L 11.90625 -14.796875 C 11.425781 -15.078125 10.96875 -15.488281 10.53125 -16.03125 C 10.28125 -16.34375 10.078125 -16.695312 9.921875 -17.09375 C 9.546875 -18.070312 9.550781 -19.082031 9.9375 -20.125 C 10.332031 -21.175781 10.988281 -22.054688 11.90625 -22.765625 C 12.613281 -23.304688 13.648438 -23.90625 15.015625 -24.5625 C 15.953125 -24.988281 16.734375 -25.410156 17.359375 -25.828125 C 17.953125 -26.265625 18.492188 -26.851562 18.984375 -27.59375 C 19.472656 -28.332031 19.804688 -29 19.984375 -29.59375 L 20.0625 -29.625 C 20.664062 -29.363281 21.1875 -28.957031 21.625 -28.40625 Z M 21.625 -28.40625 "/></g></g></g><g fill="#526554" fill-opacity="1"><g transform="translate(147.34309, 122.010902)"><g/></g></g><g fill="#526554" fill-opacity="1"><g transform="translate(152.927912, 119.514541)"><g><path d="M 9.015625 -33.890625 C 6.847656 -32.722656 5.289062 -31.15625 4.34375 -29.1875 C 3.394531 -27.21875 3.148438 -24.945312 3.609375 -22.375 C 3.816406 -21.207031 4.066406 -20.429688 4.359375 -20.046875 C 4.648438 -19.660156 4.800781 -19.421875 4.8125 -19.328125 C 1.5625 -18.742188 -0.304688 -19.835938 -0.796875 -22.609375 C -1.140625 -24.484375 -0.765625 -26.492188 0.328125 -28.640625 C 1.429688 -30.796875 3.007812 -32.675781 5.0625 -34.28125 C 7.113281 -35.882812 9.265625 -36.890625 11.515625 -37.296875 C 12.628906 -37.492188 13.816406 -37.488281 15.078125 -37.28125 L 18.328125 -13.09375 L 24.046875 -38.890625 L 30.609375 -40.0625 L 31.828125 -5.6875 L 25.265625 -4.515625 L 24.515625 -25.484375 L 19.625 -3.515625 L 13.375 -2.390625 L 10.609375 -23.09375 L 6.6875 -1.203125 L 3.046875 -0.546875 Z M 9.015625 -33.890625 "/></g></g></g><g fill="#526554" fill-opacity="1"><g transform="translate(184.001308, 113.800829)"><g><path d="M 10.515625 -31.734375 C 8.472656 -30.816406 6.910156 -29.476562 5.828125 -27.71875 C 4.753906 -25.957031 4.25 -23.867188 4.3125 -21.453125 C 4.34375 -20.304688 4.46875 -19.507812 4.6875 -19.0625 C 4.914062 -18.625 5.03125 -18.375 5.03125 -18.3125 C 3.363281 -18.269531 2.113281 -18.582031 1.28125 -19.25 C 0.457031 -19.925781 0.0234375 -21.066406 -0.015625 -22.671875 C -0.0664062 -24.640625 0.6875 -26.578125 2.25 -28.484375 C 3.820312 -30.390625 5.859375 -31.953125 8.359375 -33.171875 C 10.859375 -34.390625 13.367188 -35.035156 15.890625 -35.109375 C 16.328125 -35.117188 16.945312 -35.101562 17.75 -35.0625 L 15.140625 -21.21875 L 21.953125 -21.390625 L 24.53125 -35.234375 L 31.1875 -35.40625 L 24.734375 -0.640625 L 18.078125 -0.46875 L 21.328125 -17.953125 L 14.53125 -17.78125 L 11.28125 -0.296875 L 4.625 -0.125 Z M 10.515625 -31.734375 "/></g></g></g></svg>