<svg xmlns="http://www.w3.org/2000/svg" xmlns:xlink="http://www.w3.org/1999/xlink" width="500" zoomAndPan="magnify" viewBox="0 0 375 374.999991" height="500" preserveAspectRatio="xMidYMid meet" version="1.0"><defs><g/></defs><rect x="-37.5" width="450" fill="#ffffff" y="-37.499999" height="449.999989" fill-opacity="1"/><rect x="-37.5" width="450" fill="#ffffff" y="-37.499999" height="449.999989" fill-opacity="1"/><g fill="#526554" fill-opacity="1"><g transform="translate(211.224689, 155.293411)"><g><path d="M 17.984375 1.328125 C 14.898438 1.328125 12.179688 0.789062 9.828125 -0.28125 C 7.484375 -1.363281 5.675781 -2.867188 4.40625 -4.796875 C 3.132812 -6.734375 2.5 -8.976562 2.5 -11.53125 C 2.5 -13.675781 2.953125 -15.628906 3.859375 -17.390625 C 4.765625 -19.160156 5.988281 -20.554688 7.53125 -21.578125 C 9.070312 -22.609375 10.769531 -23.125 12.625 -23.125 C 14.332031 -23.125 15.773438 -22.691406 16.953125 -21.828125 C 18.128906 -20.972656 18.863281 -19.789062 19.15625 -18.28125 C 16.613281 -18.28125 14.582031 -17.601562 13.0625 -16.25 C 11.550781 -14.90625 10.796875 -13.085938 10.796875 -10.796875 C 10.796875 -8.691406 11.429688 -7 12.703125 -5.71875 C 13.972656 -4.445312 15.660156 -3.8125 17.765625 -3.8125 C 20.359375 -3.8125 22.5 -4.679688 24.1875 -6.421875 C 25.875 -8.160156 26.71875 -10.351562 26.71875 -13 C 26.71875 -15.289062 26.082031 -17.460938 24.8125 -19.515625 C 23.539062 -21.578125 21.628906 -24.078125 19.078125 -27.015625 C 16.441406 -30.046875 14.445312 -32.648438 13.09375 -34.828125 C 11.75 -37.003906 11.078125 -39.390625 11.078125 -41.984375 C 11.078125 -44.535156 11.785156 -46.820312 13.203125 -48.84375 C 14.628906 -50.875 16.585938 -52.476562 19.078125 -53.65625 C 21.578125 -54.832031 24.394531 -55.421875 27.53125 -55.421875 C 31.488281 -55.421875 34.65625 -54.488281 37.03125 -52.625 C 39.40625 -50.769531 40.59375 -48.273438 40.59375 -45.140625 C 40.59375 -43.085938 40.078125 -41.425781 39.046875 -40.15625 C 38.023438 -38.882812 36.679688 -38.25 35.015625 -38.25 C 33.148438 -38.25 31.65625 -39.003906 30.53125 -40.515625 C 31.46875 -41.203125 32.203125 -42.109375 32.734375 -43.234375 C 33.273438 -44.359375 33.546875 -45.535156 33.546875 -46.765625 C 33.546875 -48.328125 33.078125 -49.570312 32.140625 -50.5 C 31.210938 -51.425781 29.941406 -51.890625 28.328125 -51.890625 C 26.378906 -51.890625 24.78125 -51.191406 23.53125 -49.796875 C 22.28125 -48.410156 21.65625 -46.640625 21.65625 -44.484375 C 21.65625 -42.523438 22.21875 -40.703125 23.34375 -39.015625 C 24.46875 -37.328125 26.226562 -35.160156 28.625 -32.515625 C 30.582031 -30.410156 32.160156 -28.597656 33.359375 -27.078125 C 34.554688 -25.566406 35.582031 -23.816406 36.4375 -21.828125 C 37.300781 -19.847656 37.734375 -17.710938 37.734375 -15.421875 C 37.734375 -12.285156 36.863281 -9.441406 35.125 -6.890625 C 33.382812 -4.347656 31.007812 -2.34375 28 -0.875 C 24.988281 0.59375 21.648438 1.328125 17.984375 1.328125 Z M 17.984375 1.328125 "/></g></g></g><g fill="#526554" fill-opacity="1"><g transform="translate(249.218329, 155.293411)"><g><path d="M 23.5625 -50.4375 C 19.84375 -49.207031 16.96875 -47.1875 14.9375 -44.375 C 12.90625 -41.5625 11.890625 -38.070312 11.890625 -33.90625 C 11.890625 -32.050781 12.0625 -30.78125 12.40625 -30.09375 C 12.75 -29.40625 12.921875 -28.988281 12.921875 -28.84375 C 7.679688 -28.84375 5.0625 -31.070312 5.0625 -35.53125 C 5.0625 -38.5625 6.222656 -41.601562 8.546875 -44.65625 C 10.867188 -47.71875 13.851562 -50.210938 17.5 -52.140625 C 21.144531 -54.078125 24.78125 -55.046875 28.40625 -55.046875 C 30.21875 -55.046875 32.078125 -54.707031 33.984375 -54.03125 L 32.296875 -15.34375 L 48.453125 -54.03125 L 59.015625 -54.03125 L 51.3125 0 L 40.734375 0 L 45.4375 -32.953125 L 31.640625 0 L 21.578125 0 L 23.046875 -33.109375 L 10.796875 0 L 4.921875 0 Z M 23.5625 -50.4375 "/></g></g></g><g fill="#526554" fill-opacity="1"><g transform="translate(303.129714, 155.293411)"><g><path d="M 26.0625 0.515625 C 21.21875 0.515625 17.554688 -0.671875 15.078125 -3.046875 C 12.609375 -5.421875 11.375 -8.929688 11.375 -13.578125 C 11.375 -15.878906 11.71875 -18.445312 12.40625 -21.28125 L 19.890625 -51.09375 C 15.679688 -49.96875 12.398438 -47.972656 10.046875 -45.109375 C 7.703125 -42.242188 6.53125 -39.097656 6.53125 -35.671875 C 6.53125 -33.273438 7.164062 -30.953125 8.4375 -28.703125 C 5.644531 -28.703125 3.476562 -29.382812 1.9375 -30.75 C 0.40625 -32.125 -0.359375 -34.0625 -0.359375 -36.5625 C -0.359375 -39.738281 0.921875 -42.78125 3.484375 -45.6875 C 6.054688 -48.601562 9.46875 -50.941406 13.71875 -52.703125 C 17.976562 -54.460938 22.484375 -55.34375 27.234375 -55.34375 C 28.898438 -55.34375 30.269531 -55.222656 31.34375 -54.984375 L 22.390625 -21.0625 C 21.554688 -17.976562 21.140625 -15.335938 21.140625 -13.140625 C 21.140625 -8.492188 23.046875 -6.171875 26.859375 -6.171875 C 32.347656 -6.171875 36.144531 -11.207031 38.25 -21.28125 L 45.578125 -55.203125 L 55.9375 -55.203125 L 48.8125 -21.28125 C 47.25 -14.09375 44.546875 -8.660156 40.703125 -4.984375 C 36.859375 -1.316406 31.976562 0.515625 26.0625 0.515625 Z M 26.0625 0.515625 "/></g></g></g><g fill="#526554" fill-opacity="1"><g transform="translate(211.224689, 254.75622)"><g><path d="M 23.5625 -50.4375 C 19.84375 -49.207031 16.96875 -47.1875 14.9375 -44.375 C 12.90625 -41.5625 11.890625 -38.070312 11.890625 -33.90625 C 11.890625 -32.050781 12.0625 -30.78125 12.40625 -30.09375 C 12.75 -29.40625 12.921875 -28.988281 12.921875 -28.84375 C 7.679688 -28.84375 5.0625 -31.070312 5.0625 -35.53125 C 5.0625 -38.5625 6.222656 -41.601562 8.546875 -44.65625 C 10.867188 -47.71875 13.851562 -50.210938 17.5 -52.140625 C 21.144531 -54.078125 24.78125 -55.046875 28.40625 -55.046875 C 30.21875 -55.046875 32.078125 -54.707031 33.984375 -54.03125 L 32.296875 -15.34375 L 48.453125 -54.03125 L 59.015625 -54.03125 L 51.3125 0 L 40.734375 0 L 45.4375 -32.953125 L 31.640625 0 L 21.578125 0 L 23.046875 -33.109375 L 10.796875 0 L 4.921875 0 Z M 23.5625 -50.4375 "/></g></g></g><g fill="#526554" fill-opacity="1"><g transform="translate(265.13608, 254.75622)"><g><path d="M 17.984375 -49.921875 C 14.703125 -48.546875 12.164062 -46.488281 10.375 -43.75 C 8.59375 -41.007812 7.703125 -37.707031 7.703125 -33.84375 C 7.703125 -32.03125 7.875 -30.769531 8.21875 -30.0625 C 8.5625 -29.351562 8.734375 -28.945312 8.734375 -28.84375 C 6.085938 -28.84375 4.113281 -29.394531 2.8125 -30.5 C 1.519531 -31.601562 0.875 -33.425781 0.875 -35.96875 C 0.875 -39.101562 2.160156 -42.148438 4.734375 -45.109375 C 7.304688 -48.066406 10.597656 -50.460938 14.609375 -52.296875 C 18.617188 -54.128906 22.628906 -55.046875 26.640625 -55.046875 C 27.328125 -55.046875 28.304688 -55 29.578125 -54.90625 L 24.890625 -33.03125 L 35.671875 -33.03125 L 40.375 -54.90625 L 50.9375 -54.90625 L 39.265625 0 L 28.703125 0 L 34.578125 -27.59375 L 23.78125 -27.59375 L 17.90625 0 L 7.34375 0 Z M 17.984375 -49.921875 "/></g></g></g><g fill="#bfd9c2" fill-opacity="1"><g transform="translate(0.0000045, 306.855345)"><g><path d="M 216.734375 -133.59375 C 217.390625 -130.957031 217.71875 -128.429688 217.71875 -126.015625 C 217.71875 -118.316406 214.800781 -111.054688 208.96875 -104.234375 C 203.144531 -97.421875 195.835938 -92.582031 187.046875 -89.71875 C 183.304688 -88.625 178.90625 -88.078125 173.84375 -88.078125 C 171.863281 -69.378906 166.3125 -52.9375 157.1875 -38.75 C 148.0625 -24.570312 136.128906 -13.578125 121.390625 -5.765625 C 106.660156 2.035156 90.164062 5.9375 71.90625 5.9375 C 51.019531 5.9375 34.582031 0.660156 22.59375 -9.890625 C 10.613281 -20.453125 4.625 -34.75 4.625 -52.78125 C 4.625 -64.875 7.316406 -76.800781 12.703125 -88.5625 C 18.085938 -100.332031 25.453125 -110.503906 34.796875 -119.078125 C 44.148438 -127.660156 54.429688 -133.597656 65.640625 -136.890625 L 65.640625 -138.21875 C 58.828125 -143.9375 53.988281 -149.984375 51.125 -156.359375 C 48.269531 -162.734375 46.84375 -170.648438 46.84375 -180.109375 C 46.84375 -191.984375 50.085938 -203.144531 56.578125 -213.59375 C 63.066406 -224.039062 71.863281 -232.394531 82.96875 -238.65625 C 94.070312 -244.925781 106.109375 -248.0625 119.078125 -248.0625 C 134.035156 -248.0625 146.351562 -243.769531 156.03125 -235.1875 C 165.707031 -226.613281 170.546875 -215.734375 170.546875 -202.546875 C 170.546875 -193.523438 168.234375 -186.15625 163.609375 -180.4375 C 158.992188 -174.71875 152.945312 -171.859375 145.46875 -171.859375 C 137.113281 -171.859375 130.410156 -175.269531 125.359375 -182.09375 C 129.316406 -184.507812 132.554688 -188.242188 135.078125 -193.296875 C 137.609375 -198.359375 138.875 -203.75 138.875 -209.46875 C 138.875 -215.625 137.332031 -220.460938 134.25 -223.984375 C 131.175781 -227.503906 127 -229.265625 121.71875 -229.265625 C 116 -229.265625 110.5 -227.0625 105.21875 -222.65625 C 99.945312 -218.257812 95.71875 -212.378906 92.53125 -205.015625 C 89.34375 -197.648438 87.75 -189.898438 87.75 -181.765625 C 87.75 -170.765625 90.71875 -161.46875 96.65625 -153.875 C 102.59375 -146.289062 110.726562 -141.179688 121.0625 -138.546875 L 121.0625 -137.234375 C 110.726562 -135.253906 101 -130.46875 91.875 -122.875 C 82.75 -115.289062 75.488281 -106.054688 70.09375 -95.171875 C 64.707031 -84.285156 62.015625 -73.234375 62.015625 -62.015625 C 62.015625 -50.578125 64.875 -41.671875 70.59375 -35.296875 C 76.3125 -28.921875 84.226562 -25.734375 94.34375 -25.734375 C 103.800781 -25.734375 113.144531 -28.367188 122.375 -33.640625 C 131.613281 -38.921875 139.53125 -46.289062 146.125 -55.75 C 152.726562 -65.207031 157.128906 -75.875 159.328125 -87.75 C 154.492188 -87.75 149.4375 -87.085938 144.15625 -85.765625 C 132.0625 -81.804688 123.375 -75.976562 118.09375 -68.28125 L 117.109375 -67.953125 C 114.691406 -71.035156 112.710938 -74.992188 111.171875 -79.828125 C 110.285156 -82.460938 109.84375 -85.320312 109.84375 -88.40625 C 109.84375 -95.882812 112.484375 -102.59375 117.765625 -108.53125 C 123.046875 -114.46875 129.644531 -118.644531 137.5625 -121.0625 C 143.71875 -122.820312 152.179688 -124.140625 162.953125 -125.015625 C 170.210938 -125.460938 176.484375 -126.234375 181.765625 -127.328125 C 186.816406 -128.867188 191.925781 -131.453125 197.09375 -135.078125 C 202.269531 -138.710938 206.175781 -142.289062 208.8125 -145.8125 L 209.46875 -145.8125 C 212.769531 -142.507812 215.191406 -138.4375 216.734375 -133.59375 Z M 216.734375 -133.59375 "/></g></g></g></svg>